<svg width="40" height="40" viewBox="0 0 40 40" fill="none" xmlns="http://www.w3.org/2000/svg">
<path d="M25.7075 16.2925C25.8005 16.3854 25.8742 16.4957 25.9246 16.6171C25.9749 16.7385 26.0008 16.8686 26.0008 17C26.0008 17.1314 25.9749 17.2615 25.9246 17.3829C25.8742 17.5043 25.8005 17.6146 25.7075 17.7075L18.7075 24.7075C18.6146 24.8005 18.5043 24.8742 18.3829 24.9246C18.2615 24.9749 18.1314 25.0008 18 25.0008C17.8686 25.0008 17.7385 24.9749 17.6171 24.9246C17.4957 24.8742 17.3854 24.8005 17.2925 24.7075L14.2925 21.7075C14.1049 21.5199 13.9994 21.2654 13.9994 21C13.9994 20.7346 14.1049 20.4801 14.2925 20.2925C14.4801 20.1049 14.7346 19.9994 15 19.9994C15.2654 19.9994 15.5199 20.1049 15.7075 20.2925L18 22.5862L24.2925 16.2925C24.3854 16.1995 24.4957 16.1258 24.6171 16.0754C24.7385 16.0251 24.8686 15.9992 25 15.9992C25.1314 15.9992 25.2615 16.0251 25.3829 16.0754C25.5043 16.1258 25.6146 16.1995 25.7075 16.2925ZM33 20C33 22.5712 32.2376 25.0846 30.8091 27.2224C29.3806 29.3602 27.3503 31.0265 24.9749 32.0104C22.5994 32.9944 19.9856 33.2518 17.4638 32.7502C14.9421 32.2486 12.6257 31.0105 10.8076 29.1924C8.98953 27.3743 7.7514 25.0579 7.2498 22.5362C6.74819 20.0144 7.00563 17.4006 7.98957 15.0251C8.97351 12.6497 10.6398 10.6194 12.7776 9.19089C14.9154 7.76244 17.4288 7 20 7C23.4467 7.00364 26.7512 8.37445 29.1884 10.8116C31.6256 13.2488 32.9964 16.5533 33 20ZM31 20C31 17.8244 30.3549 15.6977 29.1462 13.8887C27.9375 12.0798 26.2195 10.6699 24.2095 9.83732C22.1995 9.00476 19.9878 8.78692 17.854 9.21136C15.7202 9.6358 13.7602 10.6834 12.2218 12.2218C10.6835 13.7602 9.6358 15.7202 9.21137 17.854C8.78693 19.9878 9.00477 22.1995 9.83733 24.2095C10.6699 26.2195 12.0798 27.9375 13.8887 29.1462C15.6977 30.3549 17.8244 31 20 31C22.9164 30.9967 25.7123 29.8367 27.7745 27.7745C29.8367 25.7123 30.9967 22.9164 31 20Z" fill="white"/>
</svg>
