<svg width="33" height="27" viewBox="0 0 33 27" fill="none" xmlns="http://www.w3.org/2000/svg">
<path d="M26.832 8.5126C25.4952 7.41642 23.9064 6.54758 22.1573 5.9562C20.4081 5.36482 18.5332 5.06259 16.6406 5.06694H16.5891C8.65746 5.08909 2.20312 10.4458 2.20312 16.9986V19.4107C2.20313 19.8582 2.42042 20.2875 2.80722 20.6039C3.19401 20.9204 3.71862 21.0982 4.26562 21.0982H29.0156C29.5626 21.0982 30.0872 20.9204 30.474 20.6039C30.8608 20.2875 31.0781 19.8582 31.0781 19.4107V16.8794C31.0834 15.3242 30.7108 13.7836 29.9818 12.3472C29.2528 10.9108 28.1821 9.60737 26.832 8.5126ZM29.0156 19.4107H15.572L22.6309 11.4689C22.7919 11.2879 22.8585 11.062 22.8159 10.8409C22.7734 10.6197 22.6252 10.4215 22.404 10.2898C22.1828 10.158 21.9067 10.1035 21.6364 10.1384C21.3662 10.1732 21.1239 10.2944 20.9629 10.4754L13.0209 19.4107H4.26562V16.9986C4.26562 16.6738 4.28496 16.3532 4.32105 16.0357H7.35938C7.63288 16.0357 7.89518 15.9468 8.08858 15.7886C8.28198 15.6303 8.39062 15.4157 8.39062 15.1919C8.39062 14.9682 8.28198 14.7536 8.08858 14.5953C7.89518 14.4371 7.63288 14.3482 7.35938 14.3482H4.68715C6.01746 10.2497 10.359 7.151 15.6094 6.7903V9.28569C15.6094 9.50947 15.718 9.72408 15.9114 9.88231C16.1048 10.0405 16.3671 10.1294 16.6406 10.1294C16.9141 10.1294 17.1764 10.0405 17.3698 9.88231C17.5632 9.72408 17.6719 9.50947 17.6719 9.28569V6.78925C20.2302 6.9654 22.6586 7.78729 24.6213 9.14137C26.5841 10.4954 27.9845 12.3148 28.6289 14.3482H25.9219C25.6484 14.3482 25.3861 14.4371 25.1927 14.5953C24.9993 14.7536 24.8906 14.9682 24.8906 15.1919C24.8906 15.4157 24.9993 15.6303 25.1927 15.7886C25.3861 15.9468 25.6484 16.0357 25.9219 16.0357H28.9731C29.0002 16.3152 29.0156 16.5957 29.0156 16.8794V19.4107Z" fill="white"/>
</svg>
