<svg width="24" height="24" viewBox="0 0 24 24" fill="none" xmlns="http://www.w3.org/2000/svg">
<g opacity="0.5">
<path d="M5.01935 3.42208C4.95348 3.34784 4.87354 3.2874 4.78415 3.24428C4.69476 3.20116 4.59769 3.17621 4.49859 3.17088C4.39948 3.16555 4.30031 3.17994 4.20681 3.21322C4.1133 3.2465 4.02734 3.29801 3.95389 3.36476C3.88044 3.43151 3.82097 3.51217 3.77892 3.60207C3.73688 3.69198 3.7131 3.78933 3.70895 3.88849C3.70481 3.98765 3.72039 4.08665 3.75479 4.17975C3.78919 4.27284 3.84172 4.35819 3.90935 4.43083L5.7131 6.41552C2.3081 8.50521 0.843721 11.7265 0.779034 11.8727C0.73639 11.9686 0.714355 12.0724 0.714355 12.1774C0.714355 12.2824 0.73639 12.3862 0.779034 12.4821C0.811846 12.5561 1.60591 14.3168 3.37122 16.0821C5.72341 18.4333 8.69435 19.6765 11.9643 19.6765C13.6449 19.686 15.3085 19.34 16.8459 18.6611L18.9084 20.9308C18.9743 21.0051 19.0542 21.0655 19.1436 21.1086C19.233 21.1517 19.3301 21.1767 19.4292 21.182C19.5283 21.1874 19.6274 21.173 19.721 21.1397C19.8145 21.1064 19.9004 21.0549 19.9739 20.9881C20.0473 20.9214 20.1068 20.8407 20.1488 20.7508C20.1909 20.6609 20.2147 20.5636 20.2188 20.4644C20.2229 20.3653 20.2074 20.2663 20.173 20.1732C20.1386 20.0801 20.086 19.9947 20.0184 19.9221L5.01935 3.42208ZM9.45653 10.5321L13.3631 14.8305C12.7748 15.14 12.1004 15.2453 11.4458 15.13C10.7911 15.0146 10.1933 14.6851 9.74624 14.1932C9.29916 13.7013 9.02813 13.0748 8.97569 12.4122C8.92326 11.7495 9.09239 11.0882 9.45653 10.5321ZM11.9643 18.1765C9.07872 18.1765 6.55778 17.1274 4.47091 15.0593C3.61433 14.208 2.8858 13.2369 2.3081 12.1765C2.74778 11.3524 4.15122 9.04614 6.74716 7.54708L8.43466 9.39864C7.78135 10.2354 7.44488 11.2761 7.48472 12.3369C7.52456 13.3977 7.93815 14.4103 8.65238 15.1957C9.36661 15.981 10.3355 16.4886 11.3878 16.6287C12.4401 16.7688 13.508 16.5323 14.4028 15.9611L15.7837 17.4799C14.565 17.9475 13.2697 18.1837 11.9643 18.1765ZM12.5268 9.22989C12.3314 9.1926 12.1588 9.07919 12.047 8.91463C11.9352 8.75007 11.8933 8.54782 11.9306 8.35239C11.9679 8.15696 12.0813 7.98435 12.2459 7.87253C12.4104 7.76071 12.6127 7.71885 12.8081 7.75614C13.764 7.94146 14.6343 8.43081 15.2894 9.15122C15.9444 9.87163 16.349 10.7845 16.4428 11.7536C16.4613 11.9517 16.4004 12.149 16.2735 12.3021C16.1465 12.4552 15.9639 12.5517 15.7659 12.5702C15.7425 12.5716 15.719 12.5716 15.6956 12.5702C15.5081 12.571 15.3272 12.5016 15.1884 12.3756C15.0495 12.2496 14.9629 12.0762 14.9456 11.8896C14.8825 11.2449 14.613 10.6379 14.1772 10.1587C13.7414 9.67952 13.1626 9.35377 12.5268 9.22989ZM23.1468 12.4821C23.1075 12.5702 22.1578 14.673 20.0193 16.5883C19.9463 16.6559 19.8605 16.7082 19.767 16.7422C19.6735 16.7763 19.5742 16.7914 19.4748 16.7867C19.3754 16.782 19.278 16.7576 19.1881 16.7148C19.0983 16.6721 19.0178 16.6119 18.9515 16.5378C18.8851 16.4636 18.8342 16.377 18.8016 16.283C18.7691 16.189 18.7555 16.0894 18.7618 15.9901C18.7681 15.8908 18.7941 15.7938 18.8382 15.7046C18.8824 15.6155 18.9439 15.536 19.019 15.4708C20.0681 14.5283 20.9494 13.4143 21.6253 12.1765C21.0463 11.115 20.3162 10.1433 19.4578 9.29177C17.3709 7.22552 14.85 6.17645 11.9643 6.17645C11.3563 6.17571 10.7493 6.22494 10.1493 6.32364C10.0518 6.3409 9.95177 6.33865 9.85508 6.31703C9.75839 6.29541 9.66694 6.25485 9.58602 6.19768C9.5051 6.14052 9.4363 6.06789 9.38361 5.98399C9.33092 5.90009 9.29537 5.80658 9.27902 5.70886C9.26267 5.61114 9.26585 5.51115 9.28836 5.41467C9.31088 5.31818 9.35229 5.22711 9.4102 5.14672C9.46811 5.06633 9.54137 4.99822 9.62576 4.9463C9.71014 4.89439 9.80398 4.85971 9.90185 4.84427C10.5836 4.73171 11.2734 4.67558 11.9643 4.67645C15.2343 4.67645 18.2053 5.91958 20.5575 8.27177C22.3228 10.0371 23.1168 11.7986 23.1497 11.8727C23.1923 11.9686 23.2143 12.0724 23.2143 12.1774C23.2143 12.2824 23.1923 12.3862 23.1497 12.4821H23.1468Z" fill="white"/>
</g>
</svg>
