<svg width="33" height="27" viewBox="0 0 33 27" fill="none" xmlns="http://www.w3.org/2000/svg">
<path d="M16.3191 2.82153C13.6676 2.82153 11.0756 3.46484 8.87098 4.6701C6.66634 5.87536 4.94803 7.58845 3.93334 9.59272C2.91865 11.597 2.65316 13.8025 3.17045 15.9302C3.68773 18.0579 4.96455 20.0124 6.83945 21.5464C8.71435 23.0804 11.1031 24.125 13.7037 24.5483C16.3042 24.9715 18.9998 24.7543 21.4494 23.9241C23.8991 23.0939 25.9929 21.688 27.466 19.8842C28.9391 18.0804 29.7253 15.9597 29.7253 13.7903C29.7216 10.8821 28.3079 8.09397 25.7946 6.0376C23.2813 3.98122 19.8735 2.8246 16.3191 2.82153ZM16.3191 23.0715C14.0755 23.0715 11.8823 22.5272 10.0168 21.5074C8.15138 20.4875 6.69742 19.038 5.83884 17.3421C4.98026 15.6461 4.75561 13.78 5.19331 11.9796C5.63102 10.1792 6.7114 8.52545 8.29786 7.22745C9.88431 5.92944 11.9056 5.04549 14.106 4.68737C16.3065 4.32925 18.5874 4.51305 20.6602 5.21553C22.733 5.918 24.5046 7.1076 25.7511 8.6339C26.9975 10.1602 27.6628 11.9546 27.6628 13.7903C27.6594 16.251 26.4632 18.6101 24.3366 20.35C22.2099 22.09 19.3266 23.0687 16.3191 23.0715ZM12.332 10.8646C12.9148 11.7661 13.2195 12.7705 13.2195 13.7903C13.2195 14.8101 12.9148 15.8145 12.332 16.716C12.2704 16.8163 12.1849 16.9055 12.0806 16.9785C11.9762 17.0514 11.8552 17.1066 11.7245 17.1407C11.5937 17.1749 11.456 17.1874 11.3193 17.1774C11.1826 17.1675 11.0498 17.1353 10.9285 17.0828C10.8072 17.0303 10.6999 16.9585 10.6129 16.8717C10.526 16.7848 10.4611 16.6847 10.422 16.577C10.383 16.4694 10.3706 16.3565 10.3856 16.2449C10.4006 16.1332 10.4426 16.0252 10.5093 15.9271C10.9409 15.2702 11.1667 14.5361 11.1667 13.7903C11.1667 13.0445 10.9409 12.3104 10.5093 11.6535C10.3881 11.4563 10.3662 11.228 10.4483 11.0178C10.5304 10.8075 10.71 10.6319 10.9484 10.5287C11.1869 10.4254 11.4654 10.4028 11.724 10.4656C11.9827 10.5284 12.201 10.6716 12.332 10.8646ZM19.5508 7.48958C20.8192 9.42871 21.4828 11.5941 21.4828 13.7934C21.4828 15.9928 20.8192 18.1582 19.5508 20.0973C19.4135 20.2818 19.1949 20.4161 18.9402 20.4727C18.6854 20.5293 18.4139 20.5038 18.1814 20.4015C17.9489 20.2991 17.7733 20.1278 17.6906 19.9227C17.608 19.7175 17.6246 19.4943 17.7371 19.2989C18.8462 17.6046 19.4266 15.7123 19.4266 13.7903C19.4266 11.8682 18.8462 9.97596 17.7371 8.28165C17.6082 8.08417 17.5805 7.85288 17.66 7.63867C17.7395 7.42446 17.9198 7.24488 18.1612 7.13942C18.4025 7.03397 18.6852 7.01128 18.947 7.07636C19.2088 7.14143 19.4283 7.28893 19.5572 7.48642L19.5508 7.48958ZM15.9414 9.17708C16.8672 10.5975 17.3515 12.1826 17.3515 13.7924C17.3515 15.4022 16.8672 16.9872 15.9414 18.4077C15.8791 18.5075 15.7932 18.5961 15.6886 18.6684C15.584 18.7407 15.4629 18.7952 15.3323 18.8288C15.2017 18.8624 15.0642 18.8744 14.9279 18.8641C14.7916 18.8537 14.6591 18.8213 14.5383 18.7686C14.4174 18.716 14.3106 18.6441 14.224 18.5574C14.1375 18.4706 14.0729 18.3705 14.0341 18.2631C13.9953 18.1557 13.983 18.043 13.9979 17.9317C14.0129 17.8203 14.0548 17.7125 14.1212 17.6146C14.8881 16.4383 15.2893 15.1256 15.2893 13.7924C15.2893 12.4592 14.8881 11.1465 14.1212 9.9702C14.0548 9.87225 14.0129 9.76445 13.9979 9.65311C13.983 9.54176 13.9953 9.42908 14.0341 9.32166C14.0729 9.21424 14.1375 9.11421 14.224 9.02742C14.3106 8.94063 14.4174 8.86882 14.5383 8.81616C14.6591 8.7635 14.7916 8.73106 14.9279 8.72073C15.0642 8.71039 15.2017 8.72237 15.3323 8.75597C15.4629 8.78956 15.584 8.8441 15.6886 8.9164C15.7932 8.9887 15.8791 9.07732 15.9414 9.17708Z" fill="white"/>
</svg>
