<svg width="24" height="24" viewBox="0 0 24 24" fill="none" xmlns="http://www.w3.org/2000/svg">
<path d="M19.9131 9.79569L12.4131 17.2957C12.3435 17.3654 12.2608 17.4207 12.1697 17.4585C12.0787 17.4962 11.9811 17.5157 11.8825 17.5157C11.7839 17.5157 11.6863 17.4962 11.5953 17.4585C11.5042 17.4207 11.4215 17.3654 11.3519 17.2957L3.85187 9.79569C3.71114 9.65496 3.63208 9.46409 3.63208 9.26507C3.63208 9.06604 3.71114 8.87517 3.85187 8.73444C3.9926 8.59371 4.18347 8.51465 4.3825 8.51465C4.58152 8.51465 4.77239 8.59371 4.91312 8.73444L11.8825 15.7048L18.8519 8.73444C18.9216 8.66476 19.0043 8.60948 19.0953 8.57177C19.1864 8.53406 19.284 8.51465 19.3825 8.51465C19.481 8.51465 19.5786 8.53406 19.6697 8.57177C19.7607 8.60948 19.8434 8.66476 19.9131 8.73444C19.9828 8.80412 20.0381 8.88685 20.0758 8.97789C20.1135 9.06894 20.1329 9.16652 20.1329 9.26507C20.1329 9.36361 20.1135 9.46119 20.0758 9.55224C20.0381 9.64328 19.9828 9.72601 19.9131 9.79569Z" fill="white"/>
</svg>
