<svg width="24" height="24" viewBox="0 0 24 24" fill="none" xmlns="http://www.w3.org/2000/svg">
<path d="M20.0588 3.71387H3.55884C3.16101 3.71387 2.77948 3.8719 2.49818 4.15321C2.21687 4.43451 2.05884 4.81604 2.05884 5.21387V17.9639C2.05884 18.3617 2.21687 18.7432 2.49818 19.0245C2.77948 19.3058 3.16101 19.4639 3.55884 19.4639H5.05884V20.9639C5.05884 21.1628 5.13786 21.3535 5.27851 21.4942C5.41916 21.6348 5.60993 21.7139 5.80884 21.7139C6.00775 21.7139 6.19852 21.6348 6.33917 21.4942C6.47982 21.3535 6.55884 21.1628 6.55884 20.9639V19.4639H17.0588V20.9639C17.0588 21.1628 17.1379 21.3535 17.2785 21.4942C17.4192 21.6348 17.6099 21.7139 17.8088 21.7139C18.0078 21.7139 18.1985 21.6348 18.3392 21.4942C18.4798 21.3535 18.5588 21.1628 18.5588 20.9639V19.4639H20.0588C20.4567 19.4639 20.8382 19.3058 21.1195 19.0245C21.4008 18.7432 21.5588 18.3617 21.5588 17.9639V5.21387C21.5588 4.81604 21.4008 4.43451 21.1195 4.15321C20.8382 3.8719 20.4567 3.71387 20.0588 3.71387ZM20.0588 17.9639H3.55884V5.21387H20.0588V11.2139H18.4951C18.307 10.1013 17.7079 9.10001 16.8164 8.40838C15.9249 7.71675 14.8061 7.38527 13.6817 7.47963C12.5573 7.57399 11.5094 8.0873 10.7457 8.91784C9.98191 9.74838 9.55803 10.8355 9.55803 11.9639C9.55803 13.0922 9.98191 14.1794 10.7457 15.0099C11.5094 15.8404 12.5573 16.3537 13.6817 16.4481C14.8061 16.5425 15.9249 16.211 16.8164 15.5194C17.7079 14.8277 18.307 13.8264 18.4951 12.7139H20.0588V17.9639ZM15.3563 11.2139C15.1912 10.9279 14.9364 10.7044 14.6313 10.578C14.3263 10.4517 13.988 10.4295 13.6691 10.515C13.3501 10.6004 13.0683 10.7888 12.8673 11.0507C12.6663 11.3127 12.5573 11.6337 12.5573 11.9639C12.5573 12.2941 12.6663 12.615 12.8673 12.877C13.0683 13.139 13.3501 13.3273 13.6691 13.4128C13.988 13.4982 14.3263 13.476 14.6313 13.3497C14.9364 13.2233 15.1912 12.9998 15.3563 12.7139H16.9651C16.7825 13.4209 16.3484 14.037 15.7441 14.4468C15.1397 14.8566 14.4067 15.032 13.6823 14.94C12.958 14.8479 12.292 14.4949 11.8093 13.947C11.3267 13.3992 11.0604 12.694 11.0604 11.9639C11.0604 11.2337 11.3267 10.5286 11.8093 9.98069C12.292 9.43281 12.958 9.07978 13.6823 8.98778C14.4067 8.89577 15.1397 9.07111 15.7441 9.48092C16.3484 9.89072 16.7825 10.5069 16.9651 11.2139H15.3563Z" fill="white"/>
</svg>
