<svg width="24" height="24" viewBox="0 0 24 24" fill="none" xmlns="http://www.w3.org/2000/svg">
<path d="M10.9222 15.9779C10.9919 16.0476 11.0472 16.1303 11.0849 16.2213C11.1227 16.3124 11.1421 16.41 11.1421 16.5085C11.1421 16.6071 11.1227 16.7047 11.0849 16.7957C11.0472 16.8868 10.9919 16.9695 10.9222 17.0391L7.92216 20.0392C7.8525 20.1089 7.76978 20.1642 7.67874 20.2019C7.58769 20.2397 7.49009 20.2591 7.39153 20.2591C7.29297 20.2591 7.19537 20.2397 7.10433 20.2019C7.01328 20.1642 6.93056 20.1089 6.8609 20.0392L3.86091 17.0391C3.79122 16.9695 3.73595 16.8867 3.69824 16.7957C3.66052 16.7047 3.64111 16.6071 3.64111 16.5085C3.64111 16.41 3.66052 16.3124 3.69824 16.2214C3.73595 16.1303 3.79122 16.0476 3.86091 15.9779C4.00164 15.8372 4.19251 15.7581 4.39153 15.7581C4.49008 15.7581 4.58766 15.7775 4.6787 15.8152C4.76975 15.8529 4.85247 15.9082 4.92216 15.9779L6.64153 17.6982V4.50852C6.64153 4.30961 6.72055 4.11885 6.8612 3.97819C7.00185 3.83754 7.19262 3.75852 7.39153 3.75852C7.59044 3.75852 7.78121 3.83754 7.92186 3.97819C8.06251 4.11885 8.14153 4.30961 8.14153 4.50852V17.6982L9.8609 15.9779C9.93056 15.9082 10.0133 15.8528 10.1043 15.8151C10.1954 15.7774 10.293 15.7579 10.3915 15.7579C10.4901 15.7579 10.5877 15.7774 10.6787 15.8151C10.7698 15.8528 10.8525 15.9082 10.9222 15.9779ZM19.9222 6.9779L16.9222 3.9779C16.8525 3.90817 16.7698 3.85285 16.6787 3.8151C16.5877 3.77736 16.4901 3.75793 16.3915 3.75793C16.293 3.75793 16.1954 3.77736 16.1043 3.8151C16.0133 3.85285 15.9306 3.90817 15.8609 3.9779L12.8609 6.9779C12.7202 7.11863 12.6411 7.3095 12.6411 7.50852C12.6411 7.70755 12.7202 7.89842 12.8609 8.03915C13.0016 8.17988 13.1925 8.25894 13.3915 8.25894C13.5906 8.25894 13.7814 8.17988 13.9222 8.03915L15.6415 6.31884V19.5085C15.6415 19.7074 15.7205 19.8982 15.8612 20.0389C16.0019 20.1795 16.1926 20.2585 16.3915 20.2585C16.5904 20.2585 16.7812 20.1795 16.9219 20.0389C17.0625 19.8982 17.1415 19.7074 17.1415 19.5085V6.31884L18.8609 8.03915C19.0016 8.17988 19.1925 8.25894 19.3915 8.25894C19.5906 8.25894 19.7814 8.17988 19.9222 8.03915C20.0629 7.89842 20.1419 7.70755 20.1419 7.50852C20.1419 7.3095 20.0629 7.11863 19.9222 6.9779Z" fill="white"/>
</svg>
