<svg width="16" height="16" viewBox="0 0 16 16" fill="none" xmlns="http://www.w3.org/2000/svg">
<path d="M8.56494 7.8291C8.56494 7.97744 8.52096 8.12244 8.43854 8.24578C8.35613 8.36912 8.239 8.46524 8.10195 8.52201C7.96491 8.57878 7.81411 8.59363 7.66862 8.56469C7.52314 8.53575 7.3895 8.46432 7.28461 8.35943C7.17972 8.25454 7.10829 8.1209 7.07935 7.97542C7.05041 7.82993 7.06527 7.67913 7.12203 7.54209C7.1788 7.40504 7.27493 7.28791 7.39826 7.2055C7.5216 7.12309 7.66661 7.0791 7.81494 7.0791C8.01385 7.0791 8.20462 7.15812 8.34527 7.29877C8.48592 7.43942 8.56494 7.63019 8.56494 7.8291ZM12.0649 7.0791C11.9166 7.0791 11.7716 7.12309 11.6483 7.2055C11.5249 7.28791 11.4288 7.40504 11.372 7.54209C11.3153 7.67913 11.3004 7.82993 11.3294 7.97542C11.3583 8.1209 11.4297 8.25454 11.5346 8.35943C11.6395 8.46432 11.7731 8.53575 11.9186 8.56469C12.0641 8.59363 12.2149 8.57878 12.352 8.52201C12.489 8.46524 12.6061 8.36912 12.6885 8.24578C12.771 8.12244 12.8149 7.97744 12.8149 7.8291C12.8149 7.63019 12.7359 7.43942 12.5953 7.29877C12.4546 7.15812 12.2639 7.0791 12.0649 7.0791ZM3.56494 7.0791C3.41661 7.0791 3.2716 7.12309 3.14826 7.2055C3.02493 7.28791 2.9288 7.40504 2.87203 7.54209C2.81527 7.67913 2.80041 7.82993 2.82935 7.97542C2.85829 8.1209 2.92972 8.25454 3.03461 8.35943C3.1395 8.46432 3.27314 8.53575 3.41862 8.56469C3.56411 8.59363 3.71491 8.57878 3.85195 8.52201C3.989 8.46524 4.10613 8.36912 4.18854 8.24578C4.27096 8.12244 4.31494 7.97744 4.31494 7.8291C4.31494 7.63019 4.23592 7.43942 4.09527 7.29877C3.95462 7.15812 3.76385 7.0791 3.56494 7.0791Z" fill="white"/>
</svg>
