<svg width="15" height="12" viewBox="0 0 15 12" fill="none" xmlns="http://www.w3.org/2000/svg">
<path d="M14.9051 0.772241C14.8422 0.620507 14.75 0.482657 14.6338 0.366576C14.5177 0.250366 14.3799 0.158176 14.2281 0.0952763C14.0764 0.0323766 13.9138 0 13.7495 0C13.5852 0 13.4226 0.0323766 13.2709 0.0952763C13.1191 0.158176 12.9813 0.250366 12.8652 0.366576L5.00026 8.23308L2.13489 5.36614C1.90035 5.13161 1.58226 4.99985 1.25059 4.99985C0.91891 4.99985 0.600818 5.13161 0.366287 5.36614C0.131757 5.60067 0 5.91876 0 6.25044C0 6.58211 0.131757 6.90021 0.366287 7.13474L4.11596 10.8844C4.23205 11.0006 4.36989 11.0928 4.52163 11.1557C4.67336 11.2186 4.83601 11.251 5.00026 11.251C5.16452 11.251 5.32716 11.2186 5.4789 11.1557C5.63063 11.0928 5.76848 11.0006 5.88456 10.8844L14.6338 2.13518C14.75 2.01909 14.8422 1.88124 14.9051 1.72951C14.968 1.57778 15.0004 1.41513 15.0004 1.25088C15.0004 1.08662 14.968 0.923976 14.9051 0.772241Z" fill="#C6E11E"/>
</svg>
