<svg width="33" height="27" viewBox="0 0 33 27" fill="none" xmlns="http://www.w3.org/2000/svg">
<path d="M5.97632 6.25024V21.4377C5.97632 21.6615 5.86767 21.8761 5.67427 22.0344C5.48088 22.1926 5.21857 22.2815 4.94507 22.2815C4.67156 22.2815 4.40926 22.1926 4.21586 22.0344C4.02247 21.8761 3.91382 21.6615 3.91382 21.4377V6.25024C3.91382 6.02647 4.02247 5.81186 4.21586 5.65362C4.40926 5.49539 4.67156 5.40649 4.94507 5.40649C5.21857 5.40649 5.48088 5.49539 5.67427 5.65362C5.86767 5.81186 5.97632 6.02647 5.97632 6.25024ZM16.8044 11.9983L14.2263 12.6838V10.469C14.2263 10.2452 14.1177 10.0306 13.9243 9.87237C13.7309 9.71414 13.4686 9.62524 13.1951 9.62524C12.9216 9.62524 12.6593 9.71414 12.4659 9.87237C12.2725 10.0306 12.1638 10.2452 12.1638 10.469V12.6838L9.58569 11.9983C9.32552 11.9284 9.04205 11.9459 8.79765 12.0469C8.55324 12.148 8.36792 12.3244 8.28245 12.5372C8.19698 12.7501 8.21836 12.982 8.3419 13.182C8.46543 13.382 8.68099 13.5336 8.94116 13.6035L11.5193 14.288L9.92858 16.081C9.84452 16.1704 9.78321 16.2726 9.74826 16.3817C9.71332 16.4908 9.70546 16.6045 9.72514 16.7161C9.74482 16.8277 9.79165 16.935 9.86286 17.0315C9.93407 17.1281 10.0282 17.212 10.1397 17.2782C10.2512 17.3445 10.3779 17.3918 10.5121 17.4174C10.6463 17.443 10.7855 17.4462 10.9213 17.427C11.0571 17.4079 11.1869 17.3666 11.3029 17.3057C11.4189 17.2448 11.5187 17.1654 11.5966 17.0724L13.1873 15.2794L14.778 17.0724C14.8559 17.1654 14.9558 17.2448 15.0718 17.3057C15.1878 17.3666 15.3175 17.4079 15.4534 17.427C15.5892 17.4462 15.7283 17.443 15.8626 17.4174C15.9968 17.3918 16.1234 17.3445 16.2349 17.2782C16.3465 17.212 16.4406 17.1281 16.5118 17.0315C16.583 16.935 16.6298 16.8277 16.6495 16.7161C16.6692 16.6045 16.6613 16.4908 16.6264 16.3817C16.5915 16.2726 16.5301 16.1704 16.4461 16.081L14.8554 14.288L17.4335 13.6035C17.6822 13.5278 17.8856 13.3767 18.0016 13.1814C18.1175 12.9861 18.137 12.7618 18.056 12.5551C17.975 12.3484 17.7997 12.1752 17.5666 12.0715C17.3335 11.9678 17.0605 11.9415 16.8044 11.9983ZM30.4685 12.5404C30.384 12.3295 30.2013 12.1543 29.96 12.0528C29.7187 11.9513 29.4383 11.9318 29.1794 11.9983L26.6013 12.6838V10.469C26.6013 10.2452 26.4927 10.0306 26.2993 9.87237C26.1059 9.71414 25.8436 9.62524 25.5701 9.62524C25.2966 9.62524 25.0343 9.71414 24.8409 9.87237C24.6475 10.0306 24.5388 10.2452 24.5388 10.469V12.6838L21.9607 11.9993C21.8319 11.9651 21.6961 11.9519 21.561 11.9605C21.426 11.9692 21.2943 11.9996 21.1736 12.0498C21.0529 12.1001 20.9454 12.1694 20.8574 12.2536C20.7694 12.3379 20.7026 12.4355 20.6607 12.5409C20.6188 12.6463 20.6027 12.7575 20.6133 12.8679C20.6238 12.9784 20.6609 13.0861 20.7224 13.1849C20.7839 13.2837 20.8685 13.3716 20.9715 13.4436C21.0745 13.5156 21.1938 13.5703 21.3226 13.6046L23.9007 14.2891L22.31 16.082C22.226 16.1714 22.1647 16.2737 22.1297 16.3827C22.0948 16.4918 22.0869 16.6055 22.1066 16.7171C22.1263 16.8288 22.1731 16.936 22.2443 17.0326C22.3155 17.1291 22.4097 17.213 22.5212 17.2793C22.6327 17.3456 22.7593 17.3929 22.8935 17.4184C23.0278 17.444 23.1669 17.4473 23.3028 17.4281C23.4386 17.4089 23.5683 17.3676 23.6843 17.3067C23.8003 17.2458 23.9002 17.1665 23.9781 17.0734L25.5688 15.2805L27.1595 17.0734C27.2374 17.1665 27.3373 17.2458 27.4533 17.3067C27.5692 17.3676 27.699 17.4089 27.8348 17.4281C27.9706 17.4473 28.1098 17.444 28.244 17.4184C28.3783 17.3929 28.5049 17.3456 28.6164 17.2793C28.7279 17.213 28.822 17.1291 28.8932 17.0326C28.9645 16.936 29.0113 16.8288 29.031 16.7171C29.0507 16.6055 29.0428 16.4918 29.0079 16.3827C28.9729 16.2737 28.9116 16.1714 28.8275 16.082L27.2368 14.2891L29.815 13.6046C30.0738 13.534 30.2879 13.3824 30.4104 13.1829C30.5329 12.9835 30.5538 12.7524 30.4685 12.5404Z" fill="white"/>
</svg>
