<svg width="16" height="16" viewBox="0 0 16 16" fill="none" xmlns="http://www.w3.org/2000/svg">
<path d="M8 1.5C6.71442 1.5 5.45772 1.88122 4.3888 2.59545C3.31988 3.30968 2.48676 4.32484 1.99479 5.51256C1.50282 6.70028 1.37409 8.00721 1.6249 9.26809C1.8757 10.529 2.49477 11.6872 3.40381 12.5962C4.31285 13.5052 5.47104 14.1243 6.73192 14.3751C7.99279 14.6259 9.29973 14.4972 10.4874 14.0052C11.6752 13.5132 12.6903 12.6801 13.4046 11.6112C14.1188 10.5423 14.5 9.28558 14.5 8C14.4982 6.27665 13.8128 4.62441 12.5942 3.40582C11.3756 2.18722 9.72335 1.50182 8 1.5ZM8 13.5C6.91221 13.5 5.84884 13.1774 4.94437 12.5731C4.0399 11.9687 3.33495 11.1098 2.91867 10.1048C2.50238 9.09977 2.39347 7.9939 2.60568 6.927C2.8179 5.86011 3.34173 4.8801 4.11092 4.11091C4.8801 3.34172 5.86011 2.8179 6.92701 2.60568C7.9939 2.39346 9.09977 2.50238 10.1048 2.91866C11.1098 3.33494 11.9687 4.03989 12.5731 4.94436C13.1774 5.84883 13.5 6.9122 13.5 8C13.4983 9.45818 12.9184 10.8562 11.8873 11.8873C10.8562 12.9184 9.45819 13.4983 8 13.5ZM10.3538 7.14625C10.4002 7.1927 10.4371 7.24786 10.4622 7.30855C10.4873 7.36925 10.5003 7.4343 10.5003 7.5C10.5003 7.5657 10.4873 7.63075 10.4622 7.69145C10.4371 7.75214 10.4002 7.8073 10.3538 7.85375C10.3073 7.90021 10.2521 7.93706 10.1915 7.9622C10.1308 7.98734 10.0657 8.00028 10 8.00028C9.93431 8.00028 9.86925 7.98734 9.80855 7.9622C9.74786 7.93706 9.69271 7.90021 9.64625 7.85375L8.5 6.70687V10.5C8.5 10.6326 8.44732 10.7598 8.35356 10.8536C8.25979 10.9473 8.13261 11 8 11C7.86739 11 7.74022 10.9473 7.64645 10.8536C7.55268 10.7598 7.5 10.6326 7.5 10.5V6.70687L6.35375 7.85375C6.25993 7.94757 6.13268 8.00028 6 8.00028C5.86732 8.00028 5.74007 7.94757 5.64625 7.85375C5.55243 7.75993 5.49972 7.63268 5.49972 7.5C5.49972 7.36732 5.55243 7.24007 5.64625 7.14625L7.64625 5.14625C7.69269 5.09976 7.74783 5.06288 7.80853 5.03772C7.86923 5.01256 7.9343 4.99961 8 4.99961C8.06571 4.99961 8.13077 5.01256 8.19147 5.03772C8.25217 5.06288 8.30732 5.09976 8.35375 5.14625L10.3538 7.14625Z" fill="white"/>
</svg>
