<svg width="33" height="27" viewBox="0 0 33 27" fill="none" xmlns="http://www.w3.org/2000/svg">
<path d="M28.9482 7.42166L23.1886 2.70826C22.9971 2.55152 22.7697 2.42719 22.5195 2.34236C22.2692 2.25753 22.001 2.21387 21.7301 2.21387C21.4592 2.21387 21.1909 2.25753 20.9407 2.34236C20.6904 2.42719 20.463 2.55152 20.2715 2.70826L4.37606 15.7147C4.18371 15.8708 4.03121 16.0567 3.92742 16.2614C3.82363 16.4662 3.77063 16.6858 3.77149 16.9075V21.6209C3.77149 22.0685 3.98879 22.4977 4.37559 22.8142C4.76238 23.1306 5.28699 23.3084 5.83399 23.3084H11.5948C11.8658 23.3091 12.1342 23.2658 12.3845 23.1808C12.6348 23.0959 12.8619 22.9712 13.0527 22.8138L28.9482 9.80842C29.1397 9.65171 29.2917 9.46567 29.3954 9.26091C29.4991 9.05614 29.5524 8.83668 29.5524 8.61504C29.5524 8.3934 29.4991 8.17393 29.3954 7.96917C29.2917 7.76441 29.1397 7.57836 28.9482 7.42166ZM11.5948 21.6209H5.83399V16.9075L17.1777 7.62627L22.9386 12.3397L11.5948 21.6209ZM24.3965 11.1458L18.6357 6.43342L21.7294 3.90217L27.4902 8.61451L24.3965 11.1458Z" fill="white"/>
</svg>
