<svg width="33" height="27" viewBox="0 0 33 27" fill="none" xmlns="http://www.w3.org/2000/svg">
<path d="M26.5676 3.92188H5.94263C5.39562 3.92188 4.87101 4.09966 4.48422 4.41613C4.09743 4.7326 3.88013 5.16182 3.88013 5.60938V11.8078C3.88013 21.2599 13.6538 24.3944 15.6106 24.926C16.0284 25.043 16.4819 25.043 16.8997 24.926C18.859 24.3934 28.6301 21.2588 28.6301 11.8067V5.60938C28.6301 5.16182 28.4128 4.7326 28.026 4.41613C27.6392 4.09966 27.1146 3.92188 26.5676 3.92188ZM26.5676 11.8099C26.5676 11.9966 26.5676 12.179 26.5534 12.3594H17.2864V5.60938H26.5676V11.8099ZM5.94263 5.60938H15.2239V12.3594H5.95681C5.94778 12.179 5.94263 11.9966 5.94263 11.8099V5.60938ZM6.16692 14.0469H15.2239V23.0033C12.687 22.1216 7.32579 19.6283 6.16692 14.0469ZM17.2864 23.0022V14.0469H26.3433C25.1845 19.6251 19.8284 22.1195 17.2864 23.0022Z" fill="white"/>
</svg>
