<svg width="24" height="24" viewBox="0 0 24 24" fill="none" xmlns="http://www.w3.org/2000/svg">
<path d="M4.91726 5.45404C4.84758 5.38435 4.7923 5.30163 4.75459 5.21058C4.71688 5.11954 4.69747 5.02196 4.69747 4.92341C4.69747 4.82486 4.71688 4.72728 4.75459 4.63624C4.7923 4.54519 4.84758 4.46247 4.91726 4.39279C4.98694 4.3231 5.06967 4.26783 5.16071 4.23012C5.25176 4.1924 5.34934 4.17299 5.44789 4.17299C5.54643 4.17299 5.64401 4.1924 5.73506 4.23012C5.8261 4.26783 5.90883 4.3231 5.97851 4.39279L12.1979 10.6131L18.4173 4.39279C18.558 4.25205 18.7489 4.17299 18.9479 4.17299C19.1469 4.17299 19.3378 4.25205 19.4785 4.39279C19.6192 4.53352 19.6983 4.72439 19.6983 4.92341C19.6983 5.12243 19.6192 5.3133 19.4785 5.45404L13.2582 11.6734L19.4785 17.8928C19.6192 18.0335 19.6983 18.2244 19.6983 18.4234C19.6983 18.6224 19.6192 18.8133 19.4785 18.954C19.3378 19.0948 19.1469 19.1738 18.9479 19.1738C18.7489 19.1738 18.558 19.0948 18.4173 18.954L12.1979 12.7337L5.97851 18.954C5.83778 19.0948 5.64691 19.1738 5.44789 19.1738C5.24886 19.1738 5.05799 19.0948 4.91726 18.954C4.77653 18.8133 4.69747 18.6224 4.69747 18.4234C4.69747 18.2244 4.77653 18.0335 4.91726 17.8928L11.1376 11.6734L4.91726 5.45404Z" fill="white"/>
</svg>
