<svg width="16" height="16" viewBox="0 0 16 16" fill="none" xmlns="http://www.w3.org/2000/svg">
<path d="M14.162 3.72146L8.16203 1.72146C8.05939 1.68725 7.94842 1.68725 7.84578 1.72146L1.84578 3.72146C1.74622 3.75465 1.65963 3.81833 1.59827 3.90347C1.53691 3.9886 1.5039 4.09089 1.50391 4.19584V9.19584C1.50391 9.32845 1.55658 9.45562 1.65035 9.54939C1.74412 9.64316 1.8713 9.69584 2.00391 9.69584C2.13651 9.69584 2.26369 9.64316 2.35746 9.54939C2.45123 9.45562 2.50391 9.32845 2.50391 9.19584V4.88959L4.60328 5.58896C4.0455 6.49009 3.86813 7.57574 4.11012 8.60753C4.3521 9.63932 4.99365 10.5329 5.89391 11.0921C4.76891 11.5333 3.79641 12.3315 3.08516 13.4227C3.04817 13.4777 3.02247 13.5395 3.00957 13.6045C2.99667 13.6695 2.99681 13.7364 3.00999 13.8013C3.02318 13.8662 3.04914 13.9279 3.08637 13.9827C3.12359 14.0376 3.17134 14.0844 3.22685 14.1206C3.28235 14.1568 3.34449 14.1816 3.40966 14.1936C3.47483 14.2056 3.54174 14.2045 3.60648 14.1904C3.67122 14.1762 3.73251 14.1494 3.78679 14.1114C3.84107 14.0734 3.88725 14.025 3.92266 13.969C4.86453 12.524 6.35203 11.6958 8.00391 11.6958C9.65578 11.6958 11.1433 12.524 12.0852 13.969C12.1585 14.078 12.2718 14.1537 12.4005 14.1799C12.5293 14.206 12.6631 14.1804 12.7732 14.1086C12.8832 14.0369 12.9606 13.9247 12.9885 13.7963C13.0165 13.668 12.9928 13.5338 12.9227 13.4227C12.2114 12.3315 11.2352 11.5333 10.1139 11.0921C11.0133 10.5329 11.6542 9.63992 11.8962 8.60889C12.1381 7.57785 11.9613 6.49295 11.4045 5.59209L14.162 4.67334C14.2616 4.64017 14.3482 4.5765 14.4096 4.49136C14.471 4.40622 14.504 4.30392 14.504 4.19896C14.504 4.094 14.471 3.99171 14.4096 3.90656C14.3482 3.82142 14.2616 3.75776 14.162 3.72459V3.72146ZM11.0039 7.69584C11.004 8.17012 10.8917 8.63768 10.6762 9.06015C10.4606 9.48262 10.148 9.84797 9.76386 10.1262C9.37977 10.4044 8.93518 10.5877 8.46657 10.6608C7.99796 10.7339 7.51868 10.6949 7.06806 10.547C6.61744 10.399 6.20833 10.1463 5.87428 9.80967C5.54022 9.47298 5.29076 9.06189 5.14635 8.61013C5.00194 8.15836 4.9667 7.67879 5.04352 7.21077C5.12034 6.74275 5.30703 6.29961 5.58828 5.91771L7.84578 6.66771C7.94842 6.70193 8.05939 6.70193 8.16203 6.66771L10.4195 5.91771C10.7994 6.43271 11.0042 7.0559 11.0039 7.69584ZM8.00391 5.66896L3.58516 4.19584L8.00391 2.72271L12.4227 4.19584L8.00391 5.66896Z" fill="white"/>
</svg>
