<svg width="24" height="24" viewBox="0 0 24 24" fill="none" xmlns="http://www.w3.org/2000/svg">
<path d="M11.9764 8.60596C11.2348 8.60596 10.5097 8.82589 9.89305 9.23795C9.27637 9.65 8.79572 10.2357 8.51189 10.9209C8.22806 11.6061 8.1538 12.3601 8.2985 13.0875C8.44319 13.815 8.80034 14.4832 9.32479 15.0076C9.84924 15.5321 10.5174 15.8892 11.2449 16.0339C11.9723 16.1786 12.7263 16.1043 13.4115 15.8205C14.0967 15.5367 14.6824 15.056 15.0945 14.4393C15.5065 13.8227 15.7264 13.0976 15.7264 12.356C15.7264 11.3614 15.3314 10.4076 14.6281 9.70431C13.9248 9.00105 12.971 8.60596 11.9764 8.60596ZM11.9764 14.606C11.5314 14.606 11.0964 14.474 10.7264 14.2268C10.3564 13.9795 10.068 13.6281 9.89771 13.217C9.72741 12.8059 9.68286 12.3535 9.76967 11.917C9.85649 11.4805 10.0708 11.0796 10.3855 10.765C10.7001 10.4503 11.101 10.236 11.5375 10.1492C11.9739 10.0624 12.4263 10.1069 12.8375 10.2772C13.2486 10.4475 13.6 10.7359 13.8472 11.1059C14.0945 11.4759 14.2264 11.9109 14.2264 12.356C14.2264 12.9527 13.9894 13.525 13.5674 13.9469C13.1455 14.3689 12.5732 14.606 11.9764 14.606ZM22.4764 5.60596H1.47644C1.27753 5.60596 1.08676 5.68497 0.94611 5.82563C0.805458 5.96628 0.72644 6.15704 0.72644 6.35596V18.356C0.72644 18.5549 0.805458 18.7456 0.94611 18.8863C1.08676 19.0269 1.27753 19.106 1.47644 19.106H22.4764C22.6754 19.106 22.8661 19.0269 23.0068 18.8863C23.1474 18.7456 23.2264 18.5549 23.2264 18.356V6.35596C23.2264 6.15704 23.1474 5.96628 23.0068 5.82563C22.8661 5.68497 22.6754 5.60596 22.4764 5.60596ZM18.1311 17.606H5.82175C5.56995 16.7543 5.10907 15.9792 4.48111 15.3513C3.85315 14.7233 3.07806 14.2625 2.22644 14.0106V10.7013C3.07806 10.4495 3.85315 9.98859 4.48111 9.36063C5.10907 8.73267 5.56995 7.95758 5.82175 7.10596H18.1311C18.3829 7.95758 18.8438 8.73267 19.4718 9.36063C20.0997 9.98859 20.8748 10.4495 21.7264 10.7013V14.0106C20.8748 14.2625 20.0997 14.7233 19.4718 15.3513C18.8438 15.9792 18.3829 16.7543 18.1311 17.606ZM21.7264 9.10939C20.8269 8.72257 20.1098 8.00555 19.723 7.10596H21.7264V9.10939ZM4.22988 7.10596C3.84306 8.00555 3.12603 8.72257 2.22644 9.10939V7.10596H4.22988ZM2.22644 15.6025C3.12603 15.9893 3.84306 16.7064 4.22988 17.606H2.22644V15.6025ZM19.723 17.606C20.1098 16.7064 20.8269 15.9893 21.7264 15.6025V17.606H19.723Z" fill="#0D0C12"/>
</svg>
