<svg width="32" height="32" viewBox="0 0 32 32" fill="none" xmlns="http://www.w3.org/2000/svg">
<path d="M27.7423 6.4729H3.74231C3.21188 6.4729 2.70317 6.68361 2.3281 7.05869C1.95302 7.43376 1.74231 7.94247 1.74231 8.4729V24.4729C1.74231 25.0033 1.95302 25.512 2.3281 25.8871C2.70317 26.2622 3.21188 26.4729 3.74231 26.4729H27.7423C28.2727 26.4729 28.7815 26.2622 29.1565 25.8871C29.5316 25.512 29.7423 25.0033 29.7423 24.4729V8.4729C29.7423 7.94247 29.5316 7.43376 29.1565 7.05869C28.7815 6.68361 28.2727 6.4729 27.7423 6.4729ZM27.7423 8.4729V11.4729H3.74231V8.4729H27.7423ZM27.7423 24.4729H3.74231V13.4729H27.7423V24.4729ZM25.7423 21.4729C25.7423 21.7381 25.637 21.9925 25.4494 22.18C25.2619 22.3675 25.0075 22.4729 24.7423 22.4729H20.7423C20.4771 22.4729 20.2227 22.3675 20.0352 22.18C19.8477 21.9925 19.7423 21.7381 19.7423 21.4729C19.7423 21.2077 19.8477 20.9533 20.0352 20.7658C20.2227 20.5783 20.4771 20.4729 20.7423 20.4729H24.7423C25.0075 20.4729 25.2619 20.5783 25.4494 20.7658C25.637 20.9533 25.7423 21.2077 25.7423 21.4729ZM17.7423 21.4729C17.7423 21.7381 17.637 21.9925 17.4494 22.18C17.2619 22.3675 17.0075 22.4729 16.7423 22.4729H14.7423C14.4771 22.4729 14.2227 22.3675 14.0352 22.18C13.8477 21.9925 13.7423 21.7381 13.7423 21.4729C13.7423 21.2077 13.8477 20.9533 14.0352 20.7658C14.2227 20.5783 14.4771 20.4729 14.7423 20.4729H16.7423C17.0075 20.4729 17.2619 20.5783 17.4494 20.7658C17.637 20.9533 17.7423 21.2077 17.7423 21.4729Z" fill="white"/>
</svg>
