<svg width="33" height="27" viewBox="0 0 33 27" fill="none" xmlns="http://www.w3.org/2000/svg">
<path d="M3.80913 13.021C3.91747 13.0874 4.04075 13.1358 4.17194 13.1633C4.30313 13.1908 4.43966 13.1969 4.57372 13.1812C4.70778 13.1656 4.83676 13.1284 4.95329 13.072C5.06982 13.0155 5.17162 12.9408 5.25288 12.8522C5.87726 12.1711 6.68689 11.6182 7.61765 11.2375C8.54842 10.8567 9.57475 10.6585 10.6154 10.6585C11.656 10.6585 12.6823 10.8567 13.6131 11.2375C14.5439 11.6182 15.3535 12.1711 15.9779 12.8522C16.1422 13.0311 16.3866 13.1492 16.6573 13.1806C16.9281 13.2121 17.203 13.1543 17.4216 13.0199C17.4996 12.9725 17.5686 12.916 17.6266 12.8522C18.251 12.1711 19.0606 11.6182 19.9914 11.2375C20.9221 10.8567 21.9485 10.6585 22.9891 10.6585C24.0297 10.6585 25.0561 10.8567 25.9868 11.2375C26.9176 11.6182 27.7272 12.1711 28.3516 12.8522C28.5159 13.0312 28.7603 13.1495 29.0312 13.1811C29.3021 13.2126 29.5772 13.1548 29.796 13.0204C30.0148 12.886 30.1594 12.686 30.1979 12.4644C30.2365 12.2427 30.1659 12.0177 30.0016 11.8386C29.0888 10.8374 27.8715 10.0491 26.4708 9.55208C27.2387 8.97848 27.7767 8.22834 28.0142 7.4001C28.2517 6.57186 28.1776 5.70422 27.8016 4.91106C27.4256 4.1179 26.7654 3.43626 25.9074 2.95562C25.0495 2.47497 24.034 2.21777 22.9942 2.21777C21.9545 2.21777 20.939 2.47497 20.0811 2.95562C19.2231 3.43626 18.5629 4.1179 18.1869 4.91106C17.8109 5.70422 17.7368 6.57186 17.9743 7.4001C18.2118 8.22834 18.7498 8.97848 19.5176 9.55208C18.5063 9.90989 17.5876 10.4221 16.8106 11.0613C16.0337 10.4221 15.1149 9.90989 14.1036 9.55208C14.8715 8.97848 15.4094 8.22834 15.6469 7.4001C15.8844 6.57186 15.8103 5.70422 15.4343 4.91106C15.0584 4.1179 14.3981 3.43626 13.5402 2.95562C12.6822 2.47497 11.6668 2.21777 10.627 2.21777C9.5872 2.21777 8.57172 2.47497 7.71379 2.95562C6.85587 3.43626 6.19559 4.1179 5.81962 4.91106C5.44365 5.70422 5.36954 6.57186 5.60703 7.4001C5.84452 8.22834 6.3825 8.97848 7.15038 9.55208C5.74356 10.0475 4.52031 10.8363 3.60288 11.8397C3.52162 11.9283 3.4625 12.0292 3.42889 12.1365C3.39528 12.2439 3.38784 12.3556 3.40699 12.4653C3.42615 12.575 3.47152 12.6805 3.54052 12.7758C3.60951 12.8712 3.70079 12.9545 3.80913 13.021ZM22.9904 3.90845C23.6023 3.90845 24.2004 4.05691 24.7092 4.33504C25.2179 4.61318 25.6145 5.00851 25.8486 5.47103C26.0828 5.93356 26.1441 6.44251 26.0247 6.93352C25.9053 7.42454 25.6107 7.87556 25.178 8.22957C24.7453 8.58357 24.1941 8.82465 23.5939 8.92231C22.9938 9.01998 22.3718 8.96986 21.8065 8.77827C21.2411 8.58669 20.758 8.26225 20.418 7.84599C20.0781 7.42973 19.8966 6.94033 19.8966 6.4397C19.8966 5.76837 20.2226 5.12454 20.8028 4.64984C21.383 4.17514 22.1699 3.90845 22.9904 3.90845ZM10.6154 3.90845C11.2273 3.90845 11.8254 4.05691 12.3342 4.33504C12.8429 4.61318 13.2395 5.00851 13.4736 5.47103C13.7078 5.93356 13.7691 6.44251 13.6497 6.93352C13.5303 7.42454 13.2357 7.87556 12.803 8.22957C12.3703 8.58357 11.8191 8.82465 11.2189 8.92231C10.6188 9.01998 9.99676 8.96986 9.43145 8.77827C8.86614 8.58669 8.38297 8.26225 8.04302 7.84599C7.70307 7.42973 7.52163 6.94033 7.52163 6.4397C7.52163 5.76837 7.84758 5.12454 8.42777 4.64984C9.00796 4.17514 9.79487 3.90845 10.6154 3.90845ZM26.4708 20.5208C27.2387 19.9472 27.7767 19.1971 28.0142 18.3688C28.2517 17.5406 28.1776 16.673 27.8016 15.8798C27.4256 15.0866 26.7654 14.405 25.9074 13.9244C25.0495 13.4437 24.034 13.1865 22.9942 13.1865C21.9545 13.1865 20.939 13.4437 20.0811 13.9244C19.2231 14.405 18.5629 15.0866 18.1869 15.8798C17.8109 16.673 17.7368 17.5406 17.9743 18.3688C18.2118 19.1971 18.7498 19.9472 19.5176 20.5208C18.5063 20.8786 17.5876 21.3909 16.8106 22.0301C16.0337 21.3909 15.1149 20.8786 14.1036 20.5208C14.8715 19.9472 15.4094 19.1971 15.6469 18.3688C15.8844 17.5406 15.8103 16.673 15.4343 15.8798C15.0584 15.0866 14.3981 14.405 13.5402 13.9244C12.6822 13.4437 11.6668 13.1865 10.627 13.1865C9.5872 13.1865 8.57172 13.4437 7.71379 13.9244C6.85587 14.405 6.19559 15.0866 5.81962 15.8798C5.44365 16.673 5.36954 17.5406 5.60703 18.3688C5.84452 19.1971 6.3825 19.9472 7.15038 20.5208C5.74356 21.0162 4.52031 21.805 3.60288 22.8085C3.52162 22.8971 3.4625 22.998 3.42889 23.1053C3.39528 23.2126 3.38784 23.3243 3.40699 23.434C3.42615 23.5437 3.47152 23.6492 3.54052 23.7446C3.60951 23.8399 3.70079 23.9232 3.80913 23.9897C3.91747 24.0562 4.04075 24.1046 4.17194 24.1321C4.30313 24.1596 4.43966 24.1656 4.57372 24.15C4.70778 24.1343 4.83676 24.0972 4.95329 24.0407C5.06982 23.9843 5.17162 23.9096 5.25288 23.821C5.87726 23.1398 6.68689 22.587 7.61765 22.2062C8.54842 21.8254 9.57475 21.6272 10.6154 21.6272C11.656 21.6272 12.6823 21.8254 13.6131 22.2062C14.5439 22.587 15.3535 23.1398 15.9779 23.821C16.1422 23.9998 16.3866 24.118 16.6573 24.1494C16.9281 24.1808 17.203 24.123 17.4216 23.9886C17.4996 23.9412 17.5686 23.8847 17.6266 23.821C18.251 23.1398 19.0606 22.587 19.9914 22.2062C20.9221 21.8254 21.9485 21.6272 22.9891 21.6272C24.0297 21.6272 25.0561 21.8254 25.9868 22.2062C26.9176 22.587 27.7272 23.1398 28.3516 23.821C28.5159 24 28.7603 24.1183 29.0312 24.1498C29.3021 24.1814 29.5772 24.1236 29.796 23.9892C30.0148 23.8548 30.1594 23.6548 30.1979 23.4331C30.2365 23.2115 30.1659 22.9864 30.0016 22.8074C29.0888 21.8061 27.8715 21.0178 26.4708 20.5208ZM10.6154 14.8772C11.2273 14.8772 11.8254 15.0257 12.3342 15.3038C12.8429 15.5819 13.2395 15.9773 13.4736 16.4398C13.7078 16.9023 13.7691 17.4113 13.6497 17.9023C13.5303 18.3933 13.2357 18.8443 12.803 19.1983C12.3703 19.5523 11.8191 19.7934 11.2189 19.8911C10.6188 19.9887 9.99676 19.9386 9.43145 19.747C8.86614 19.5554 8.38297 19.231 8.04302 18.8147C7.70307 18.3985 7.52163 17.9091 7.52163 17.4085C7.52163 16.7371 7.84758 16.0933 8.42777 15.6186C9.00796 15.1439 9.79487 14.8772 10.6154 14.8772ZM22.9904 14.8772C23.6023 14.8772 24.2004 15.0257 24.7092 15.3038C25.2179 15.5819 25.6145 15.9773 25.8486 16.4398C26.0828 16.9023 26.1441 17.4113 26.0247 17.9023C25.9053 18.3933 25.6107 18.8443 25.178 19.1983C24.7453 19.5523 24.1941 19.7934 23.5939 19.8911C22.9938 19.9887 22.3718 19.9386 21.8065 19.747C21.2411 19.5554 20.758 19.231 20.418 18.8147C20.0781 18.3985 19.8966 17.9091 19.8966 17.4085C19.8966 16.7371 20.2226 16.0933 20.8028 15.6186C21.383 15.1439 22.1699 14.8772 22.9904 14.8772Z" fill="white"/>
</svg>
