<svg width="33" height="27" viewBox="0 0 33 27" fill="none" xmlns="http://www.w3.org/2000/svg">
<path d="M5.77184 11.1515H26.3788C26.6875 11.1528 26.9927 11.0973 27.2717 10.9893C27.5507 10.8812 27.7966 10.7232 27.991 10.5271C28.1855 10.3309 28.3237 10.1015 28.3954 9.85581C28.4671 9.61012 28.4704 9.3544 28.4052 9.10751C27.4474 5.40344 22.2628 2.71399 16.0753 2.71399C9.88782 2.71399 4.70321 5.40344 3.74543 9.10751C3.68021 9.3544 3.68356 9.61012 3.75524 9.85581C3.82692 10.1015 3.9651 10.3309 4.15959 10.5271C4.35407 10.7232 4.5999 10.8812 4.87894 10.9893C5.15798 11.0973 5.46312 11.1528 5.77184 11.1515ZM16.0753 4.40149C21.2084 4.40149 25.6414 6.5752 26.3788 9.46399H5.77184L5.76282 9.45661C6.50918 6.5752 10.9423 4.40149 16.0753 4.40149ZM29.1284 16.2646L23.8265 17.8466L19.0402 16.2741C18.7944 16.1937 18.5202 16.1937 18.2745 16.2741L13.5049 17.8361L8.72766 16.2741C8.49247 16.1972 8.23093 16.1939 7.9929 16.2646L2.32102 17.9521C2.0813 18.0384 1.89071 18.1962 1.78794 18.3933C1.68517 18.5904 1.67791 18.8121 1.76764 19.0134C1.85737 19.2148 2.03737 19.3806 2.2711 19.4773C2.50482 19.574 2.77477 19.5943 3.02614 19.5341L4.73157 19.0289V19.589C4.73157 20.7079 5.27481 21.7809 6.2418 22.5721C7.20878 23.3633 8.52029 23.8077 9.88782 23.8077H22.2628C23.6303 23.8077 24.9419 23.3633 25.9088 22.5721C26.8758 21.7809 27.4191 20.7079 27.4191 19.589V18.5691L29.8335 17.8509C29.9689 17.8184 30.0947 17.7636 30.2032 17.6899C30.3116 17.6161 30.4004 17.5248 30.4641 17.4219C30.5278 17.3189 30.5649 17.2063 30.5733 17.0911C30.5816 16.9758 30.561 16.8604 30.5127 16.752C30.4643 16.6436 30.3893 16.5444 30.2923 16.4606C30.1952 16.3769 30.0782 16.3103 29.9485 16.265C29.8187 16.2197 29.679 16.1967 29.5379 16.1973C29.3969 16.198 29.2575 16.2223 29.1284 16.2688V16.2646ZM25.3566 19.589C25.3566 20.2603 25.0306 20.9042 24.4504 21.3789C23.8702 21.8536 23.0833 22.1202 22.2628 22.1202H9.88782C9.0673 22.1202 8.2804 21.8536 7.70021 21.3789C7.12002 20.9042 6.79407 20.2603 6.79407 19.589V18.4162L8.32418 17.9606L13.1105 19.5289C13.3562 19.6093 13.6304 19.6093 13.8762 19.5289L18.6457 17.9669L23.4152 19.5289C23.6504 19.6057 23.912 19.6091 24.15 19.5384L25.345 19.1829L25.3566 19.589ZM1.63782 13.6827C1.63782 13.459 1.74647 13.2444 1.93986 13.0861C2.13326 12.9279 2.39556 12.839 2.66907 12.839H29.4816C29.7551 12.839 30.0174 12.9279 30.2108 13.0861C30.4042 13.2444 30.5128 13.459 30.5128 13.6827C30.5128 13.9065 30.4042 14.1211 30.2108 14.2794C30.0174 14.4376 29.7551 14.5265 29.4816 14.5265H2.66907C2.39556 14.5265 2.13326 14.4376 1.93986 14.2794C1.74647 14.1211 1.63782 13.9065 1.63782 13.6827Z" fill="white"/>
</svg>
