<svg width="24" height="24" viewBox="0 0 24 24" fill="none" xmlns="http://www.w3.org/2000/svg">
<path fill-rule="evenodd" clip-rule="evenodd" d="M13.2396 4H19.9833C21.3622 4 22.48 5.1178 22.48 6.49667V10.7425H13.2396V4ZM11.7396 2.5H13.2396H19.9833C22.1906 2.5 23.98 4.28937 23.98 6.49667V10.7425H24V12.2425H23.98V16.4883C23.98 18.6956 22.1906 20.485 19.9833 20.485H13.2396H11.7396H3.99667C1.78937 20.485 0 18.6956 0 16.4883V6.49667C0 4.28937 1.78937 2.5 3.99667 2.5H11.7396ZM11.7396 18.985H3.99667C2.6178 18.985 1.5 17.8672 1.5 16.4883V15.24H11.7396V18.985ZM11.7396 13.74H1.5V9.245H11.7396V11.4925V12.2425V13.74ZM1.5 6.49667V7.745H11.7396V4H3.99667C2.6178 4 1.5 5.1178 1.5 6.49667ZM13.2396 18.985H19.9833C21.3622 18.985 22.48 17.8672 22.48 16.4883V12.2425H13.2396V18.985Z" fill="#E2F75F"/>
</svg>
