<svg width="24" height="24" viewBox="0 0 24 24" fill="none" xmlns="http://www.w3.org/2000/svg">
<path d="M5.01935 3.42196C4.95348 3.34771 4.87354 3.28728 4.78415 3.24416C4.69476 3.20104 4.59769 3.17609 4.49859 3.17076C4.39948 3.16543 4.30031 3.17982 4.20681 3.2131C4.1133 3.24638 4.02734 3.29789 3.95389 3.36464C3.88044 3.43139 3.82097 3.51205 3.77892 3.60195C3.73688 3.69185 3.7131 3.78921 3.70895 3.88837C3.70481 3.98753 3.72039 4.08653 3.75479 4.17963C3.78919 4.27272 3.84172 4.35806 3.90935 4.43071L5.7131 6.4154C2.3081 8.50508 0.843721 11.7263 0.779034 11.8726C0.73639 11.9685 0.714355 12.0723 0.714355 12.1773C0.714355 12.2822 0.73639 12.386 0.779034 12.482C0.811846 12.556 1.60591 14.3166 3.37122 16.082C5.72341 18.4332 8.69435 19.6763 11.9643 19.6763C13.6449 19.6859 15.3085 19.3399 16.8459 18.661L18.9084 20.9307C18.9743 21.005 19.0542 21.0654 19.1436 21.1085C19.233 21.1516 19.3301 21.1766 19.4292 21.1819C19.5283 21.1872 19.6274 21.1728 19.721 21.1396C19.8145 21.1063 19.9004 21.0548 19.9739 20.988C20.0473 20.9213 20.1068 20.8406 20.1488 20.7507C20.1909 20.6608 20.2147 20.5635 20.2188 20.4643C20.2229 20.3651 20.2074 20.2661 20.173 20.173C20.1386 20.0799 20.086 19.9946 20.0184 19.922L5.01935 3.42196ZM9.45653 10.532L13.3631 14.8304C12.7748 15.1399 12.1004 15.2452 11.4458 15.1299C10.7911 15.0145 10.1933 14.685 9.74624 14.1931C9.29916 13.7012 9.02813 13.0747 8.97569 12.412C8.92326 11.7494 9.09239 11.0881 9.45653 10.532ZM11.9643 18.1763C9.07872 18.1763 6.55778 17.1273 4.47091 15.0591C3.61433 14.2079 2.8858 13.2368 2.3081 12.1763C2.74778 11.3523 4.15122 9.04602 6.74716 7.54696L8.43466 9.39852C7.78135 10.2352 7.44488 11.276 7.48472 12.3368C7.52456 13.3976 7.93815 14.4102 8.65238 15.1956C9.36661 15.9809 10.3355 16.4885 11.3878 16.6286C12.4401 16.7686 13.508 16.5322 14.4028 15.961L15.7837 17.4798C14.565 17.9474 13.2697 18.1836 11.9643 18.1763ZM12.5268 9.22977C12.3314 9.19247 12.1588 9.07907 12.047 8.91451C11.9352 8.74994 11.8933 8.5477 11.9306 8.35227C11.9679 8.15684 12.0813 7.98423 12.2459 7.87241C12.4104 7.76059 12.6127 7.71872 12.8081 7.75602C13.764 7.94133 14.6343 8.43069 15.2894 9.1511C15.9444 9.87151 16.349 10.7844 16.4428 11.7535C16.4613 11.9516 16.4004 12.1488 16.2735 12.302C16.1465 12.4551 15.9639 12.5516 15.7659 12.5701C15.7425 12.5715 15.719 12.5715 15.6956 12.5701C15.5081 12.5709 15.3272 12.5015 15.1884 12.3755C15.0495 12.2495 14.9629 12.0761 14.9456 11.8895C14.8825 11.2448 14.613 10.6378 14.1772 10.1586C13.7414 9.6794 13.1626 9.35365 12.5268 9.22977ZM23.1468 12.482C23.1075 12.5701 22.1578 14.6729 20.0193 16.5882C19.9463 16.6557 19.8605 16.7081 19.767 16.7421C19.6735 16.7762 19.5742 16.7913 19.4748 16.7866C19.3754 16.7819 19.278 16.7574 19.1881 16.7147C19.0983 16.672 19.0178 16.6118 18.9515 16.5376C18.8851 16.4635 18.8342 16.3769 18.8016 16.2829C18.7691 16.1889 18.7555 16.0893 18.7618 15.99C18.7681 15.8907 18.7941 15.7937 18.8382 15.7045C18.8824 15.6154 18.9439 15.5359 19.019 15.4707C20.0681 14.5282 20.9494 13.4142 21.6253 12.1763C21.0463 11.1149 20.3162 10.1432 19.4578 9.29165C17.3709 7.2254 14.85 6.17633 11.9643 6.17633C11.3563 6.17559 10.7493 6.22482 10.1493 6.32352C10.0518 6.34077 9.95177 6.33853 9.85508 6.31691C9.75839 6.29529 9.66694 6.25472 9.58602 6.19756C9.5051 6.1404 9.4363 6.06777 9.38361 5.98387C9.33092 5.89996 9.29537 5.80645 9.27902 5.70873C9.26267 5.61102 9.26585 5.51103 9.28836 5.41454C9.31088 5.31806 9.35229 5.22699 9.4102 5.1466C9.46811 5.06621 9.54137 4.99809 9.62576 4.94618C9.71014 4.89427 9.80398 4.85959 9.90185 4.84415C10.5836 4.73158 11.2734 4.67546 11.9643 4.67633C15.2343 4.67633 18.2053 5.91946 20.5575 8.27164C22.3228 10.037 23.1168 11.7985 23.1497 11.8726C23.1923 11.9685 23.2143 12.0723 23.2143 12.1773C23.2143 12.2822 23.1923 12.386 23.1497 12.482H23.1468Z" fill="white"/>
</svg>
