<svg width="33" height="27" viewBox="0 0 33 27" fill="none" xmlns="http://www.w3.org/2000/svg">
<path d="M32.1538 13.79C32.1538 14.0138 32.0452 14.2284 31.8518 14.3867C31.6584 14.5449 31.3961 14.6338 31.1226 14.6338H28.9737C28.728 15.8127 27.981 16.8827 26.8646 17.6546C25.7482 18.4266 24.3343 18.8509 22.8726 18.8525H17.7163V21.3838H20.8101C21.9041 21.3838 22.9533 21.7394 23.7269 22.3723C24.5005 23.0052 24.9351 23.8637 24.9351 24.7588C24.9351 24.9826 24.8264 25.1972 24.633 25.3554C24.4396 25.5136 24.1773 25.6025 23.9038 25.6025C23.6303 25.6025 23.368 25.5136 23.1746 25.3554C22.9812 25.1972 22.8726 24.9826 22.8726 24.7588C22.8726 24.3112 22.6553 23.882 22.2685 23.5655C21.8817 23.2491 21.3571 23.0713 20.8101 23.0713H17.7163V24.7588C17.7163 24.9826 17.6077 25.1972 17.4143 25.3554C17.2209 25.5136 16.9586 25.6025 16.6851 25.6025C16.4116 25.6025 16.1493 25.5136 15.9559 25.3554C15.7625 25.1972 15.6538 24.9826 15.6538 24.7588V23.0713H12.5601C12.013 23.0713 11.4884 23.2491 11.1017 23.5655C10.7149 23.882 10.4976 24.3112 10.4976 24.7588C10.4976 24.9826 10.3889 25.1972 10.1955 25.3554C10.0021 25.5136 9.73981 25.6025 9.46631 25.6025C9.1928 25.6025 8.9305 25.5136 8.7371 25.3554C8.54371 25.1972 8.43506 24.9826 8.43506 24.7588C8.43506 23.8637 8.86966 23.0052 9.64324 22.3723C10.4168 21.7394 11.466 21.3838 12.5601 21.3838H15.6538V18.8525H10.4976C9.03586 18.8509 7.6219 18.4266 6.50549 17.6546C5.38908 16.8827 4.64207 15.8127 4.39643 14.6338H2.24756C1.97405 14.6338 1.71175 14.5449 1.51835 14.3867C1.32496 14.2284 1.21631 14.0138 1.21631 13.79C1.21631 13.5663 1.32496 13.3517 1.51835 13.1934C1.71175 13.0352 1.97405 12.9463 2.24756 12.9463H5.34131C5.61481 12.9463 5.87712 13.0352 6.07051 13.1934C6.26391 13.3517 6.37256 13.5663 6.37256 13.79C6.37256 14.6851 6.80716 15.5436 7.58074 16.1765C8.35433 16.8095 9.40354 17.165 10.4976 17.165H22.8726C23.9666 17.165 25.0158 16.8095 25.7894 16.1765C26.563 15.5436 26.9976 14.6851 26.9976 13.79C26.9976 13.5663 27.1062 13.3517 27.2996 13.1934C27.493 13.0352 27.7553 12.9463 28.0288 12.9463H31.1226C31.3961 12.9463 31.6584 13.0352 31.8518 13.1934C32.0452 13.3517 32.1538 13.5663 32.1538 13.79ZM8.93908 14.8954C8.74562 14.7128 8.60234 14.4983 8.51895 14.2665C8.43555 14.0347 8.41397 13.7909 8.45568 13.5517L10.2243 3.42668C10.2964 3.02522 10.5422 2.65823 10.9168 2.39234C11.2914 2.12645 11.7702 1.97928 12.2662 1.97754H21.104C21.5999 1.97928 22.0787 2.12645 22.4533 2.39234C22.828 2.65823 23.0737 3.02522 23.1458 3.42668L24.9144 13.5517C24.9562 13.791 24.9346 14.0349 24.8511 14.2668C24.7676 14.4987 24.6242 14.7132 24.4306 14.8958C24.237 15.0784 23.9977 15.2249 23.7289 15.3252C23.4601 15.4256 23.168 15.4775 22.8726 15.4775H10.4976C10.202 15.4775 9.90983 15.4256 9.64094 15.3251C9.37205 15.2247 9.13269 15.0781 8.93908 14.8954ZM10.4976 13.79H22.8726L21.104 3.66504H12.2649L10.4976 13.79Z" fill="white"/>
</svg>
