<svg width="361" height="200" viewBox="0 0 361 200" fill="none" xmlns="http://www.w3.org/2000/svg">
<g filter="url(#filter0_d_2049_59482)">
<g clip-path="url(#clip0_2049_59482)">
<path d="M345 -6.99383e-07C353.837 -3.13125e-07 361 7.16344 361 16L361 184C361 192.837 353.837 200 345 200L16 200C7.16345 200 1.53915e-07 192.837 5.40173e-07 184L7.88369e-06 16C8.26994e-06 7.16342 7.16346 -1.54667e-05 16 -1.50804e-05L345 -6.99383e-07Z" fill="#0D0C12" fill-opacity="0.2" shape-rendering="crispEdges"/>
<g clip-path="url(#clip1_2049_59482)">
<rect width="200" height="180.5" transform="translate(361) rotate(90)" fill="white"/>
<path d="M361 200L361 0L180.5 -7.88991e-06L180.5 200L361 200Z" fill="#E2F75F"/>
<path d="M270.75 100C294.686 100 317.641 89.4643 334.566 70.7107C351.492 51.957 361 26.5216 361 0L270.75 -3.94495e-06L270.75 100Z" fill="#0D0C12"/>
<path d="M270.75 200C294.686 200 317.641 189.464 334.566 170.711C351.492 151.957 361 126.522 361 100L270.75 100L270.75 200Z" fill="#272938" fill-opacity="0.2"/>
<path d="M180.5 100C204.436 100 227.391 89.4643 244.316 70.7107C261.242 51.957 270.75 26.5216 270.75 0L180.5 -3.94495e-06L180.5 100Z" fill="#4200B5"/>
<path d="M180.5 200C204.436 200 227.391 189.464 244.316 170.711C261.242 151.957 270.75 126.522 270.75 100L180.5 100L180.5 200Z" fill="#0D0C12"/>
</g>
<g clip-path="url(#clip2_2049_59482)">
<g clip-path="url(#clip3_2049_59482)">
<path d="M89.6631 10.6587L41.1857 10.6587C27.9082 10.6587 21.257 26.7123 30.6469 36.1022L79.1243 84.5796C88.5142 93.9696 81.863 110.023 68.5855 110.023L41.1857 110.023C27.9082 110.023 21.2569 126.077 30.6469 135.467L79.1243 183.944C88.5142 193.334 104.568 186.683 104.568 173.405L104.568 25.5634C104.568 17.3347 97.8918 10.6587 89.6631 10.6587Z" fill="#272938" fill-opacity="0.2"/>
<path d="M119.472 15.2295L154.25 10.6587L154.25 17.1671L124.043 20.5454L124.043 21.4397L154.25 25.8118L154.25 37.1393L124.043 41.5113L124.043 42.4056L154.25 45.784L154.25 52.2924L119.472 47.7216L119.472 36.3941L150.375 31.9227L150.375 31.0284L119.472 26.557L119.472 15.2295Z" fill="#272938" fill-opacity="0.2"/>
<path d="M119.472 66.0045L131.446 66.0045L154.25 54.1802L154.25 61.4835L139.345 68.8364L139.345 69.7307L154.25 77.0837L154.25 84.387L131.446 72.5626L119.472 72.5626L119.472 66.0045Z" fill="#272938" fill-opacity="0.2"/>
<path d="M119.472 88.0635L154.25 88.0635L154.25 103.167C154.25 105.353 153.871 107.259 153.107 108.88C152.343 110.501 151.269 111.762 149.878 112.656C148.487 113.55 146.847 113.998 144.959 113.998L144.363 113.998C142.277 113.998 140.587 113.501 139.296 112.507C138.004 111.513 137.06 110.29 136.464 108.831L135.569 108.831C135.501 110.153 135.048 111.184 134.203 111.911C133.359 112.638 132.241 113.004 130.85 113.004L119.472 113.004L119.472 106.446L129.906 106.446C130.701 106.446 131.347 106.241 131.843 105.825C132.34 105.409 132.589 104.726 132.589 103.763L132.589 94.6215L119.472 94.6215L119.472 88.0635ZM138.55 94.6215L138.55 102.471C138.55 104.03 138.973 105.247 139.817 106.123C140.662 106.999 141.78 107.44 143.171 107.44L143.668 107.44C145.059 107.44 146.177 107.011 147.021 106.148C147.866 105.285 148.288 104.061 148.288 102.471L148.288 94.6215L138.55 94.6215Z" fill="#272938" fill-opacity="0.2"/>
<path d="M149.282 119.432L153.399 119.432L153.399 117.773L154.25 117.773L154.25 122.027L153.399 122.027L153.399 120.369L149.282 120.369L149.282 119.432ZM149.282 122.698L154.25 122.698L154.25 124.487L150.133 125.425L150.133 125.648L154.25 126.586L154.25 128.374L149.282 128.374L149.282 127.437L153.399 127.437L153.399 127.213L149.282 126.275L149.282 124.797L153.399 123.86L153.399 123.636L149.282 123.636L149.282 122.698Z" fill="#272938" fill-opacity="0.2"/>
</g>
</g>
</g>
</g>
<defs>
<filter id="filter0_d_2049_59482" x="-64" y="-40" width="489" height="328" filterUnits="userSpaceOnUse" color-interpolation-filters="sRGB">
<feFlood flood-opacity="0" result="BackgroundImageFix"/>
<feColorMatrix in="SourceAlpha" type="matrix" values="0 0 0 0 0 0 0 0 0 0 0 0 0 0 0 0 0 0 127 0" result="hardAlpha"/>
<feOffset dy="24"/>
<feGaussianBlur stdDeviation="32"/>
<feComposite in2="hardAlpha" operator="out"/>
<feColorMatrix type="matrix" values="0 0 0 0 0 0 0 0 0 0 0 0 0 0 0 0 0 0 0.15 0"/>
<feBlend mode="normal" in2="BackgroundImageFix" result="effect1_dropShadow_2049_59482"/>
<feBlend mode="normal" in="SourceGraphic" in2="effect1_dropShadow_2049_59482" result="shape"/>
</filter>
<clipPath id="clip0_2049_59482">
<path d="M345 -6.99383e-07C353.837 -3.13125e-07 361 7.16344 361 16L361 184C361 192.837 353.837 200 345 200L16 200C7.16345 200 1.53915e-07 192.837 5.40173e-07 184L7.88369e-06 16C8.26994e-06 7.16342 7.16346 -1.54667e-05 16 -1.50804e-05L345 -6.99383e-07Z" fill="white"/>
</clipPath>
<clipPath id="clip1_2049_59482">
<rect width="200" height="180.5" fill="white" transform="translate(361) rotate(90)"/>
</clipPath>
<clipPath id="clip2_2049_59482">
<rect width="217" height="180.5" fill="white" transform="translate(180.5 -9) rotate(90)"/>
</clipPath>
<clipPath id="clip3_2049_59482">
<rect width="177.682" height="128" fill="white" transform="translate(154.25 10.6587) rotate(90)"/>
</clipPath>
</defs>
</svg>
