<svg width="32" height="32" viewBox="0 0 32 32" fill="none" xmlns="http://www.w3.org/2000/svg">
<g opacity="0.5">
<path d="M28.0145 24.6333H27.0145V4.6333C27.0145 4.36808 26.9092 4.11373 26.7216 3.92619C26.5341 3.73866 26.2797 3.6333 26.0145 3.6333H19.0145C18.7493 3.6333 18.495 3.73866 18.3074 3.92619C18.1199 4.11373 18.0145 4.36808 18.0145 4.6333V9.6333H12.0145C11.7493 9.6333 11.495 9.73866 11.3074 9.92619C11.1199 10.1137 11.0145 10.3681 11.0145 10.6333V15.6333H6.01453C5.74931 15.6333 5.49496 15.7387 5.30742 15.9262C5.11988 16.1137 5.01453 16.3681 5.01453 16.6333V24.6333H4.01453C3.74931 24.6333 3.49496 24.7387 3.30742 24.9262C3.11988 25.1137 3.01453 25.3681 3.01453 25.6333C3.01453 25.8985 3.11988 26.1529 3.30742 26.3404C3.49496 26.5279 3.74931 26.6333 4.01453 26.6333H28.0145C28.2797 26.6333 28.5341 26.5279 28.7216 26.3404C28.9092 26.1529 29.0145 25.8985 29.0145 25.6333C29.0145 25.3681 28.9092 25.1137 28.7216 24.9262C28.5341 24.7387 28.2797 24.6333 28.0145 24.6333ZM20.0145 5.6333H25.0145V24.6333H20.0145V5.6333ZM13.0145 11.6333H18.0145V24.6333H13.0145V11.6333ZM7.01453 17.6333H11.0145V24.6333H7.01453V17.6333Z" fill="white"/>
</g>
</svg>
