<svg width="32" height="32" viewBox="0 0 32 32" fill="none" xmlns="http://www.w3.org/2000/svg">
<path d="M4.75964 10.9622H8.88464C9.10494 11.8226 9.60534 12.5852 10.307 13.1298C11.0086 13.6744 11.8715 13.97 12.7596 13.97C13.6478 13.97 14.5107 13.6744 15.2123 13.1298C15.9139 12.5852 16.4143 11.8226 16.6346 10.9622H26.7596C27.0249 10.9622 27.2792 10.8568 27.4668 10.6693C27.6543 10.4818 27.7596 10.2274 27.7596 9.96219C27.7596 9.69697 27.6543 9.44262 27.4668 9.25508C27.2792 9.06755 27.0249 8.96219 26.7596 8.96219H16.6346C16.4143 8.10177 15.9139 7.33915 15.2123 6.79455C14.5107 6.24995 13.6478 5.95435 12.7596 5.95435C11.8715 5.95435 11.0086 6.24995 10.307 6.79455C9.60534 7.33915 9.10494 8.10177 8.88464 8.96219H4.75964C4.49443 8.96219 4.24007 9.06755 4.05254 9.25508C3.865 9.44262 3.75964 9.69697 3.75964 9.96219C3.75964 10.2274 3.865 10.4818 4.05254 10.6693C4.24007 10.8568 4.49443 10.9622 4.75964 10.9622ZM12.7596 7.96219C13.1552 7.96219 13.5419 8.07949 13.8708 8.29925C14.1997 8.51901 14.456 8.83137 14.6074 9.19682C14.7588 9.56227 14.7984 9.96441 14.7212 10.3524C14.644 10.7403 14.4536 11.0967 14.1739 11.3764C13.8942 11.6561 13.5378 11.8466 13.1498 11.9238C12.7619 12.0009 12.3597 11.9613 11.9943 11.8099C11.6288 11.6586 11.3165 11.4022 11.0967 11.0733C10.8769 10.7444 10.7596 10.3578 10.7596 9.96219C10.7596 9.43176 10.9704 8.92305 11.3454 8.54798C11.7205 8.1729 12.2292 7.96219 12.7596 7.96219ZM26.7596 20.9622H24.6346C24.4143 20.1018 23.9139 19.3392 23.2123 18.7945C22.5107 18.2499 21.6478 17.9543 20.7596 17.9543C19.8715 17.9543 19.0086 18.2499 18.307 18.7945C17.6053 19.3392 17.1049 20.1018 16.8846 20.9622H4.75964C4.49443 20.9622 4.24007 21.0675 4.05254 21.2551C3.865 21.4426 3.75964 21.697 3.75964 21.9622C3.75964 22.2274 3.865 22.4818 4.05254 22.6693C4.24007 22.8568 4.49443 22.9622 4.75964 22.9622H16.8846C17.1049 23.8226 17.6053 24.5852 18.307 25.1298C19.0086 25.6744 19.8715 25.97 20.7596 25.97C21.6478 25.97 22.5107 25.6744 23.2123 25.1298C23.9139 24.5852 24.4143 23.8226 24.6346 22.9622H26.7596C27.0249 22.9622 27.2792 22.8568 27.4668 22.6693C27.6543 22.4818 27.7596 22.2274 27.7596 21.9622C27.7596 21.697 27.6543 21.4426 27.4668 21.2551C27.2792 21.0675 27.0249 20.9622 26.7596 20.9622ZM20.7596 23.9622C20.3641 23.9622 19.9774 23.8449 19.6485 23.6251C19.3196 23.4054 19.0633 23.093 18.9119 22.7276C18.7605 22.3621 18.7209 21.96 18.7981 21.572C18.8752 21.184 19.0657 20.8277 19.3454 20.548C19.6251 20.2683 19.9815 20.0778 20.3695 20.0006C20.7574 19.9234 21.1596 19.9631 21.525 20.1144C21.8905 20.2658 22.2028 20.5221 22.4226 20.851C22.6423 21.1799 22.7596 21.5666 22.7596 21.9622C22.7596 22.4926 22.5489 23.0013 22.1739 23.3764C21.7988 23.7515 21.2901 23.9622 20.7596 23.9622Z" fill="white"/>
</svg>
