<svg width="33" height="27" viewBox="0 0 33 27" fill="none" xmlns="http://www.w3.org/2000/svg">
<path d="M16.5249 8.84642C15.3012 8.84642 14.1049 9.14333 13.0873 9.69961C12.0698 10.2559 11.2767 11.0465 10.8084 11.9716C10.3401 12.8966 10.2176 13.9145 10.4563 14.8966C10.6951 15.8786 11.2844 16.7806 12.1497 17.4887C13.015 18.1967 14.1175 18.6788 15.3178 18.8741C16.5181 19.0695 17.7622 18.9692 18.8928 18.5861C20.0234 18.2029 20.9897 17.554 21.6696 16.7215C22.3495 15.889 22.7124 14.9102 22.7124 13.9089C22.7107 12.5667 22.0583 11.2798 20.8983 10.3307C19.7383 9.38164 18.1654 8.84782 16.5249 8.84642ZM16.5249 17.2839C15.7091 17.2839 14.9115 17.086 14.2332 16.7151C13.5548 16.3443 13.0261 15.8172 12.7139 15.2005C12.4017 14.5838 12.32 13.9052 12.4792 13.2505C12.6383 12.5958 13.0312 11.9944 13.6081 11.5224C14.185 11.0504 14.92 10.729 15.7202 10.5988C16.5203 10.4685 17.3497 10.5354 18.1035 10.7908C18.8572 11.0463 19.5015 11.4789 19.9547 12.0339C20.408 12.5889 20.6499 13.2414 20.6499 13.9089C20.6499 14.804 20.2153 15.6625 19.4417 16.2954C18.6681 16.9283 17.6189 17.2839 16.5249 17.2839ZM27.8687 14.1367C27.8738 13.9849 27.8738 13.833 27.8687 13.6811L29.792 11.7152C29.8928 11.612 29.9626 11.4908 29.9957 11.3615C30.0289 11.2321 30.0244 11.0982 29.9827 10.9706C29.6674 10.0009 29.1958 9.06986 28.5802 8.20201C28.4996 8.08844 28.3877 7.99183 28.2535 7.91987C28.1192 7.84791 27.9663 7.80259 27.8068 7.78752L24.7491 7.50908C24.622 7.39939 24.493 7.29392 24.3624 7.19267L24.0015 4.68463C23.9829 4.55407 23.9273 4.42886 23.8392 4.319C23.751 4.20913 23.6326 4.11764 23.4936 4.05181C22.4325 3.54909 21.2947 3.16359 20.1098 2.90537C19.9537 2.8714 19.79 2.86793 19.6319 2.89523C19.4738 2.92252 19.3258 2.97983 19.1997 3.06252L16.8034 4.62767C16.6177 4.62767 16.4321 4.62767 16.2465 4.62767L13.8437 3.05724C13.7175 2.97473 13.5694 2.91762 13.4114 2.89051C13.2533 2.8634 13.0896 2.86704 12.9336 2.90115C11.7486 3.15958 10.6108 3.54544 9.54981 4.04865C9.411 4.11459 9.29292 4.20614 9.20497 4.316C9.11702 4.42586 9.06163 4.551 9.0432 4.68146L8.70289 7.1874C8.56883 7.29216 8.43992 7.39763 8.31617 7.50381L5.25078 7.79174C5.09121 7.80692 4.93819 7.8524 4.8039 7.92455C4.66962 7.9967 4.5578 8.09351 4.47735 8.20728C3.86291 9.07546 3.39174 10.0064 3.07613 10.9758C3.03462 11.1036 3.03038 11.2375 3.06374 11.3669C3.0971 11.4962 3.16714 11.6173 3.2682 11.7204L5.18117 13.6811C5.18117 13.833 5.18117 13.9849 5.18117 14.1367L3.26176 16.1027C3.16091 16.2059 3.09111 16.3271 3.05797 16.4564C3.02484 16.5857 3.02929 16.7196 3.07098 16.8473C3.38627 17.817 3.85791 18.748 4.47348 19.6158C4.55408 19.7294 4.66597 19.826 4.80024 19.898C4.93451 19.9699 5.08746 20.0153 5.24691 20.0303L8.30457 20.3088C8.43262 20.4185 8.56153 20.5239 8.69129 20.6252L9.04836 23.1332C9.06693 23.2638 9.12251 23.389 9.21069 23.4988C9.29887 23.6087 9.4172 23.7002 9.55625 23.766C10.6174 24.2688 11.7552 24.6543 12.94 24.9125C13.0962 24.9464 13.2599 24.9499 13.418 24.9226C13.576 24.8953 13.7241 24.838 13.8501 24.7553L16.2465 23.1902C16.4321 23.1944 16.6177 23.1944 16.8034 23.1902L19.2062 24.7638C19.3323 24.8463 19.4804 24.9034 19.6385 24.9305C19.7966 24.9576 19.9602 24.954 20.1163 24.9199C21.3014 24.6619 22.4393 24.276 23.5 23.7724C23.6388 23.7064 23.7569 23.6149 23.8449 23.505C23.9328 23.3951 23.9882 23.27 24.0066 23.1395L24.347 20.6378C24.481 20.5338 24.6099 20.4283 24.7337 20.3214L27.7991 20.0261C27.9586 20.0109 28.1117 19.9654 28.2459 19.8933C28.3802 19.8211 28.4921 19.7243 28.5725 19.6106C29.1869 18.7424 29.6581 17.8114 29.9737 16.842C30.0152 16.7143 30.0195 16.5803 29.9861 16.451C29.9527 16.3216 29.8827 16.2005 29.7816 16.0974L27.8687 14.1367ZM25.7933 13.4512C25.8152 13.7561 25.8152 14.0618 25.7933 14.3667C25.7779 14.5754 25.8579 14.7814 26.0176 14.9446L27.8468 16.8146C27.6369 17.3604 27.3681 17.8898 27.0437 18.3966L24.1304 18.6666C23.8767 18.6897 23.6424 18.7889 23.473 18.9451C23.2248 19.1734 22.9606 19.3896 22.6815 19.5926C22.4906 19.7313 22.3693 19.9229 22.3412 20.1305L22.0176 22.512C21.3982 22.7776 20.7511 22.9975 20.084 23.1691L17.7972 21.6725C17.6142 21.5529 17.3869 21.4878 17.1527 21.4879H17.0908C16.7182 21.5058 16.3446 21.5058 15.9719 21.4879C15.7168 21.4753 15.465 21.5407 15.2655 21.6714L12.9736 23.1691C12.3065 22.9973 11.6594 22.7775 11.04 22.512L10.71 20.1316C10.6818 19.924 10.5605 19.7323 10.3696 19.5937C10.0906 19.3907 9.8263 19.1744 9.57817 18.9461C9.4087 18.7899 9.17445 18.6907 8.92074 18.6677L6.01004 18.4019C5.68544 17.8951 5.41669 17.3657 5.20695 16.8199L7.03613 14.9488C7.19586 14.7856 7.27579 14.5796 7.26043 14.3709C7.23852 14.066 7.23852 13.7603 7.26043 13.4554C7.27579 13.2467 7.19586 13.0407 7.03613 12.8774L5.20695 11.0033C5.41685 10.4575 5.6856 9.92807 6.01004 9.42123L8.91945 9.15123C9.17316 9.12819 9.40741 9.02898 9.57688 8.87279C9.82501 8.64446 10.0893 8.42823 10.3684 8.22521C10.56 8.08646 10.6818 7.89437 10.71 7.68627L11.0335 5.30584C11.6529 5.04026 12.3 4.82036 12.9671 4.64877L15.2539 6.14537C15.4534 6.27605 15.7052 6.34145 15.9603 6.32888C16.333 6.31095 16.7066 6.31095 17.0792 6.32888C17.3343 6.34145 17.5861 6.27605 17.7856 6.14537L20.0763 4.64877C20.7433 4.8205 21.3904 5.04038 22.0099 5.30584L22.3399 7.68627C22.368 7.89384 22.4893 8.0855 22.6802 8.22416C22.9593 8.42717 23.2235 8.6434 23.4717 8.87173C23.6411 9.02792 23.8754 9.12713 24.1291 9.15017L27.0398 9.4149C27.3644 9.92168 27.6332 10.4511 27.8429 10.9969L26.0137 12.8679C25.8525 13.0326 25.7724 13.2407 25.7894 13.4512H25.7933Z" fill="white"/>
</svg>
