<svg width="32" height="32" viewBox="0 0 32 32" fill="none" xmlns="http://www.w3.org/2000/svg">
<path d="M27 5.99902H22V4.99902C22 4.20337 21.6839 3.44031 21.1213 2.8777C20.5587 2.31509 19.7956 1.99902 19 1.99902L13 1.99902C12.2044 1.99902 11.4413 2.31509 10.8787 2.8777C10.3161 3.44031 10 4.20337 10 4.99902V5.99902H5C4.73478 5.99902 4.48043 6.10438 4.29289 6.29192C4.10536 6.47945 4 6.73381 4 6.99902C4 7.26424 4.10536 7.51859 4.29289 7.70613C4.48043 7.89367 4.73478 7.99902 5 7.99902H6L6 25.999C6 26.5295 6.21071 27.0382 6.58579 27.4132C6.96086 27.7883 7.46957 27.999 8 27.999H24C24.5304 27.999 25.0391 27.7883 25.4142 27.4132C25.7893 27.0382 26 26.5295 26 25.999V7.99902H27C27.2652 7.99902 27.5196 7.89367 27.7071 7.70613C27.8946 7.51859 28 7.26424 28 6.99902C28 6.73381 27.8946 6.47945 27.7071 6.29192C27.5196 6.10438 27.2652 5.99902 27 5.99902ZM12 4.99902C12 4.73381 12.1054 4.47945 12.2929 4.29192C12.4804 4.10438 12.7348 3.99902 13 3.99902L19 3.99902C19.2652 3.99902 19.5196 4.10438 19.7071 4.29192C19.8946 4.47945 20 4.73381 20 4.99902V5.99902L12 5.99902V4.99902ZM24 25.999H8L8 7.99902L24 7.99902V25.999ZM14 12.999V20.999C14 21.2642 13.8946 21.5186 13.7071 21.7061C13.5196 21.8937 13.2652 21.999 13 21.999C12.7348 21.999 12.4804 21.8937 12.2929 21.7061C12.1054 21.5186 12 21.2642 12 20.999V12.999C12 12.7338 12.1054 12.4795 12.2929 12.2919C12.4804 12.1044 12.7348 11.999 13 11.999C13.2652 11.999 13.5196 12.1044 13.7071 12.2919C13.8946 12.4795 14 12.7338 14 12.999ZM20 12.999V20.999C20 21.2642 19.8946 21.5186 19.7071 21.7061C19.5196 21.8937 19.2652 21.999 19 21.999C18.7348 21.999 18.4804 21.8937 18.2929 21.7061C18.1054 21.5186 18 21.2642 18 20.999V12.999C18 12.7338 18.1054 12.4795 18.2929 12.2919C18.4804 12.1044 18.7348 11.999 19 11.999C19.2652 11.999 19.5196 12.1044 19.7071 12.2919C19.8946 12.4795 20 12.7338 20 12.999Z" fill="white"/>
</svg>
