<svg width="33" height="27" viewBox="0 0 33 27" fill="none" xmlns="http://www.w3.org/2000/svg">
<g clip-path="url(#clip0_0_7913)">
<path d="M32.0076 11.5766H28.4085L22.2855 4.6779C22.0999 4.46946 21.8584 4.29858 21.5796 4.1784C21.3008 4.05821 20.992 3.9919 20.6769 3.98457C20.3619 3.97724 20.049 4.02907 19.7623 4.1361C19.4755 4.24312 19.2226 4.40249 19.0228 4.60196L17.3664 6.17344L17.3406 6.1977C17.2446 6.29635 17.1227 6.37602 16.9839 6.43078C16.8451 6.48554 16.6929 6.51398 16.5388 6.51398C16.3847 6.51398 16.2326 6.48554 16.0938 6.43078C15.9549 6.37602 15.833 6.29635 15.737 6.1977L15.7112 6.17344L14.0548 4.60196C13.8551 4.40249 13.6021 4.24312 13.3154 4.1361C13.0286 4.02907 12.7157 3.97724 12.4007 3.98457C12.0857 3.9919 11.7769 4.05821 11.498 4.1784C11.2192 4.29858 10.9777 4.46946 10.7922 4.6779L4.66913 11.5766H1.07007C0.796564 11.5766 0.534261 11.6655 0.340865 11.8237C0.147468 11.982 0.0388184 12.1966 0.0388184 12.4204C0.0388184 12.6441 0.147468 12.8587 0.340865 13.017C0.534261 13.1752 0.796564 13.2641 1.07007 13.2641H32.0076C32.2811 13.2641 32.5434 13.1752 32.7368 13.017C32.9302 12.8587 33.0388 12.6441 33.0388 12.4204C33.0388 12.1966 32.9302 11.982 32.7368 11.8237C32.5434 11.6655 32.2811 11.5766 32.0076 11.5766ZM12.4576 5.67036L12.4821 5.69461L14.1386 7.26504C14.4287 7.5569 14.7946 7.79219 15.2098 7.95378C15.625 8.11538 16.079 8.19923 16.5388 8.19923C16.9986 8.19923 17.4526 8.11538 17.8678 7.95378C18.283 7.79219 18.649 7.5569 18.9391 7.26504L20.5955 5.69461C20.6032 5.68618 20.6084 5.67879 20.6174 5.67036L25.8587 11.5766H7.21761L12.4576 5.67036ZM23.2419 14.9516C22.1006 14.9518 20.9994 15.2961 20.1488 15.9187C19.2981 16.5413 18.7578 17.3986 18.631 18.3266H14.4467C14.3196 17.3994 13.7797 16.543 12.93 15.9207C12.0803 15.2985 10.9804 14.954 9.84003 14.953C8.6997 14.9519 7.59883 15.2945 6.7475 15.9152C5.89617 16.536 5.35398 17.3914 5.2244 18.3184C5.09482 19.2453 5.38692 20.1789 6.04496 20.9409C6.70299 21.7028 7.6809 22.2399 8.79206 22.4496C9.90322 22.6593 11.0698 22.5269 12.0693 22.0776C13.0688 21.6284 13.8311 20.8939 14.2108 20.0141H18.8669C19.1505 20.6704 19.6491 21.2503 20.3083 21.6903C20.9675 22.1304 21.7619 22.4137 22.6046 22.5094C23.4473 22.605 24.3059 22.5092 25.0866 22.2325C25.8673 21.9559 26.54 21.5089 27.0312 20.9406C27.5224 20.3722 27.8131 19.7043 27.8717 19.0098C27.9303 18.3154 27.7544 17.6212 27.3633 17.003C26.9721 16.3848 26.3808 15.8665 25.654 15.5047C24.9271 15.1429 24.0927 14.9516 23.2419 14.9516ZM9.83569 20.8579C9.32579 20.8579 8.82733 20.7341 8.40336 20.5024C7.97939 20.2706 7.64895 19.9411 7.45382 19.5557C7.25868 19.1703 7.20763 18.7461 7.30711 18.337C7.40658 17.9278 7.65213 17.5519 8.01268 17.2569C8.37324 16.9619 8.83262 16.761 9.33273 16.6796C9.83283 16.5982 10.3512 16.64 10.8223 16.7997C11.2934 16.9593 11.696 17.2297 11.9793 17.5766C12.2626 17.9235 12.4138 18.3313 12.4138 18.7485C12.4138 19.0255 12.3471 19.2998 12.2176 19.5557C12.088 19.8116 11.8981 20.0442 11.6587 20.24C11.4193 20.4359 11.1351 20.5913 10.8223 20.6973C10.5095 20.8033 10.1743 20.8579 9.83569 20.8579ZM23.2419 20.8579C22.732 20.8579 22.2336 20.7341 21.8096 20.5024C21.3856 20.2706 21.0552 19.9411 20.8601 19.5557C20.6649 19.1703 20.6139 18.7461 20.7134 18.337C20.8128 17.9278 21.0584 17.5519 21.4189 17.2569C21.7795 16.9619 22.2389 16.761 22.739 16.6796C23.2391 16.5982 23.7575 16.64 24.2285 16.7997C24.6996 16.9593 25.1023 17.2297 25.3856 17.5766C25.6689 17.9235 25.8201 18.3313 25.8201 18.7485C25.8201 19.3079 25.5484 19.8445 25.065 20.24C24.5815 20.6356 23.9257 20.8579 23.2419 20.8579Z" fill="white"/>
</g>
<defs>
<clipPath id="clip0_0_7913">
<rect width="33" height="27" fill="white"/>
</clipPath>
</defs>
</svg>
