<svg width="265" height="130" viewBox="0 0 265 130" fill="none" xmlns="http://www.w3.org/2000/svg">
<path d="M0 53.7437C10.1923 53.7437 10.1923 40.8789 20.3846 40.8789C30.5769 40.8789 30.5769 79.4735 40.7692 79.4735C50.9615 79.4735 50.9615 31.2302 61.1538 31.2302C71.3462 31.2302 71.3462 37.6627 81.5385 37.6627C91.7308 37.6627 91.7308 92.3383 101.923 92.3383C112.115 92.3383 112.115 124.5 122.308 124.5C132.5 124.5 132.5 108.419 142.692 108.419C152.885 108.419 152.885 5.50049 163.077 5.50049C173.269 5.50049 173.269 69.8248 183.462 69.8248C193.654 69.8248 193.654 101.987 203.846 101.987C214.038 101.987 214.038 85.9059 224.231 85.9059C234.423 85.9059 234.423 24.7978 244.615 24.7978C254.808 24.7978 254.808 21.5816 265 21.5816M265 21.5816V21.5816Z" stroke="#4200B5" stroke-width="3"/>
<path d="M0 128.5C16.5625 128.5 16.5625 1.5 33.125 1.5C49.6875 1.5 49.6875 79.3387 66.25 79.3387C82.8125 79.3387 82.8125 21.9839 99.375 21.9839C115.938 21.9839 115.938 38.371 132.5 38.371C149.063 38.371 149.063 99.8226 165.625 99.8226C182.188 99.8226 182.188 108.016 198.75 108.016C215.313 108.016 215.313 87.5323 231.875 87.5323C248.438 87.5323 248.438 58.8548 265 58.8548M265 58.8548V58.8548Z" stroke="#E2F75F" stroke-width="3"/>
</svg>
