<svg width="16" height="16" viewBox="0 0 16 16" fill="none" xmlns="http://www.w3.org/2000/svg">
<path d="M12.5001 5.50024V12.0001C12.5001 12.1327 12.4474 12.2599 12.3536 12.3537C12.2599 12.4474 12.1327 12.5001 12.0001 12.5001H5.50018C5.36758 12.5001 5.2404 12.4474 5.14664 12.3537C5.05287 12.2599 5.00019 12.1327 5.00019 12.0001C5.00019 11.8675 5.05287 11.7403 5.14664 11.6466C5.2404 11.5528 5.36758 11.5001 5.50018 11.5001H10.7932L3.64646 4.35401C3.55265 4.26019 3.49994 4.13295 3.49994 4.00027C3.49994 3.86759 3.55265 3.74034 3.64646 3.64653C3.74028 3.55271 3.86753 3.5 4.00021 3.5C4.13289 3.5 4.26013 3.55271 4.35395 3.64653L11.5001 10.7933V5.50024C11.5001 5.36764 11.5528 5.24046 11.6465 5.1467C11.7403 5.05293 11.8675 5.00025 12.0001 5.00025C12.1327 5.00025 12.2599 5.05293 12.3536 5.1467C12.4474 5.24046 12.5001 5.36764 12.5001 5.50024Z" fill="white"/>
</svg>
