<svg width="16" height="16" viewBox="0 0 16 16" fill="none" xmlns="http://www.w3.org/2000/svg">
<path d="M7.86182 1.6792C6.57624 1.6792 5.31953 2.06042 4.25061 2.77465C3.18169 3.48888 2.34857 4.50404 1.8566 5.69176C1.36463 6.87948 1.23591 8.18641 1.48672 9.44729C1.73752 10.7082 2.35658 11.8664 3.26563 12.7754C4.17467 13.6844 5.33286 14.3035 6.59373 14.5543C7.85461 14.8051 9.16154 14.6764 10.3493 14.1844C11.537 13.6924 12.5521 12.8593 13.2664 11.7904C13.9806 10.7215 14.3618 9.46478 14.3618 8.1792C14.36 6.45585 13.6746 4.80361 12.456 3.58502C11.2374 2.36642 9.58517 1.68102 7.86182 1.6792ZM7.86182 13.6792C6.77402 13.6792 5.71065 13.3566 4.80618 12.7523C3.90171 12.1479 3.19676 11.289 2.78048 10.284C2.3642 9.27896 2.25528 8.1731 2.4675 7.1062C2.67972 6.03931 3.20354 5.0593 3.97273 4.29011C4.74192 3.52092 5.72193 2.9971 6.78882 2.78488C7.85572 2.57266 8.96159 2.68158 9.96658 3.09786C10.9716 3.51414 11.8306 4.21909 12.4349 5.12356C13.0393 6.02803 13.3618 7.0914 13.3618 8.1792C13.3602 9.63738 12.7802 11.0354 11.7491 12.0665C10.718 13.0976 9.32 13.6775 7.86182 13.6792ZM10.7156 7.82545C10.7621 7.87189 10.7989 7.92703 10.8241 7.98773C10.8493 8.04843 10.8622 8.11349 10.8622 8.1792C10.8622 8.24491 10.8493 8.30997 10.8241 8.37067C10.7989 8.43137 10.7621 8.48651 10.7156 8.53295L8.71557 10.5329C8.62175 10.6268 8.4945 10.6795 8.36182 10.6795C8.22914 10.6795 8.10189 10.6268 8.00807 10.5329C7.91425 10.4391 7.86154 10.3119 7.86154 10.1792C7.86154 10.0465 7.91425 9.91927 8.00807 9.82545L9.15494 8.6792H5.36182C5.22921 8.6792 5.10203 8.62652 5.00827 8.53275C4.9145 8.43898 4.86182 8.31181 4.86182 8.1792C4.86182 8.04659 4.9145 7.91941 5.00827 7.82565C5.10203 7.73188 5.22921 7.6792 5.36182 7.6792H9.15494L8.00807 6.53295C7.91425 6.43913 7.86154 6.31188 7.86154 6.1792C7.86154 6.04652 7.91425 5.91927 8.00807 5.82545C8.10189 5.73163 8.22914 5.67892 8.36182 5.67892C8.4945 5.67892 8.62175 5.73163 8.71557 5.82545L10.7156 7.82545Z" fill="white"/>
</svg>
