<svg width="16" height="16" viewBox="0 0 16 16" fill="none" xmlns="http://www.w3.org/2000/svg">
<g clip-path="url(#clip0_0_4304)">
<path d="M7.28677 13.4365C7.25973 13.5447 7.19731 13.6407 7.10943 13.7093C7.02156 13.778 6.91326 13.8152 6.80177 13.8153C6.75964 13.8155 6.71765 13.8104 6.67677 13.8003L4.67677 13.3003C4.62109 13.2863 4.56823 13.2628 4.52052 13.2309L3.02052 12.2309C2.9102 12.1573 2.83364 12.0429 2.80768 11.9128C2.78172 11.7828 2.80848 11.6478 2.88208 11.5374C2.95568 11.4271 3.07008 11.3506 3.20013 11.3246C3.33017 11.2986 3.4652 11.3254 3.57552 11.399L5.00302 12.3509L6.91927 12.8303C6.98329 12.8458 7.04362 12.8738 7.09678 12.9127C7.14994 12.9516 7.19489 13.0007 7.22904 13.057C7.26319 13.1133 7.28587 13.1759 7.29577 13.241C7.30568 13.3061 7.30262 13.3726 7.28677 13.4365ZM15.5799 7.40775C15.5389 7.53237 15.4736 7.64762 15.3877 7.74685C15.3019 7.84608 15.1973 7.92732 15.0799 7.98588L13.5999 8.72588L10.1574 12.169C10.0963 12.23 10.0204 12.2742 9.93718 12.2972C9.85394 12.3202 9.76616 12.3213 9.68239 12.3003L5.68239 11.3003C5.62156 11.285 5.56412 11.2585 5.51302 11.2221L2.04302 8.74463L0.525516 7.98588C0.288351 7.86732 0.10798 7.65943 0.0240623 7.40791C-0.0598552 7.15639 -0.040448 6.88184 0.0780165 6.64463L1.63114 3.539C1.7497 3.30184 1.95759 3.12147 2.20911 3.03755C2.46063 2.95363 2.73518 2.97304 2.97239 3.0915L4.35114 3.779L7.66364 2.83275C7.75351 2.80705 7.84878 2.80705 7.93864 2.83275L11.2511 3.779L12.6299 3.0915C12.8671 2.97304 13.1417 2.95363 13.3932 3.03755C13.6447 3.12147 13.8526 3.30184 13.9711 3.539L15.5243 6.64463C15.5835 6.76184 15.6189 6.88964 15.6285 7.02062C15.638 7.15161 15.6215 7.28319 15.5799 7.40775ZM12.6936 8.2165L10.993 4.81525H9.00427L6.30177 7.44025C7.09302 7.94588 8.33364 8.08525 9.44677 6.96338C9.5337 6.87575 9.64997 6.82338 9.77321 6.81634C9.89644 6.8093 10.0179 6.8481 10.1143 6.92525L12.2649 8.64838L12.6936 8.2165ZM0.972391 7.0915L2.07802 7.64463L3.63114 4.539L2.52552 3.98588L0.972391 7.0915ZM11.5518 9.3565L9.81989 7.96963C8.59864 8.96963 7.04802 9.1015 5.76302 8.28213C5.63661 8.20172 5.52989 8.09395 5.45074 7.96676C5.37158 7.83957 5.32201 7.69622 5.30569 7.54731C5.28937 7.39839 5.30672 7.24771 5.35645 7.1064C5.40618 6.96509 5.48703 6.83675 5.59302 6.73088C5.59452 6.72906 5.5962 6.72738 5.59802 6.72588L8.40177 4.0065L7.80177 3.83525L4.65052 4.73588L2.93989 8.15651L6.01489 10.3534L9.64864 11.2615L11.5518 9.3565ZM14.6293 7.0915L13.078 3.98588L11.9724 4.539L13.5255 7.64463L14.6293 7.0915Z" fill="white"/>
</g>
<defs>
<clipPath id="clip0_0_4304">
<rect width="16" height="16" fill="white"/>
</clipPath>
</defs>
</svg>
