<svg width="16" height="16" viewBox="0 0 16 16" fill="none" xmlns="http://www.w3.org/2000/svg">
<path d="M8.07154 1.58984C6.78596 1.58984 5.52925 1.97106 4.46033 2.68529C3.39141 3.39952 2.55829 4.41468 2.06632 5.6024C1.57435 6.79012 1.44563 8.09705 1.69643 9.35793C1.94724 10.6188 2.5663 11.777 3.47534 12.686C4.38438 13.5951 5.54257 14.2141 6.80345 14.4649C8.06433 14.7158 9.37126 14.587 10.559 14.0951C11.7467 13.6031 12.7619 12.77 13.4761 11.701C14.1903 10.6321 14.5715 9.37542 14.5715 8.08984C14.5697 6.3665 13.8843 4.71425 12.6657 3.49566C11.4471 2.27707 9.79488 1.59166 8.07154 1.58984ZM8.07154 13.5898C6.98374 13.5898 5.92037 13.2673 5.0159 12.6629C4.11143 12.0586 3.40648 11.1996 2.9902 10.1946C2.57392 9.18961 2.465 8.08374 2.67722 7.01685C2.88944 5.94995 3.41326 4.96995 4.18245 4.20076C4.95164 3.43157 5.93164 2.90774 6.99854 2.69552C8.06543 2.48331 9.1713 2.59222 10.1763 3.00851C11.1813 3.42479 12.0403 4.12974 12.6446 5.03421C13.249 5.93868 13.5715 7.00205 13.5715 8.08984C13.5699 9.54803 12.9899 10.946 11.9588 11.9771C10.9277 13.0082 9.52972 13.5882 8.07154 13.5898ZM9.07154 11.0898C9.07154 11.2225 9.01886 11.3496 8.92509 11.4434C8.83132 11.5372 8.70414 11.5898 8.57154 11.5898C8.30632 11.5898 8.05197 11.4845 7.86443 11.297C7.67689 11.1094 7.57154 10.8551 7.57154 10.5898V8.08984C7.43893 8.08984 7.31175 8.03717 7.21798 7.9434C7.12421 7.84963 7.07154 7.72245 7.07154 7.58984C7.07154 7.45724 7.12421 7.33006 7.21798 7.23629C7.31175 7.14252 7.43893 7.08984 7.57154 7.08984C7.83675 7.08984 8.09111 7.1952 8.27864 7.38274C8.46618 7.57027 8.57154 7.82463 8.57154 8.08984V10.5898C8.70414 10.5898 8.83132 10.6425 8.92509 10.7363C9.01886 10.8301 9.07154 10.9572 9.07154 11.0898ZM7.07154 5.33984C7.07154 5.19151 7.11552 5.0465 7.19793 4.92317C7.28034 4.79983 7.39748 4.7037 7.53452 4.64693C7.67157 4.59017 7.82237 4.57532 7.96785 4.60425C8.11334 4.63319 8.24698 4.70462 8.35187 4.80951C8.45676 4.9144 8.52819 5.04804 8.55713 5.19353C8.58606 5.33901 8.57121 5.48981 8.51445 5.62686C8.45768 5.7639 8.36155 5.88103 8.23821 5.96345C8.11488 6.04586 7.96987 6.08984 7.82154 6.08984C7.62262 6.08984 7.43186 6.01083 7.29121 5.87017C7.15055 5.72952 7.07154 5.53876 7.07154 5.33984Z" fill="white"/>
</svg>
