<svg width="24" height="24" viewBox="0 0 24 24" fill="none" xmlns="http://www.w3.org/2000/svg">
<path d="M20.8269 12.0137C20.8269 12.2126 20.7479 12.4033 20.6072 12.544C20.4666 12.6847 20.2758 12.7637 20.0769 12.7637H12.5769V20.2637C12.5769 20.4626 12.4979 20.6534 12.3572 20.794C12.2166 20.9347 12.0258 21.0137 11.8269 21.0137C11.628 21.0137 11.4372 20.9347 11.2966 20.794C11.1559 20.6534 11.0769 20.4626 11.0769 20.2637V12.7637H3.5769C3.37799 12.7637 3.18723 12.6847 3.04657 12.544C2.90592 12.4033 2.8269 12.2126 2.8269 12.0137C2.8269 11.8148 2.90592 11.624 3.04657 11.4833C3.18723 11.3427 3.37799 11.2637 3.5769 11.2637H11.0769V3.76367C11.0769 3.56476 11.1559 3.37399 11.2966 3.23334C11.4372 3.09269 11.628 3.01367 11.8269 3.01367C12.0258 3.01367 12.2166 3.09269 12.3572 3.23334C12.4979 3.37399 12.5769 3.56476 12.5769 3.76367V11.2637H20.0769C20.2758 11.2637 20.4666 11.3427 20.6072 11.4833C20.7479 11.624 20.8269 11.8148 20.8269 12.0137Z" fill="white"/>
</svg>
