<svg width="16" height="16" viewBox="0 0 16 16" fill="none" xmlns="http://www.w3.org/2000/svg">
<path d="M13.8848 8.00928C13.8848 8.14189 13.8321 8.26906 13.7383 8.36283C13.6446 8.4566 13.5174 8.50928 13.3848 8.50928H8.38477V13.5093C8.38477 13.6419 8.33209 13.7691 8.23832 13.8628C8.14455 13.9566 8.01737 14.0093 7.88477 14.0093C7.75216 14.0093 7.62498 13.9566 7.53121 13.8628C7.43744 13.7691 7.38477 13.6419 7.38477 13.5093V8.50928H2.38477C2.25216 8.50928 2.12498 8.4566 2.03121 8.36283C1.93744 8.26906 1.88477 8.14189 1.88477 8.00928C1.88477 7.87667 1.93744 7.74949 2.03121 7.65572C2.12498 7.56196 2.25216 7.50928 2.38477 7.50928H7.38477V2.50928C7.38477 2.37667 7.43744 2.24949 7.53121 2.15572C7.62498 2.06196 7.75216 2.00928 7.88477 2.00928C8.01737 2.00928 8.14455 2.06196 8.23832 2.15572C8.33209 2.24949 8.38477 2.37667 8.38477 2.50928V7.50928H13.3848C13.5174 7.50928 13.6446 7.56196 13.7383 7.65572C13.8321 7.74949 13.8848 7.87667 13.8848 8.00928Z" fill="white"/>
</svg>
