<svg width="9" height="9" viewBox="0 0 9 9" fill="none" xmlns="http://www.w3.org/2000/svg">
<path d="M9 2.00022V8.50002C9 8.63262 8.94732 8.75979 8.85356 8.85356C8.75979 8.94732 8.63262 9 8.50002 9H2.00022C1.86761 9 1.74044 8.94732 1.64667 8.85356C1.55291 8.75979 1.50023 8.63262 1.50023 8.50002C1.50023 8.36741 1.55291 8.24024 1.64667 8.14647C1.74044 8.05271 1.86761 8.00003 2.00022 8.00003H7.29318L0.146523 0.854002C0.052706 0.760184 -9.88527e-10 0.63294 0 0.500263C9.88527e-10 0.367585 0.052706 0.240341 0.146523 0.146523C0.240341 0.052706 0.367585 9.88527e-10 0.500263 0C0.63294 -9.88527e-10 0.760184 0.052706 0.854002 0.146523L8.00003 7.29318V2.00022C8.00003 1.86761 8.05271 1.74044 8.14647 1.64667C8.24024 1.55291 8.36741 1.50023 8.50002 1.50023C8.63262 1.50023 8.75979 1.55291 8.85356 1.64667C8.94732 1.74044 9 1.86761 9 2.00022Z" fill="white"/>
</svg>
