<svg width="24" height="24" viewBox="0 0 24 24" fill="none" xmlns="http://www.w3.org/2000/svg">
<g clip-path="url(#clip0_0_715)">
<path d="M25.7081 14.7083C25.6152 14.8013 25.5049 14.875 25.3835 14.9253C25.2621 14.9757 25.132 15.0016 25.0006 15.0016C24.8691 15.0016 24.739 14.9757 24.6176 14.9253C24.4962 14.875 24.3859 14.8013 24.2931 14.7083L17.0006 7.41454V27.0008C17.0006 27.266 16.8952 27.5204 16.7077 27.7079C16.5201 27.8954 16.2658 28.0008 16.0006 28.0008C15.7353 28.0008 15.481 27.8954 15.2934 27.7079C15.1059 27.5204 15.0006 27.266 15.0006 27.0008V7.41454L7.70806 14.7083C7.52042 14.8959 7.26592 15.0013 7.00056 15.0013C6.73519 15.0013 6.4807 14.8959 6.29306 14.7083C6.10542 14.5206 6 14.2662 6 14.0008C6 13.7354 6.10542 13.4809 6.29306 13.2933L15.2931 4.29329C15.3859 4.20031 15.4962 4.12655 15.6176 4.07623C15.739 4.0259 15.8691 4 16.0006 4C16.132 4 16.2621 4.0259 16.3835 4.07623C16.5049 4.12655 16.6152 4.20031 16.7081 4.29329L25.7081 13.2933C25.801 13.3862 25.8748 13.4964 25.9251 13.6178C25.9754 13.7392 26.0013 13.8694 26.0013 14.0008C26.0013 14.1322 25.9754 14.2623 25.9251 14.3837C25.8748 14.5051 25.801 14.6154 25.7081 14.7083Z" fill="white"/>
</g>
<defs>
<clipPath id="clip0_0_715">
<path d="M0 8C0 3.58172 3.58172 0 8 0H16C20.4183 0 24 3.58172 24 8V16C24 20.4183 20.4183 24 16 24H8C3.58172 24 0 20.4183 0 16V8Z" fill="white"/>
</clipPath>
</defs>
</svg>
