<svg width="16" height="16" viewBox="0 0 16 16" fill="none" xmlns="http://www.w3.org/2000/svg">
<path d="M13.7612 3.52996C13.7143 3.4738 13.6556 3.42862 13.5893 3.39763C13.5229 3.36663 13.4506 3.35057 13.3774 3.35059H3.29494L2.98932 1.67184C2.94746 1.44142 2.82605 1.233 2.64628 1.08292C2.4665 0.932844 2.23975 0.85062 2.00557 0.850586H0.877441C0.744833 0.850586 0.617656 0.903264 0.523888 0.997033C0.43012 1.0908 0.377441 1.21798 0.377441 1.35059C0.377441 1.48319 0.43012 1.61037 0.523888 1.70414C0.617656 1.79791 0.744833 1.85059 0.877441 1.85059H2.00244L3.59994 10.6187C3.647 10.8787 3.76192 11.1217 3.93307 11.3231C3.69685 11.5437 3.52635 11.8255 3.44048 12.1371C3.35461 12.4487 3.35672 12.778 3.44658 13.0885C3.53645 13.399 3.71055 13.6785 3.94958 13.8961C4.18862 14.1137 4.48324 14.2608 4.80079 14.3212C5.11834 14.3816 5.4464 14.3528 5.7486 14.2381C6.0508 14.1234 6.31532 13.9272 6.51284 13.6714C6.71036 13.4155 6.83316 13.1099 6.86762 12.7886C6.90208 12.4672 6.84686 12.1425 6.70807 11.8506H9.54682C9.43496 12.0848 9.37708 12.3411 9.37744 12.6006C9.37744 12.9467 9.48008 13.285 9.67237 13.5728C9.86466 13.8606 10.138 14.0849 10.4577 14.2174C10.7775 14.3498 11.1294 14.3845 11.4688 14.317C11.8083 14.2494 12.1201 14.0828 12.3649 13.838C12.6096 13.5933 12.7763 13.2815 12.8438 12.942C12.9113 12.6025 12.8767 12.2507 12.7442 11.9309C12.6118 11.6111 12.3875 11.3378 12.0997 11.1455C11.8119 10.9532 11.4736 10.8506 11.1274 10.8506H5.07557C4.95847 10.8506 4.8451 10.8095 4.75521 10.7344C4.66532 10.6594 4.60462 10.5552 4.58369 10.44L4.38557 9.35059H11.6356C11.9868 9.35054 12.327 9.2272 12.5966 9.00208C12.8663 8.77696 13.0484 8.46433 13.1112 8.11871L13.8712 3.93996C13.8841 3.86774 13.8809 3.79356 13.8619 3.72271C13.8429 3.65185 13.8085 3.58605 13.7612 3.52996ZM5.87744 12.6006C5.87744 12.7489 5.83346 12.8939 5.75104 13.0173C5.66863 13.1406 5.5515 13.2367 5.41445 13.2935C5.27741 13.3503 5.12661 13.3651 4.98112 13.3362C4.83564 13.3072 4.702 13.2358 4.59711 13.1309C4.49222 13.026 4.42079 12.8924 4.39185 12.7469C4.36291 12.6014 4.37777 12.4506 4.43453 12.3136C4.4913 12.1765 4.58743 12.0594 4.71076 11.977C4.8341 11.8946 4.97911 11.8506 5.12744 11.8506C5.32635 11.8506 5.51712 11.9296 5.65777 12.0703C5.79842 12.2109 5.87744 12.4017 5.87744 12.6006ZM11.8774 12.6006C11.8774 12.7489 11.8335 12.8939 11.751 13.0173C11.6686 13.1406 11.5515 13.2367 11.4145 13.2935C11.2774 13.3503 11.1266 13.3651 10.9811 13.3362C10.8356 13.3072 10.702 13.2358 10.5971 13.1309C10.4922 13.026 10.4208 12.8924 10.3919 12.7469C10.3629 12.6014 10.3778 12.4506 10.4345 12.3136C10.4913 12.1765 10.5874 12.0594 10.7108 11.977C10.8341 11.8946 10.9791 11.8506 11.1274 11.8506C11.3264 11.8506 11.5171 11.9296 11.6578 12.0703C11.7984 12.2109 11.8774 12.4017 11.8774 12.6006ZM12.1274 7.93996C12.1065 8.05549 12.0455 8.15994 11.9552 8.23502C11.8649 8.3101 11.7511 8.35101 11.6337 8.35059H4.20369L3.47682 4.35059H12.7781L12.1274 7.93996Z" fill="white"/>
</svg>
