<svg width="33" height="27" viewBox="0 0 33 27" fill="none" xmlns="http://www.w3.org/2000/svg">
<path d="M29.5853 22.187C27.622 19.41 24.5966 17.4187 21.0659 16.4748C22.8123 15.6241 24.1692 14.3279 24.9282 12.7852C25.6871 11.2426 25.8061 9.53872 25.267 7.93534C24.7278 6.33195 23.5603 4.9177 21.9437 3.90977C20.3271 2.90184 18.3507 2.35596 16.3182 2.35596C14.2857 2.35596 12.3094 2.90184 10.6928 3.90977C9.07618 4.9177 7.90864 6.33195 7.36949 7.93534C6.83033 9.53872 6.94937 11.2426 7.70831 12.7852C8.46726 14.3279 9.82415 15.6241 11.5706 16.4748C8.03988 17.4177 5.01445 19.4089 3.0512 22.187C2.97921 22.283 2.93145 22.3899 2.91076 22.5013C2.89006 22.6127 2.89685 22.7263 2.93071 22.8355C2.96457 22.9447 3.02482 23.0473 3.10791 23.1372C3.191 23.227 3.29525 23.3023 3.41449 23.3587C3.53374 23.415 3.66558 23.4513 3.80222 23.4653C3.93887 23.4793 4.07755 23.4707 4.2101 23.4402C4.34264 23.4096 4.46636 23.3576 4.57396 23.2873C4.68155 23.217 4.77084 23.1297 4.83656 23.0307C7.26515 19.5966 11.5577 17.5463 16.3182 17.5463C21.0787 17.5463 25.3713 19.5966 27.7999 23.0307C27.8656 23.1297 27.9549 23.217 28.0625 23.2873C28.1701 23.3576 28.2938 23.4096 28.4264 23.4402C28.5589 23.4707 28.6976 23.4793 28.8342 23.4653C28.9709 23.4513 29.1027 23.415 29.222 23.3587C29.3412 23.3023 29.4455 23.227 29.5286 23.1372C29.6116 23.0473 29.6719 22.9447 29.7058 22.8355C29.7396 22.7263 29.7464 22.6127 29.7257 22.5013C29.705 22.3899 29.6573 22.283 29.5853 22.187ZM9.09949 9.95258C9.09949 8.78443 9.52286 7.64252 10.3161 6.67124C11.1093 5.69996 12.2367 4.94294 13.5557 4.49591C14.8748 4.04888 16.3262 3.93192 17.7265 4.15981C19.1268 4.38771 20.4131 4.95022 21.4227 5.77623C22.4322 6.60223 23.1197 7.65462 23.3983 8.80032C23.6768 9.94602 23.5339 11.1336 22.9875 12.2128C22.4411 13.292 21.5159 14.2145 20.3288 14.8634C19.1416 15.5124 17.746 15.8588 16.3182 15.8588C14.4043 15.8572 12.5694 15.2343 11.2161 14.1271C9.86274 13.0198 9.10153 11.5185 9.09949 9.95258Z" fill="white"/>
</svg>
