<svg width="32" height="32" viewBox="0 0 32 32" fill="none" xmlns="http://www.w3.org/2000/svg">
<g clip-path="url(#clip0_0_3404)">
<g clip-path="url(#clip1_0_3404)">
<path d="M34.75 0H-2.58333C-4.05609 0 -5.25 1.19391 -5.25 2.66667V29.3333C-5.25 30.8061 -4.05609 32 -2.58333 32H34.75C36.2228 32 37.4167 30.8061 37.4167 29.3333V2.66667C37.4167 1.19391 36.2228 0 34.75 0Z" fill="#4200B5"/>
<path d="M16.436 4.86006L16.0598 3.77783L15.6837 4.86006L14.5381 4.88341L15.4512 5.57559L15.1194 6.67226L16.0598 6.01783L17.0002 6.67226L16.6685 5.57559L17.5816 4.88341L16.436 4.86006Z" fill="#E2F75F"/>
<path d="M16.436 26.1042L16.0598 25.022L15.6837 26.1042L14.5381 26.1276L15.4512 26.8197L15.1194 27.9164L16.0598 27.262L17.0002 27.9164L16.6685 26.8197L17.5816 26.1276L16.436 26.1042Z" fill="#E2F75F"/>
<path d="M10.7253 5.13477L11.1016 6.21701L12.2471 6.24034L11.334 6.93254L11.6659 8.02919L10.7253 7.37477L9.78494 8.02919L10.1167 6.93254L9.20374 6.24034L10.3492 6.21701L10.7253 5.13477Z" fill="#E2F75F"/>
<path d="M11.1016 24.7478L10.7253 23.6655L10.3492 24.7478L9.20374 24.7711L10.1167 25.4634L9.78494 26.5599L10.7253 25.9055L11.6659 26.5599L11.334 25.4634L12.2471 24.7711L11.1016 24.7478Z" fill="#E2F75F"/>
<path d="M6.84152 9.11182L7.21769 10.1941L8.3632 10.2174L7.45018 10.9096L7.78197 12.0062L6.84152 11.3518L5.90105 12.0062L6.23284 10.9096L5.31982 10.2174L6.46533 10.1941L6.84152 9.11182Z" fill="#E2F75F"/>
<path d="M7.21769 20.7947L6.84152 19.7124L6.46533 20.7947L5.31982 20.818L6.23284 21.5101L5.90105 22.6068L6.84152 21.9524L7.78197 22.6068L7.45018 21.5101L8.3632 20.818L7.21769 20.7947Z" fill="#E2F75F"/>
<path d="M5.24153 14.4121L5.61772 15.4944L6.76322 15.5177L5.85021 16.2098L6.182 17.3065L5.24153 16.6521L4.30108 17.3065L4.63286 16.2098L3.71985 15.5177L4.86536 15.4944L5.24153 14.4121Z" fill="#E2F75F"/>
<path d="M27.3013 15.4944L26.925 14.4121L26.5489 15.4944L25.4034 15.5177L26.3164 16.2098L25.9846 17.3065L26.925 16.6521L27.8656 17.3065L27.5337 16.2098L28.4468 15.5177L27.3013 15.4944Z" fill="#E2F75F"/>
<path d="M25.3251 9.11182L25.7012 10.1941L26.8468 10.2174L25.9337 10.9096L26.2656 12.0062L25.3251 11.3518L24.3847 12.0062L24.7164 10.9096L23.8033 10.2174L24.9489 10.1941L25.3251 9.11182Z" fill="#E2F75F"/>
<path d="M25.7012 20.7947L25.3251 19.7124L24.9489 20.7947L23.8033 20.818L24.7164 21.5101L24.3847 22.6068L25.3251 21.9524L26.2656 22.6068L25.9337 21.5101L26.8468 20.818L25.7012 20.7947Z" fill="#E2F75F"/>
<path d="M21.3945 5.13477L21.7708 6.21701L22.9163 6.24034L22.0032 6.93254L22.3351 8.02919L21.3945 7.37477L20.4541 8.02919L20.7859 6.93254L19.8729 6.24034L21.0184 6.21701L21.3945 5.13477Z" fill="#E2F75F"/>
<path d="M21.7708 24.7478L21.3945 23.6655L21.0184 24.7478L19.8729 24.7711L20.7859 25.4634L20.4541 26.5599L21.3945 25.9055L22.3351 26.5599L22.0032 25.4634L22.9163 24.7711L21.7708 24.7478Z" fill="#E2F75F"/>
</g>
</g>
<defs>
<clipPath id="clip0_0_3404">
<path d="M0 16C0 7.16344 7.16344 0 16 0C24.8366 0 32 7.16344 32 16C32 24.8366 24.8366 32 16 32C7.16344 32 0 24.8366 0 16Z" fill="white"/>
</clipPath>
<clipPath id="clip1_0_3404">
<rect width="42.6667" height="32" fill="white" transform="translate(-5.25)"/>
</clipPath>
</defs>
</svg>
