<svg width="32" height="32" viewBox="0 0 32 32" fill="none" xmlns="http://www.w3.org/2000/svg">
<path d="M2.52813 16.0699C2.53078 13.6838 3.47984 11.3961 5.16709 9.70885C6.85435 8.0216 9.14199 7.07254 11.5281 7.06989L25.1144 7.06989L23.8206 5.77739C23.633 5.58975 23.5276 5.33526 23.5276 5.06989C23.5276 4.80453 23.633 4.55003 23.8206 4.36239C24.0083 4.17475 24.2628 4.06934 24.5281 4.06934C24.7935 4.06934 25.048 4.17475 25.2356 4.36239L28.2356 7.36239C28.3286 7.45527 28.4024 7.56555 28.4527 7.68695C28.503 7.80835 28.5289 7.93848 28.5289 8.06989C28.5289 8.20131 28.503 8.33143 28.4527 8.45283C28.4024 8.57423 28.3286 8.68452 28.2356 8.77739L25.2356 11.7774C25.048 11.965 24.7935 12.0704 24.5281 12.0704C24.2628 12.0704 24.0083 11.965 23.8206 11.7774C23.633 11.5898 23.5276 11.3353 23.5276 11.0699C23.5276 10.8045 23.633 10.55 23.8206 10.3624L25.1144 9.06989H11.5281C9.67222 9.07188 7.8929 9.81001 6.58058 11.1223C5.26825 12.4347 4.53012 14.214 4.52813 16.0699C4.52813 16.3351 4.42277 16.5895 4.23524 16.777C4.0477 16.9645 3.79335 17.0699 3.52813 17.0699C3.26291 17.0699 3.00856 16.9645 2.82102 16.777C2.63349 16.5895 2.52813 16.3351 2.52813 16.0699ZM27.5281 15.0699C27.2629 15.0699 27.0086 15.1752 26.821 15.3628C26.6335 15.5503 26.5281 15.8047 26.5281 16.0699C26.5261 17.9258 25.788 19.7051 24.4757 21.0174C23.1634 22.3298 21.384 23.0679 19.5281 23.0699H5.94188L7.23563 21.7774C7.32854 21.6845 7.40224 21.5742 7.45252 21.4528C7.50281 21.3314 7.52869 21.2013 7.52869 21.0699C7.52869 20.9385 7.50281 20.8084 7.45252 20.687C7.40224 20.5656 7.32854 20.4553 7.23563 20.3624C7.14272 20.2695 7.03242 20.1958 6.91103 20.1455C6.78963 20.0952 6.65953 20.0693 6.52813 20.0693C6.39674 20.0693 6.26663 20.0952 6.14523 20.1455C6.02384 20.1958 5.91354 20.2695 5.82063 20.3624L2.82063 23.3624C2.72765 23.4553 2.65389 23.5656 2.60357 23.687C2.55325 23.8083 2.52734 23.9385 2.52734 24.0699C2.52734 24.2013 2.55325 24.3314 2.60357 24.4528C2.65389 24.5742 2.72765 24.6845 2.82063 24.7774L5.82063 27.7774C5.91354 27.8703 6.02384 27.944 6.14523 27.9943C6.26663 28.0446 6.39674 28.0704 6.52813 28.0704C6.65953 28.0704 6.78963 28.0446 6.91103 27.9943C7.03242 27.944 7.14272 27.8703 7.23563 27.7774C7.32854 27.6845 7.40224 27.5742 7.45252 27.4528C7.50281 27.3314 7.52869 27.2013 7.52869 27.0699C7.52869 26.9385 7.50281 26.8084 7.45252 26.687C7.40224 26.5656 7.32854 26.4553 7.23563 26.3624L5.94188 25.0699H19.5281C21.9143 25.0672 24.2019 24.1182 25.8892 22.4309C27.5764 20.7437 28.5255 18.456 28.5281 16.0699C28.5281 15.8047 28.4228 15.5503 28.2352 15.3628C28.0477 15.1752 27.7933 15.0699 27.5281 15.0699Z" fill="#4F535E" fill-opacity="0.45"/>
</svg>
