<svg width="24" height="24" viewBox="0 0 24 24" fill="none" xmlns="http://www.w3.org/2000/svg">
<path d="M13.6457 12.3848L9.89574 16.1348C9.82606 16.2044 9.74333 16.2597 9.65228 16.2974C9.56124 16.3351 9.46366 16.3545 9.36511 16.3545C9.26657 16.3545 9.16898 16.3351 9.07794 16.2974C8.9869 16.2597 8.90417 16.2044 8.83449 16.1348C8.7648 16.0651 8.70953 15.9823 8.67182 15.8913C8.63411 15.8003 8.6147 15.7027 8.6147 15.6041C8.6147 15.5056 8.63411 15.408 8.67182 15.317C8.70953 15.2259 8.7648 15.1432 8.83449 15.0735L11.3048 12.6041H2.61511C2.4162 12.6041 2.22543 12.5251 2.08478 12.3845C1.94413 12.2438 1.86511 12.053 1.86511 11.8541C1.86511 11.6552 1.94413 11.4644 2.08478 11.3238C2.22543 11.1831 2.4162 11.1041 2.61511 11.1041H11.3048L8.83449 8.63475C8.69376 8.49402 8.6147 8.30315 8.6147 8.10413C8.6147 7.9051 8.69376 7.71423 8.83449 7.5735C8.97522 7.43277 9.16609 7.35371 9.36511 7.35371C9.56414 7.35371 9.75501 7.43277 9.89574 7.5735L13.6457 11.3235C13.7155 11.3932 13.7708 11.4759 13.8085 11.5669C13.8463 11.658 13.8657 11.7556 13.8657 11.8541C13.8657 11.9527 13.8463 12.0503 13.8085 12.1413C13.7708 12.2324 13.7155 12.3151 13.6457 12.3848ZM18.3651 2.85413L13.1151 2.85413C12.9162 2.85413 12.7254 2.93314 12.5848 3.0738C12.4441 3.21445 12.3651 3.40521 12.3651 3.60413C12.3651 3.80304 12.4441 3.9938 12.5848 4.13446C12.7254 4.27511 12.9162 4.35413 13.1151 4.35413L18.3651 4.35413V19.3541H13.1151C12.9162 19.3541 12.7254 19.4331 12.5848 19.5738C12.4441 19.7144 12.3651 19.9052 12.3651 20.1041C12.3651 20.303 12.4441 20.4938 12.5848 20.6345C12.7254 20.7751 12.9162 20.8541 13.1151 20.8541H18.3651C18.7629 20.8541 19.1445 20.6961 19.4258 20.4148C19.7071 20.1335 19.8651 19.752 19.8651 19.3541V4.35413C19.8651 3.9563 19.7071 3.57477 19.4258 3.29347C19.1445 3.01216 18.7629 2.85413 18.3651 2.85413Z" fill="white"/>
</svg>
