<svg width="24" height="24" viewBox="0 0 24 24" fill="none" xmlns="http://www.w3.org/2000/svg">
<path d="M4.81922 12.889C4.59671 12.889 4.37921 12.823 4.1942 12.6994C4.0092 12.5758 3.865 12.4001 3.77985 12.1945C3.69471 11.989 3.67243 11.7628 3.71584 11.5446C3.75924 11.3263 3.86639 11.1259 4.02372 10.9685C4.18106 10.8112 4.38151 10.7041 4.59974 10.6606C4.81797 10.6172 5.04417 10.6395 5.24974 10.7247C5.4553 10.8098 5.63101 10.954 5.75462 11.139C5.87824 11.324 5.94422 11.5415 5.94422 11.764C5.94422 12.0624 5.82569 12.3485 5.61471 12.5595C5.40374 12.7705 5.11759 12.889 4.81922 12.889ZM15.788 21.9903C18.1529 19.107 19.4454 15.4931 19.4454 11.764C19.4454 8.03491 18.1529 4.42106 15.788 1.53778C15.7254 1.46163 15.6485 1.39855 15.5616 1.35213C15.4747 1.30572 15.3794 1.27688 15.2814 1.26726C15.1833 1.25764 15.0843 1.26743 14.99 1.29607C14.8957 1.32471 14.808 1.37164 14.7319 1.43418C14.6557 1.49673 14.5926 1.57365 14.5462 1.66057C14.4998 1.7475 14.471 1.84271 14.4614 1.94078C14.4419 2.13883 14.502 2.33649 14.6283 2.49028C16.7726 5.10516 17.9445 8.38234 17.9445 11.764C17.9445 15.1457 16.7726 18.4229 14.6283 21.0378C14.502 21.1916 14.4419 21.3892 14.4614 21.5873C14.4808 21.7853 14.5781 21.9676 14.7319 22.0939C14.8857 22.2202 15.0833 22.2802 15.2814 22.2608C15.4794 22.2414 15.6617 22.1441 15.788 21.9903ZM12.4345 18.9828C14.0605 16.929 14.9452 14.3863 14.9452 11.7668C14.9452 9.14736 14.0605 6.60465 12.4345 4.5509C12.311 4.395 12.1305 4.29458 11.9329 4.27173C11.7353 4.24887 11.5367 4.30545 11.3808 4.42903C11.2249 4.5526 11.1245 4.73304 11.1016 4.93066C11.0787 5.12828 11.1353 5.32688 11.2589 5.48278C12.6747 7.2714 13.445 9.4857 13.445 11.7668C13.445 14.048 12.6747 16.2623 11.2589 18.0509C11.1977 18.1281 11.1523 18.2166 11.1253 18.3113C11.0983 18.406 11.0903 18.5052 11.1016 18.603C11.1129 18.7009 11.1434 18.7955 11.1913 18.8816C11.2392 18.9677 11.3036 19.0435 11.3808 19.1047C11.458 19.1659 11.5465 19.2112 11.6412 19.2382C11.7359 19.2652 11.835 19.2733 11.9329 19.262C12.0308 19.2507 12.1254 19.2202 12.2115 19.1723C12.2976 19.1244 12.3734 19.06 12.4345 18.9828ZM9.08203 15.9584C9.96741 14.7402 10.4443 13.2728 10.4443 11.7668C10.4443 10.2608 9.96741 8.79352 9.08203 7.57528C8.96492 7.41441 8.7887 7.30665 8.59214 7.2757C8.39558 7.24476 8.19478 7.29317 8.03391 7.41028C7.87304 7.52739 7.76528 7.70361 7.73433 7.90017C7.70339 8.09673 7.7518 8.29753 7.86891 8.4584C8.56811 9.41982 8.94475 10.578 8.94475 11.7668C8.94475 12.9556 8.56811 14.1139 7.86891 15.0753C7.81092 15.1549 7.76919 15.2452 7.7461 15.341C7.72301 15.4368 7.71901 15.5362 7.73433 15.6335C7.74965 15.7308 7.784 15.8242 7.8354 15.9083C7.8868 15.9923 7.95425 16.0654 8.03391 16.1234C8.11356 16.1814 8.20386 16.2231 8.29964 16.2462C8.39542 16.2693 8.49481 16.2733 8.59214 16.258C8.68947 16.2427 8.78283 16.2083 8.86688 16.1569C8.95094 16.1055 9.02404 16.0381 9.08203 15.9584Z" fill="white"/>
</svg>
