<svg width="345" height="690" viewBox="0 0 345 690" fill="none" xmlns="http://www.w3.org/2000/svg">
<g filter="url(#filter0_d_2020_136867)">
<g clip-path="url(#clip0_2020_136867)">
<path d="M0 32C0 14.3269 14.3269 0 32 0L313 0C330.673 0 345 14.3269 345 32V658C345 675.673 330.673 690 313 690H32C14.3269 690 0 675.673 0 658L0 32Z" fill="#0D0C12" fill-opacity="0.2" shape-rendering="crispEdges"/>
<g clip-path="url(#clip1_2020_136867)">
<path d="M345 0L0 0L0 345H345V0Z" fill="#E2F75F"/>
<path d="M172.5 172.5C172.5 126.75 154.326 82.8741 121.976 50.5241C89.6259 18.1741 45.7498 0 0 0L0 172.5H172.5Z" fill="#0D0C12"/>
<path d="M345 172.5C345 126.75 326.826 82.8741 294.476 50.5241C262.126 18.1741 218.25 0 172.5 0V172.5H345Z" fill="#272938" fill-opacity="0.2"/>
<path d="M172.5 345C172.5 299.25 154.326 255.374 121.976 223.024C89.6259 190.674 45.7498 172.5 0 172.5L0 345H172.5Z" fill="#4200B5"/>
<path d="M345 345C345 299.25 326.826 255.374 294.476 223.024C262.126 190.674 218.25 172.5 172.5 172.5V345H345Z" fill="#0D0C12"/>
</g>
<g clip-path="url(#clip2_2020_136867)">
<path d="M83.6589 518.087V566.564C83.6589 579.842 99.7124 586.493 109.102 577.103L157.58 528.626C166.97 519.236 183.023 525.887 183.023 539.165V566.564C183.023 579.842 199.077 586.493 208.467 577.103L256.944 528.626C266.334 519.236 259.683 503.182 246.405 503.182H98.5635C90.3349 503.182 83.6589 509.858 83.6589 518.087Z" fill="#E3E1EA"/>
<path d="M88.2296 488.278L83.6589 453.5H90.1672L93.5456 483.707H94.4399L98.8119 453.5H110.139L114.512 483.707H115.406L118.784 453.5H125.293L120.722 488.278H109.394L104.923 457.375H104.029L99.5572 488.278H88.2296Z" fill="#E3E1EA"/>
<path d="M139.005 488.278V476.304L127.18 453.5H134.484L141.837 468.405H142.731L150.084 453.5H157.387L145.563 476.304V488.278H139.005Z" fill="#E3E1EA"/>
<path d="M161.064 488.278V453.5H176.167C178.353 453.5 180.26 453.879 181.881 454.643C183.502 455.407 184.762 456.481 185.656 457.872C186.551 459.263 186.998 460.903 186.998 462.791V463.387C186.998 465.473 186.501 467.163 185.507 468.454C184.514 469.746 183.29 470.69 181.831 471.286V472.181C183.154 472.249 184.185 472.702 184.911 473.547C185.638 474.391 186.004 475.509 186.004 476.9V488.278H179.446V477.844C179.446 477.049 179.241 476.403 178.825 475.907C178.409 475.41 177.726 475.161 176.763 475.161H167.622V488.278H161.064ZM167.622 469.2H175.472C177.03 469.2 178.248 468.777 179.123 467.933C179.999 467.088 180.44 465.97 180.44 464.579V464.082C180.44 462.691 180.011 461.573 179.148 460.729C178.285 459.884 177.061 459.462 175.472 459.462H167.622V469.2Z" fill="#E3E1EA"/>
<path d="M192.432 458.468V454.351H190.774V453.5H195.028V454.351H193.37V458.468H192.432ZM195.698 458.468V453.5H197.487L198.425 457.617H198.648L199.586 453.5H201.375V458.468H200.437V454.351H200.213L199.276 458.468H197.798L196.86 454.351H196.636V458.468H195.698Z" fill="#E3E1EA"/>
</g>
</g>
</g>
<defs>
<filter id="filter0_d_2020_136867" x="-64" y="-40" width="473" height="818" filterUnits="userSpaceOnUse" color-interpolation-filters="sRGB">
<feFlood flood-opacity="0" result="BackgroundImageFix"/>
<feColorMatrix in="SourceAlpha" type="matrix" values="0 0 0 0 0 0 0 0 0 0 0 0 0 0 0 0 0 0 127 0" result="hardAlpha"/>
<feOffset dy="24"/>
<feGaussianBlur stdDeviation="32"/>
<feComposite in2="hardAlpha" operator="out"/>
<feColorMatrix type="matrix" values="0 0 0 0 0 0 0 0 0 0 0 0 0 0 0 0 0 0 0.15 0"/>
<feBlend mode="normal" in2="BackgroundImageFix" result="effect1_dropShadow_2020_136867"/>
<feBlend mode="normal" in="SourceGraphic" in2="effect1_dropShadow_2020_136867" result="shape"/>
</filter>
<clipPath id="clip0_2020_136867">
<path d="M0 32C0 14.3269 14.3269 0 32 0L313 0C330.673 0 345 14.3269 345 32V658C345 675.673 330.673 690 313 690H32C14.3269 690 0 675.673 0 658L0 32Z" fill="white"/>
</clipPath>
<clipPath id="clip1_2020_136867">
<rect width="345" height="345" fill="white"/>
</clipPath>
<clipPath id="clip2_2020_136867">
<rect width="177.682" height="128" fill="white" transform="translate(83.6589 453.5)"/>
</clipPath>
</defs>
</svg>
