<svg width="16" height="16" viewBox="0 0 16 16" fill="none" xmlns="http://www.w3.org/2000/svg">
<path d="M2.79832 6.6084H12.7896C12.9393 6.60916 13.0872 6.5763 13.2225 6.51226C13.3578 6.44822 13.477 6.35462 13.5713 6.23837C13.6656 6.12212 13.7326 5.98618 13.7673 5.84059C13.8021 5.69499 13.8037 5.54346 13.7721 5.39715C13.3077 3.20215 10.7939 1.6084 7.79395 1.6084C4.79395 1.6084 2.2802 3.20215 1.81582 5.39715C1.7842 5.54346 1.78582 5.69499 1.82058 5.84059C1.85533 5.98618 1.92233 6.12212 2.01662 6.23837C2.11092 6.35462 2.23011 6.44822 2.3654 6.51226C2.50069 6.5763 2.64864 6.60916 2.79832 6.6084ZM7.79395 2.6084C10.2827 2.6084 12.4321 3.89652 12.7896 5.6084H2.79832L2.79395 5.60402C3.15582 3.89652 5.3052 2.6084 7.79395 2.6084ZM14.1227 9.6384L11.5521 10.5759L9.23145 9.64402C9.11228 9.59638 8.97936 9.59638 8.8602 9.64402L6.5477 10.5696L4.23145 9.64402C4.11741 9.59847 3.99061 9.59646 3.8752 9.6384L1.1252 10.6384C1.00897 10.6896 0.916561 10.783 0.866732 10.8998C0.816902 11.0166 0.813384 11.148 0.85689 11.2673C0.900396 11.3866 0.987667 11.4849 1.10099 11.5422C1.21431 11.5995 1.34519 11.6116 1.46707 11.5759L2.29395 11.2765V11.6084C2.29395 12.2714 2.55734 12.9073 3.02618 13.3762C3.49502 13.845 4.1309 14.1084 4.79395 14.1084H10.7939C11.457 14.1084 12.0929 13.845 12.5617 13.3762C13.0306 12.9073 13.2939 12.2714 13.2939 11.6084V11.004L14.4646 10.5784C14.5302 10.5592 14.5912 10.5267 14.6438 10.483C14.6964 10.4393 14.7395 10.3852 14.7703 10.3242C14.8012 10.2631 14.8192 10.1964 14.8233 10.1281C14.8273 10.0599 14.8173 9.99148 14.7939 9.92723C14.7704 9.86297 14.7341 9.80421 14.687 9.75457C14.64 9.70493 14.5832 9.66547 14.5203 9.63863C14.4574 9.61179 14.3897 9.59814 14.3213 9.59853C14.2529 9.59893 14.1853 9.61334 14.1227 9.6409V9.6384ZM12.2939 11.6084C12.2939 12.0062 12.1359 12.3878 11.8546 12.6691C11.5733 12.9504 11.1918 13.1084 10.7939 13.1084H4.79395C4.39612 13.1084 4.01459 12.9504 3.73329 12.6691C3.45198 12.3878 3.29395 12.0062 3.29395 11.6084V10.9134L4.03582 10.6434L6.35645 11.5728C6.47561 11.6204 6.60853 11.6204 6.7277 11.5728L9.0402 10.6471L11.3527 11.5728C11.4667 11.6183 11.5935 11.6203 11.7089 11.5784L12.2883 11.3678L12.2939 11.6084ZM0.793945 8.1084C0.793945 7.97579 0.846624 7.84861 0.940392 7.75485C1.03416 7.66108 1.16134 7.6084 1.29395 7.6084H14.2939C14.4266 7.6084 14.5537 7.66108 14.6475 7.75485C14.7413 7.84861 14.7939 7.97579 14.7939 8.1084C14.7939 8.24101 14.7413 8.36818 14.6475 8.46195C14.5537 8.55572 14.4266 8.6084 14.2939 8.6084H1.29395C1.16134 8.6084 1.03416 8.55572 0.940392 8.46195C0.846624 8.36818 0.793945 8.24101 0.793945 8.1084Z" fill="white"/>
</svg>
