<svg width="24" height="24" viewBox="0 0 24 24" fill="none" xmlns="http://www.w3.org/2000/svg">
<path d="M20.8068 4.85474H2.80676C2.40894 4.85474 2.02741 5.01277 1.7461 5.29408C1.4648 5.57538 1.30676 5.95691 1.30676 6.35474V18.3547C1.30676 18.7526 1.4648 19.1341 1.7461 19.4154C2.02741 19.6967 2.40894 19.8547 2.80676 19.8547H20.8068C21.2046 19.8547 21.5861 19.6967 21.8674 19.4154C22.1487 19.1341 22.3068 18.7526 22.3068 18.3547V6.35474C22.3068 5.95691 22.1487 5.57538 21.8674 5.29408C21.5861 5.01277 21.2046 4.85474 20.8068 4.85474ZM20.8068 6.35474V8.60474H2.80676V6.35474H20.8068ZM20.8068 18.3547H2.80676V10.1047H20.8068V18.3547ZM19.3068 16.1047C19.3068 16.3036 19.2277 16.4944 19.0871 16.6351C18.9464 16.7757 18.7557 16.8547 18.5568 16.8547H15.5568C15.3579 16.8547 15.1671 16.7757 15.0264 16.6351C14.8858 16.4944 14.8068 16.3036 14.8068 16.1047C14.8068 15.9058 14.8858 15.7151 15.0264 15.5744C15.1671 15.4338 15.3579 15.3547 15.5568 15.3547H18.5568C18.7557 15.3547 18.9464 15.4338 19.0871 15.5744C19.2277 15.7151 19.3068 15.9058 19.3068 16.1047ZM13.3068 16.1047C13.3068 16.3036 13.2277 16.4944 13.0871 16.6351C12.9464 16.7757 12.7557 16.8547 12.5568 16.8547H11.0568C10.8579 16.8547 10.6671 16.7757 10.5264 16.6351C10.3858 16.4944 10.3068 16.3036 10.3068 16.1047C10.3068 15.9058 10.3858 15.7151 10.5264 15.5744C10.6671 15.4338 10.8579 15.3547 11.0568 15.3547H12.5568C12.7557 15.3547 12.9464 15.4338 13.0871 15.5744C13.2277 15.7151 13.3068 15.9058 13.3068 16.1047Z" fill="#1B1926"/>
</svg>
