<svg width="24" height="24" viewBox="0 0 24 24" fill="none" xmlns="http://www.w3.org/2000/svg">
<path d="M19.8086 2.65381H17.5586V1.90381C17.5586 1.7049 17.4796 1.51413 17.3389 1.37348C17.1983 1.23283 17.0075 1.15381 16.8086 1.15381C16.6097 1.15381 16.4189 1.23283 16.2783 1.37348C16.1376 1.51413 16.0586 1.7049 16.0586 1.90381V2.65381L8.55859 2.65381V1.90381C8.55859 1.7049 8.47958 1.51413 8.33892 1.37348C8.19827 1.23283 8.00751 1.15381 7.80859 1.15381C7.60968 1.15381 7.41892 1.23283 7.27826 1.37348C7.13761 1.51413 7.05859 1.7049 7.05859 1.90381V2.65381H4.80859C4.41077 2.65381 4.02924 2.81184 3.74793 3.09315C3.46663 3.37445 3.30859 3.75598 3.30859 4.15381L3.30859 19.1538C3.30859 19.5516 3.46663 19.9332 3.74793 20.2145C4.02924 20.4958 4.41077 20.6538 4.80859 20.6538H19.8086C20.2064 20.6538 20.5879 20.4958 20.8693 20.2145C21.1506 19.9332 21.3086 19.5516 21.3086 19.1538V4.15381C21.3086 3.75598 21.1506 3.37445 20.8693 3.09315C20.5879 2.81184 20.2064 2.65381 19.8086 2.65381ZM7.05859 4.15381V4.90381C7.05859 5.10272 7.13761 5.29349 7.27826 5.43414C7.41892 5.57479 7.60968 5.65381 7.80859 5.65381C8.00751 5.65381 8.19827 5.57479 8.33892 5.43414C8.47958 5.29349 8.55859 5.10272 8.55859 4.90381V4.15381H16.0586V4.90381C16.0586 5.10272 16.1376 5.29349 16.2783 5.43414C16.4189 5.57479 16.6097 5.65381 16.8086 5.65381C17.0075 5.65381 17.1983 5.57479 17.3389 5.43414C17.4796 5.29349 17.5586 5.10272 17.5586 4.90381V4.15381L19.8086 4.15381V7.15381L4.80859 7.15381V4.15381H7.05859ZM19.8086 19.1538H4.80859L4.80859 8.65381H19.8086V19.1538ZM10.8086 10.9038V16.9038C10.8086 17.1027 10.7296 17.2935 10.5889 17.4341C10.4483 17.5748 10.2575 17.6538 10.0586 17.6538C9.85968 17.6538 9.66892 17.5748 9.52826 17.4341C9.38761 17.2935 9.30859 17.1027 9.30859 16.9038V12.1169L8.89422 12.3251C8.71619 12.4141 8.5101 12.4287 8.32127 12.3658C8.13245 12.3028 7.97636 12.1675 7.88734 11.9894C7.79833 11.8114 7.78368 11.6053 7.84663 11.4165C7.90957 11.2277 8.04494 11.0716 8.22297 10.9826L9.72297 10.2326C9.83736 10.1753 9.96448 10.1483 10.0923 10.154C10.22 10.1598 10.3442 10.1981 10.453 10.2654C10.5618 10.3326 10.6516 10.4266 10.7138 10.5383C10.7761 10.6501 10.8087 10.7759 10.8086 10.9038ZM16.3548 13.7585L14.5586 16.1538H16.0586C16.2575 16.1538 16.4483 16.2328 16.5889 16.3735C16.7296 16.5141 16.8086 16.7049 16.8086 16.9038C16.8086 17.1027 16.7296 17.2935 16.5889 17.4341C16.4483 17.5748 16.2575 17.6538 16.0586 17.6538H13.0586C12.9193 17.6538 12.7828 17.615 12.6643 17.5418C12.5458 17.4686 12.4501 17.3638 12.3878 17.2392C12.3255 17.1146 12.2991 16.9752 12.3116 16.8365C12.3241 16.6977 12.375 16.5652 12.4586 16.4538L15.1567 12.8566C15.2181 12.7749 15.2621 12.6815 15.2861 12.5822C15.3101 12.4829 15.3135 12.3797 15.2962 12.279C15.2789 12.1783 15.2411 12.0822 15.1853 11.9966C15.1295 11.911 15.0568 11.8377 14.9717 11.7812C14.8865 11.7247 14.7907 11.6862 14.6902 11.6681C14.5896 11.6499 14.4864 11.6526 14.3869 11.6757C14.2874 11.6989 14.1936 11.7422 14.1114 11.8029C14.0292 11.8636 13.9603 11.9405 13.9089 12.0288C13.8611 12.1168 13.7962 12.1944 13.7179 12.2569C13.6397 12.3194 13.5497 12.3656 13.4533 12.3928C13.3569 12.42 13.256 12.4275 13.1567 12.4151C13.0573 12.4027 12.9614 12.3704 12.8747 12.3204C12.788 12.2703 12.7121 12.2033 12.6517 12.1234C12.5913 12.0436 12.5475 11.9524 12.5228 11.8553C12.4982 11.7582 12.4933 11.6572 12.5083 11.5582C12.5234 11.4592 12.5581 11.3642 12.6105 11.2788C12.8582 10.8501 13.2405 10.515 13.698 10.3257C14.1555 10.1363 14.6627 10.1031 15.141 10.2312C15.6193 10.3594 16.0419 10.6418 16.3434 11.0346C16.6449 11.4274 16.8084 11.9086 16.8086 12.4038C16.8102 12.8929 16.6507 13.369 16.3548 13.7585Z" fill="white"/>
</svg>
