<svg width="33" height="27" viewBox="0 0 33 27" fill="none" xmlns="http://www.w3.org/2000/svg">
<path d="M26.2387 20.8645C26.3345 20.9428 26.4105 21.0359 26.4624 21.1383C26.5143 21.2408 26.5409 21.3505 26.5409 21.4614C26.5409 21.5723 26.5143 21.6821 26.4624 21.7845C26.4105 21.8869 26.3345 21.98 26.2387 22.0584C26.1429 22.1368 26.0292 22.1989 25.904 22.2414C25.7788 22.2838 25.6446 22.3056 25.5091 22.3056C25.3736 22.3056 25.2394 22.2838 25.1143 22.2414C24.9891 22.1989 24.8753 22.1368 24.7795 22.0584L16.2279 15.0605L7.67623 22.0584C7.48272 22.2167 7.22027 22.3056 6.94662 22.3056C6.67296 22.3056 6.41051 22.2167 6.21701 22.0584C6.0235 21.9 5.91479 21.6853 5.91479 21.4614C5.91479 21.2375 6.0235 21.0228 6.21701 20.8645L14.7699 13.8677L6.21701 6.87086C6.0235 6.71254 5.91479 6.49781 5.91479 6.27391C5.91479 6.05001 6.0235 5.83528 6.21701 5.67695C6.41051 5.51863 6.67296 5.42969 6.94662 5.42969C7.22027 5.42969 7.48272 5.51863 7.67623 5.67695L16.2279 12.6748L24.7795 5.67695C24.973 5.51863 25.2355 5.42969 25.5091 5.42969C25.7828 5.42969 26.0452 5.51863 26.2387 5.67695C26.4322 5.83528 26.5409 6.05001 26.5409 6.27391C26.5409 6.49781 26.4322 6.71254 26.2387 6.87086L17.6858 13.8677L26.2387 20.8645Z" fill="white"/>
</svg>
