<svg width="32" height="32" viewBox="0 0 32 32" fill="none" xmlns="http://www.w3.org/2000/svg">
<path d="M27.7693 16.0186C27.7693 16.2838 27.6639 16.5381 27.4764 16.7257C27.2889 16.9132 27.0345 17.0186 26.7693 17.0186H16.7693V27.0186C16.7693 27.2838 16.6639 27.5381 16.4764 27.7257C16.2889 27.9132 16.0345 28.0186 15.7693 28.0186C15.5041 28.0186 15.2497 27.9132 15.0622 27.7257C14.8746 27.5381 14.7693 27.2838 14.7693 27.0186L14.7693 17.0186H4.76929C4.50407 17.0186 4.24972 16.9132 4.06218 16.7257C3.87464 16.5381 3.76929 16.2838 3.76929 16.0186C3.76929 15.7533 3.87464 15.499 4.06218 15.3114C4.24972 15.1239 4.50407 15.0186 4.76929 15.0186H14.7693V5.01855C14.7693 4.75334 14.8746 4.49898 15.0622 4.31145C15.2497 4.12391 15.5041 4.01855 15.7693 4.01855C16.0345 4.01855 16.2889 4.12391 16.4764 4.31145C16.6639 4.49898 16.7693 4.75334 16.7693 5.01855V15.0186L26.7693 15.0186C27.0345 15.0186 27.2889 15.1239 27.4764 15.3114C27.6639 15.499 27.7693 15.7533 27.7693 16.0186Z" fill="#161623"/>
</svg>
