<svg width="24" height="24" viewBox="0 0 24 24" fill="none" xmlns="http://www.w3.org/2000/svg">
<g clip-path="url(#clip0_0_1506)">
<g clip-path="url(#clip1_0_1506)">
<mask id="mask0_0_1506" style="mask-type:luminance" maskUnits="userSpaceOnUse" x="-4" y="0" width="33" height="24">
<path d="M26.0625 0H-1.9375C-3.04207 0 -3.9375 0.89543 -3.9375 2V22C-3.9375 23.1046 -3.04207 24 -1.9375 24H26.0625C27.1671 24 28.0625 23.1046 28.0625 22V2C28.0625 0.89543 27.1671 0 26.0625 0Z" fill="white"/>
</mask>
<g mask="url(#mask0_0_1506)">
<path d="M26.0625 0H-1.9375C-3.04207 0 -3.9375 0.89543 -3.9375 2V22C-3.9375 23.1046 -3.04207 24 -1.9375 24H26.0625C27.1671 24 28.0625 23.1046 28.0625 22V2C28.0625 0.89543 27.1671 0 26.0625 0Z" fill="#F9F9F9"/>
<path d="M28.0625 0H-3.9375V2H28.0625V0Z" fill="#BF0040"/>
<path d="M28.0625 4.40002H-3.9375V6.40002H28.0625V4.40002Z" fill="#BF0040"/>
<path d="M-3.9375 8.80005H28.0625V10.8H-3.9375V8.80005Z" fill="#BF0040"/>
<path d="M28.0625 13.2001H-3.9375V15.2001H28.0625V13.2001Z" fill="#BF0040"/>
<path d="M-3.9375 17.6001H28.0625V19.6001H-3.9375V17.6001Z" fill="#BF0040"/>
<path d="M28.0625 22.0001H-3.9375V24.0001H28.0625V22.0001Z" fill="#BF0040"/>
<path d="M-3.9375 0H13.0625V15.2031H-3.9375V0Z" fill="#4200B5"/>
<path d="M1.67418 5.84629L1.5625 5.5L1.45082 5.84629L1.08697 5.84549L1.3818 6.05871L1.26861 6.40451L1.5625 6.19L1.85639 6.40451L1.7432 6.05871L2.03803 5.84549L1.67418 5.84629Z" fill="#F9F9F9"/>
<path d="M1.5625 10L1.67418 10.3463L2.03803 10.3455L1.7432 10.5587L1.85639 10.9045L1.5625 10.69L1.26861 10.9045L1.3818 10.5587L1.08697 10.3455L1.45082 10.3463L1.5625 10Z" fill="#F9F9F9"/>
<path d="M0.179991 3.34629L0.0683107 3L-0.0433691 3.34629L-0.407219 3.34549L-0.112389 3.55871L-0.225589 3.90451L0.0683107 3.69L0.362201 3.90451L0.249011 3.55871L0.543841 3.34549L0.179991 3.34629Z" fill="#F9F9F9"/>
<path d="M0.0683107 8L0.179991 8.34629L0.543841 8.34549L0.249011 8.55871L0.362201 8.90451L0.0683107 8.69L-0.225589 8.90451L-0.112389 8.55871L-0.407219 8.34549L-0.0433691 8.34629L0.0683107 8Z" fill="#F9F9F9"/>
<path d="M0.179991 12.3463L0.0683107 12L-0.0433691 12.3463L-0.407219 12.3455L-0.112389 12.5587L-0.225589 12.9045L0.0683107 12.69L0.362201 12.9045L0.249011 12.5587L0.543841 12.3455L0.179991 12.3463Z" fill="#F9F9F9"/>
<path d="M4.5625 5.5L4.67418 5.84629L5.03803 5.84549L4.7432 6.05871L4.85639 6.40451L4.5625 6.19L4.26861 6.40451L4.3818 6.05871L4.08697 5.84549L4.45082 5.84629L4.5625 5.5Z" fill="#F9F9F9"/>
<path d="M4.67418 10.3463L4.5625 10L4.45082 10.3463L4.08697 10.3455L4.3818 10.5587L4.26861 10.9045L4.5625 10.69L4.85639 10.9045L4.7432 10.5587L5.03803 10.3455L4.67418 10.3463Z" fill="#F9F9F9"/>
<path d="M3.06831 3L3.17999 3.34629L3.54384 3.34549L3.24901 3.55871L3.3622 3.90451L3.06831 3.69L2.77442 3.90451L2.88761 3.55871L2.59278 3.34549L2.95663 3.34629L3.06831 3Z" fill="#F9F9F9"/>
<path d="M3.17999 8.34629L3.06831 8L2.95663 8.34629L2.59278 8.34549L2.88761 8.55871L2.77442 8.90451L3.06831 8.69L3.3622 8.90451L3.24901 8.55871L3.54384 8.34549L3.17999 8.34629Z" fill="#F9F9F9"/>
<path d="M3.06831 12L3.17999 12.3463L3.54384 12.3455L3.24901 12.5587L3.3622 12.9045L3.06831 12.69L2.77442 12.9045L2.88761 12.5587L2.59278 12.3455L2.95663 12.3463L3.06831 12Z" fill="#F9F9F9"/>
<path d="M7.6742 5.84629L7.5625 5.5L7.4508 5.84629L7.087 5.84549L7.3818 6.05871L7.2686 6.40451L7.5625 6.19L7.8564 6.40451L7.7432 6.05871L8.038 5.84549L7.6742 5.84629Z" fill="#F9F9F9"/>
<path d="M7.5625 10L7.6742 10.3463L8.038 10.3455L7.7432 10.5587L7.8564 10.9045L7.5625 10.69L7.2686 10.9045L7.3818 10.5587L7.087 10.3455L7.4508 10.3463L7.5625 10Z" fill="#F9F9F9"/>
<path d="M6.18 3.34629L6.0683 3L5.95663 3.34629L5.59278 3.34549L5.88761 3.55871L5.77441 3.90451L6.0683 3.69L6.3622 3.90451L6.249 3.55871L6.5438 3.34549L6.18 3.34629Z" fill="#F9F9F9"/>
<path d="M6.0683 8L6.18 8.34629L6.5438 8.34549L6.249 8.55871L6.3622 8.90451L6.0683 8.69L5.77441 8.90451L5.88761 8.55871L5.59278 8.34549L5.95663 8.34629L6.0683 8Z" fill="#F9F9F9"/>
<path d="M6.18 12.3463L6.0683 12L5.95663 12.3463L5.59278 12.3455L5.88761 12.5587L5.77441 12.9045L6.0683 12.69L6.3622 12.9045L6.249 12.5587L6.5438 12.3455L6.18 12.3463Z" fill="#F9F9F9"/>
<path d="M10.5625 5.5L10.6742 5.84629L11.038 5.84549L10.7432 6.05871L10.8564 6.40451L10.5625 6.19L10.2686 6.40451L10.3818 6.05871L10.087 5.84549L10.4508 5.84629L10.5625 5.5Z" fill="#F9F9F9"/>
<path d="M10.6742 10.3463L10.5625 10L10.4508 10.3463L10.087 10.3455L10.3818 10.5587L10.2686 10.9045L10.5625 10.69L10.8564 10.9045L10.7432 10.5587L11.038 10.3455L10.6742 10.3463Z" fill="#F9F9F9"/>
<path d="M9.0683 3L9.18 3.34629L9.5438 3.34549L9.249 3.55871L9.3622 3.90451L9.0683 3.69L8.7744 3.90451L8.8876 3.55871L8.5928 3.34549L8.9566 3.34629L9.0683 3Z" fill="#F9F9F9"/>
<path d="M9.18 8.34629L9.0683 8L8.9566 8.34629L8.5928 8.34549L8.8876 8.55871L8.7744 8.90451L9.0683 8.69L9.3622 8.90451L9.249 8.55871L9.5438 8.34549L9.18 8.34629Z" fill="#F9F9F9"/>
<path d="M9.0683 12L9.18 12.3463L9.5438 12.3455L9.249 12.5587L9.3622 12.9045L9.0683 12.69L8.7744 12.9045L8.8876 12.5587L8.5928 12.3455L8.9566 12.3463L9.0683 12Z" fill="#F9F9F9"/>
<path d="M1.5625 1L1.67418 1.34629L2.03803 1.34549L1.7432 1.55871L1.85639 1.90451L1.5625 1.69L1.26861 1.90451L1.3818 1.55871L1.08697 1.34549L1.45082 1.34629L1.5625 1Z" fill="#F9F9F9"/>
<path d="M4.67418 1.34629L4.5625 1L4.45082 1.34629L4.08697 1.34549L4.3818 1.55871L4.26861 1.90451L4.5625 1.69L4.85639 1.90451L4.7432 1.55871L5.03803 1.34549L4.67418 1.34629Z" fill="#F9F9F9"/>
<path d="M7.5625 1L7.6742 1.34629L8.038 1.34549L7.7432 1.55871L7.8564 1.90451L7.5625 1.69L7.2686 1.90451L7.3818 1.55871L7.087 1.34549L7.4508 1.34629L7.5625 1Z" fill="#F9F9F9"/>
<path d="M10.6742 1.34629L10.5625 1L10.4508 1.34629L10.087 1.34549L10.3818 1.55871L10.2686 1.90451L10.5625 1.69L10.8564 1.90451L10.7432 1.55871L11.038 1.34549L10.6742 1.34629Z" fill="#F9F9F9"/>
</g>
</g>
</g>
<defs>
<clipPath id="clip0_0_1506">
<path d="M0 12C0 5.37258 5.37258 0 12 0C18.6274 0 24 5.37258 24 12C24 18.6274 18.6274 24 12 24C5.37258 24 0 18.6274 0 12Z" fill="white"/>
</clipPath>
<clipPath id="clip1_0_1506">
<rect width="32" height="24" fill="white" transform="translate(-3.9375)"/>
</clipPath>
</defs>
</svg>
