<svg width="16" height="16" viewBox="0 0 16 16" fill="none" xmlns="http://www.w3.org/2000/svg">
<path d="M1.37891 6.55633H2.87891V10.5563H1.87891C1.7463 10.5563 1.61912 10.609 1.52535 10.7028C1.43158 10.7965 1.37891 10.9237 1.37891 11.0563C1.37891 11.1889 1.43158 11.3161 1.52535 11.4099C1.61912 11.5037 1.7463 11.5563 1.87891 11.5563H13.8789C14.0115 11.5563 14.1387 11.5037 14.2325 11.4099C14.3262 11.3161 14.3789 11.1889 14.3789 11.0563C14.3789 10.9237 14.3262 10.7965 14.2325 10.7028C14.1387 10.609 14.0115 10.5563 13.8789 10.5563H12.8789V6.55633H14.3789C14.4877 6.55622 14.5935 6.52063 14.6802 6.45496C14.767 6.38929 14.8299 6.29713 14.8595 6.19245C14.8891 6.08776 14.8838 5.97628 14.8443 5.8749C14.8049 5.77353 14.7334 5.68779 14.6408 5.6307L8.14078 1.6307C8.06202 1.58228 7.97137 1.55664 7.87891 1.55664C7.78645 1.55664 7.6958 1.58228 7.61703 1.6307L1.11703 5.6307C1.02442 5.68779 0.952962 5.77353 0.913488 5.8749C0.874013 5.97628 0.868679 6.08776 0.898295 6.19245C0.927911 6.29713 0.990861 6.38929 1.0776 6.45496C1.16433 6.52063 1.27012 6.55622 1.37891 6.55633ZM3.87891 6.55633H5.87891V10.5563H3.87891V6.55633ZM8.87891 6.55633V10.5563H6.87891V6.55633H8.87891ZM11.8789 10.5563H9.87891V6.55633H11.8789V10.5563ZM7.87891 2.6432L12.6127 5.55633H3.14516L7.87891 2.6432ZM15.3789 13.0563C15.3789 13.1889 15.3262 13.3161 15.2325 13.4099C15.1387 13.5037 15.0115 13.5563 14.8789 13.5563H0.878906C0.746298 13.5563 0.619121 13.5037 0.525353 13.4099C0.431585 13.3161 0.378906 13.1889 0.378906 13.0563C0.378906 12.9237 0.431585 12.7965 0.525353 12.7028C0.619121 12.609 0.746298 12.5563 0.878906 12.5563H14.8789C15.0115 12.5563 15.1387 12.609 15.2325 12.7028C15.3262 12.7965 15.3789 12.9237 15.3789 13.0563Z" fill="white"/>
</svg>
