<svg width="33" height="27" viewBox="0 0 33 27" fill="none" xmlns="http://www.w3.org/2000/svg">
<path d="M13.4062 4.21875H7.21875C6.67174 4.21875 6.14714 4.39654 5.76034 4.71301C5.37355 5.02947 5.15625 5.4587 5.15625 5.90625V10.9688C5.15625 11.4163 5.37355 11.8455 5.76034 12.162C6.14714 12.4785 6.67174 12.6562 7.21875 12.6562H13.4062C13.9533 12.6562 14.4779 12.4785 14.8647 12.162C15.2515 11.8455 15.4688 11.4163 15.4688 10.9688V5.90625C15.4688 5.4587 15.2515 5.02947 14.8647 4.71301C14.4779 4.39654 13.9533 4.21875 13.4062 4.21875ZM13.4062 10.9688H7.21875V5.90625H13.4062V10.9688ZM13.4062 14.3438H7.21875C6.67174 14.3438 6.14714 14.5215 5.76034 14.838C5.37355 15.1545 5.15625 15.5837 5.15625 16.0312V21.0938C5.15625 21.5413 5.37355 21.9705 5.76034 22.287C6.14714 22.6035 6.67174 22.7812 7.21875 22.7812H13.4062C13.9533 22.7812 14.4779 22.6035 14.8647 22.287C15.2515 21.9705 15.4688 21.5413 15.4688 21.0938V16.0312C15.4688 15.5837 15.2515 15.1545 14.8647 14.838C14.4779 14.5215 13.9533 14.3438 13.4062 14.3438ZM13.4062 21.0938H7.21875V16.0312H13.4062V21.0938ZM25.7812 4.21875H19.5938C19.0467 4.21875 18.5221 4.39654 18.1353 4.71301C17.7485 5.02947 17.5312 5.4587 17.5312 5.90625V10.9688C17.5312 11.4163 17.7485 11.8455 18.1353 12.162C18.5221 12.4785 19.0467 12.6562 19.5938 12.6562H25.7812C26.3283 12.6562 26.8529 12.4785 27.2397 12.162C27.6265 11.8455 27.8438 11.4163 27.8438 10.9688V5.90625C27.8438 5.4587 27.6265 5.02947 27.2397 4.71301C26.8529 4.39654 26.3283 4.21875 25.7812 4.21875ZM25.7812 10.9688H19.5938V5.90625H25.7812V10.9688ZM17.5312 18.5625V15.1875C17.5312 14.9637 17.6399 14.7491 17.8333 14.5909C18.0267 14.4326 18.289 14.3438 18.5625 14.3438C18.836 14.3438 19.0983 14.4326 19.2917 14.5909C19.4851 14.7491 19.5938 14.9637 19.5938 15.1875V18.5625C19.5938 18.7863 19.4851 19.0009 19.2917 19.1591C19.0983 19.3174 18.836 19.4062 18.5625 19.4062C18.289 19.4062 18.0267 19.3174 17.8333 19.1591C17.6399 19.0009 17.5312 18.7863 17.5312 18.5625ZM27.8438 16.875C27.8438 17.0988 27.7351 17.3134 27.5417 17.4716C27.3483 17.6299 27.086 17.7188 26.8125 17.7188H23.7188V21.9375C23.7188 22.1613 23.6101 22.3759 23.4167 22.5341C23.2233 22.6924 22.961 22.7812 22.6875 22.7812H18.5625C18.289 22.7812 18.0267 22.6924 17.8333 22.5341C17.6399 22.3759 17.5312 22.1613 17.5312 21.9375C17.5312 21.7137 17.6399 21.4991 17.8333 21.3409C18.0267 21.1826 18.289 21.0938 18.5625 21.0938H21.6562V15.1875C21.6562 14.9637 21.7649 14.7491 21.9583 14.5909C22.1517 14.4326 22.414 14.3438 22.6875 14.3438C22.961 14.3438 23.2233 14.4326 23.4167 14.5909C23.6101 14.7491 23.7188 14.9637 23.7188 15.1875V16.0312H26.8125C27.086 16.0312 27.3483 16.1201 27.5417 16.2784C27.7351 16.4366 27.8438 16.6512 27.8438 16.875ZM27.8438 20.25V21.9375C27.8438 22.1613 27.7351 22.3759 27.5417 22.5341C27.3483 22.6924 27.086 22.7812 26.8125 22.7812C26.539 22.7812 26.2767 22.6924 26.0833 22.5341C25.8899 22.3759 25.7812 22.1613 25.7812 21.9375V20.25C25.7812 20.0262 25.8899 19.8116 26.0833 19.6534C26.2767 19.4951 26.539 19.4062 26.8125 19.4062C27.086 19.4062 27.3483 19.4951 27.5417 19.6534C27.7351 19.8116 27.8438 20.0262 27.8438 20.25Z" fill="white"/>
</svg>
