<svg width="32" height="32" viewBox="0 0 32 32" fill="none" xmlns="http://www.w3.org/2000/svg">
<g opacity="0.5">
<path d="M10.1537 4.70923C9.16478 4.70923 8.19808 5.00248 7.37584 5.55188C6.55359 6.10129 5.91273 6.88218 5.53429 7.79581C5.15585 8.70944 5.05684 9.71478 5.24976 10.6847C5.44269 11.6546 5.91889 12.5455 6.61815 13.2448C7.31742 13.944 8.20833 14.4202 9.17824 14.6132C10.1481 14.8061 11.1535 14.7071 12.0671 14.3286C12.9807 13.9502 13.7616 13.3093 14.311 12.4871C14.8604 11.6648 15.1537 10.6981 15.1537 9.70923C15.1537 8.38315 14.6269 7.11138 13.6892 6.1737C12.7515 5.23601 11.4798 4.70923 10.1537 4.70923ZM10.1537 12.7092C9.56034 12.7092 8.98033 12.5333 8.48698 12.2036C7.99363 11.874 7.60911 11.4055 7.38205 10.8573C7.15499 10.3091 7.09558 9.7059 7.21133 9.12396C7.32709 8.54202 7.61281 8.00747 8.03237 7.58791C8.45193 7.16835 8.98647 6.88263 9.56842 6.76688C10.1504 6.65112 10.7536 6.71053 11.3017 6.93759C11.8499 7.16466 12.3185 7.54917 12.6481 8.04252C12.9777 8.53587 13.1537 9.11589 13.1537 9.70923C13.1537 10.5049 12.8376 11.2679 12.275 11.8306C11.7124 12.3932 10.9493 12.7092 10.1537 12.7092ZM22.1537 14.7092C23.1426 14.7092 24.1093 14.416 24.9315 13.8666C25.7538 13.3172 26.3946 12.5363 26.7731 11.6226C27.1515 10.709 27.2505 9.70368 27.0576 8.73378C26.8647 7.76387 26.3885 6.87296 25.6892 6.1737C24.99 5.47443 24.099 4.99823 23.1291 4.8053C22.1592 4.61238 21.1539 4.71139 20.2403 5.08983C19.3266 5.46827 18.5457 6.10913 17.9963 6.93138C17.4469 7.75363 17.1537 8.72032 17.1537 9.70923C17.1537 11.0353 17.6805 12.3071 18.6182 13.2448C19.5558 14.1824 20.8276 14.7092 22.1537 14.7092ZM22.1537 6.70923C22.747 6.70923 23.3271 6.88518 23.8204 7.21482C24.3137 7.54447 24.6983 8.013 24.9253 8.56118C25.1524 9.10936 25.2118 9.71256 25.096 10.2945C24.9803 10.8764 24.6946 11.411 24.275 11.8306C23.8555 12.2501 23.3209 12.5358 22.739 12.6516C22.157 12.7673 21.5538 12.7079 21.0056 12.4809C20.4575 12.2538 19.9889 11.8693 19.6593 11.3759C19.3296 10.8826 19.1537 10.3026 19.1537 9.70923C19.1537 8.91358 19.4698 8.15052 20.0324 7.58791C20.595 7.0253 21.358 6.70923 22.1537 6.70923ZM10.1537 16.7092C9.16478 16.7092 8.19808 17.0025 7.37584 17.5519C6.55359 18.1013 5.91273 18.8822 5.53429 19.7958C5.15585 20.7094 5.05684 21.7148 5.24976 22.6847C5.44269 23.6546 5.91889 24.5455 6.61815 25.2448C7.31742 25.944 8.20833 26.4202 9.17824 26.6132C10.1481 26.8061 11.1535 26.7071 12.0671 26.3286C12.9807 25.9502 13.7616 25.3093 14.311 24.4871C14.8604 23.6648 15.1537 22.6981 15.1537 21.7092C15.1537 20.3831 14.6269 19.1114 13.6892 18.1737C12.7515 17.236 11.4798 16.7092 10.1537 16.7092ZM10.1537 24.7092C9.56034 24.7092 8.98033 24.5333 8.48698 24.2036C7.99363 23.874 7.60911 23.4055 7.38205 22.8573C7.15499 22.3091 7.09558 21.7059 7.21133 21.124C7.32709 20.542 7.61281 20.0075 8.03237 19.5879C8.45193 19.1684 8.98647 18.8826 9.56842 18.7669C10.1504 18.6511 10.7536 18.7105 11.3017 18.9376C11.8499 19.1647 12.3185 19.5492 12.6481 20.0425C12.9777 20.5359 13.1537 21.1159 13.1537 21.7092C13.1537 22.5049 12.8376 23.2679 12.275 23.8306C11.7124 24.3932 10.9493 24.7092 10.1537 24.7092ZM22.1537 16.7092C21.1648 16.7092 20.1981 17.0025 19.3758 17.5519C18.5536 18.1013 17.9127 18.8822 17.5343 19.7958C17.1559 20.7094 17.0568 21.7148 17.2498 22.6847C17.4427 23.6546 17.9189 24.5455 18.6182 25.2448C19.3174 25.944 20.2083 26.4202 21.1782 26.6132C22.1481 26.8061 23.1535 26.7071 24.0671 26.3286C24.9807 25.9502 25.7616 25.3093 26.311 24.4871C26.8604 23.6648 27.1537 22.6981 27.1537 21.7092C27.1537 20.3831 26.6269 19.1114 25.6892 18.1737C24.7515 17.236 23.4798 16.7092 22.1537 16.7092ZM22.1537 24.7092C21.5603 24.7092 20.9803 24.5333 20.487 24.2036C19.9936 23.874 19.6091 23.4055 19.382 22.8573C19.155 22.3091 19.0956 21.7059 19.2113 21.124C19.3271 20.542 19.6128 20.0075 20.0324 19.5879C20.4519 19.1684 20.9865 18.8826 21.5684 18.7669C22.1504 18.6511 22.7536 18.7105 23.3017 18.9376C23.8499 19.1647 24.3185 19.5492 24.6481 20.0425C24.9777 20.5359 25.1537 21.1159 25.1537 21.7092C25.1537 22.5049 24.8376 23.2679 24.275 23.8306C23.7124 24.3932 22.9493 24.7092 22.1537 24.7092Z" fill="white"/>
</g>
</svg>
