<svg width="40" height="16" viewBox="0 0 40 16" fill="none" xmlns="http://www.w3.org/2000/svg">
<g clip-path="url(#clip0_0_2977)">
<path d="M7.22194 2.0628C6.75871 2.60324 6.01753 3.0295 5.27635 2.9686C5.18371 2.23787 5.54657 1.46147 5.97121 0.981922C6.43444 0.426261 7.2451 0.0304472 7.90135 0C7.97856 0.76118 7.67746 1.50714 7.22194 2.0628ZM7.89363 3.11323C6.82047 3.05233 5.90172 3.71456 5.39216 3.71456C4.87488 3.71456 4.0951 3.14367 3.24584 3.1589C2.14179 3.17412 1.11496 3.79068 0.551354 4.7726C-0.606734 6.73644 0.250251 9.64415 1.36974 11.2426C1.9179 12.0343 2.57415 12.902 3.43885 12.8716C4.25724 12.8411 4.5815 12.3463 5.56974 12.3463C6.56569 12.3463 6.85135 12.8716 7.71606 12.8563C8.61165 12.8411 9.17525 12.0647 9.72341 11.2731C10.3488 10.3749 10.6036 9.49952 10.619 9.45385C10.6036 9.43863 8.88959 8.79163 8.87415 6.84301C8.85871 5.21408 10.2253 4.43768 10.287 4.39201C9.51496 3.26546 8.31054 3.14367 7.89363 3.11323ZM14.0933 0.905804V12.7726H15.9616V8.71551H18.548C20.9105 8.71551 22.5705 7.11703 22.5705 4.80304C22.5705 2.48906 20.9414 0.905804 18.6098 0.905804H14.0933ZM15.9616 2.45861H18.1157C19.737 2.45861 20.6635 3.31113 20.6635 4.81066C20.6635 6.31018 19.737 7.17031 18.108 7.17031H15.9616V2.45861ZM25.983 12.8639C27.1565 12.8639 28.2451 12.2778 28.7392 11.3492H28.7778V12.7726H30.5072V6.86584C30.5072 5.15319 29.1175 4.04948 26.9789 4.04948C24.9947 4.04948 23.5278 5.16841 23.4738 6.70599H25.1569C25.2958 5.97526 25.983 5.49572 26.9249 5.49572C28.0675 5.49572 28.7083 6.02093 28.7083 6.98763V7.64225L26.3767 7.77926C24.2072 7.90866 23.0337 8.78401 23.0337 10.3064C23.0337 11.844 24.2458 12.8639 25.983 12.8639ZM26.4848 11.4558C25.4889 11.4558 24.8558 10.9838 24.8558 10.2607C24.8558 9.51475 25.4657 9.08088 26.6315 9.01237L28.7083 8.88297V9.55281C28.7083 10.6641 27.751 11.4558 26.4848 11.4558ZM32.8157 16C34.6378 16 35.4947 15.3149 36.2436 13.2369L39.5249 4.16365H37.6256L35.4253 11.1741H35.3866L33.1863 4.16365H31.233L34.3984 12.803L34.2286 13.3283C33.9429 14.2188 33.4797 14.5614 32.6536 14.5614C32.5069 14.5614 32.2212 14.5461 32.1054 14.5309V15.9543C32.2135 15.9848 32.6767 16 32.8157 16Z" fill="white"/>
</g>
<defs>
<clipPath id="clip0_0_2977">
<rect width="39.5249" height="16" fill="white"/>
</clipPath>
</defs>
</svg>
