<svg width="33" height="27" viewBox="0 0 33 27" fill="none" xmlns="http://www.w3.org/2000/svg">
<path d="M22.9604 24.117C22.9604 24.3407 22.8517 24.5553 22.6583 24.7136C22.4649 24.8718 22.2026 24.9607 21.9291 24.9607H11.6166C11.3431 24.9607 11.0808 24.8718 10.8874 24.7136C10.694 24.5553 10.5854 24.3407 10.5854 24.117C10.5854 23.8932 10.694 23.6786 10.8874 23.5203C11.0808 23.3621 11.3431 23.2732 11.6166 23.2732H21.9291C22.2026 23.2732 22.4649 23.3621 22.6583 23.5203C22.8517 23.6786 22.9604 23.8932 22.9604 24.117ZM28.1166 10.617C28.1211 12.0235 27.7327 13.4123 26.9812 14.6774C26.2296 15.9425 25.1348 17.0503 23.7802 17.9164C23.5269 18.0753 23.3214 18.2794 23.1793 18.5132C23.0372 18.747 22.9623 19.0043 22.9604 19.2654V19.8982C22.9604 20.3458 22.7431 20.775 22.3563 21.0914C21.9695 21.4079 21.4449 21.5857 20.8979 21.5857H12.6479C12.1009 21.5857 11.5763 21.4079 11.1895 21.0914C10.8027 20.775 10.5854 20.3458 10.5854 19.8982V19.2654C10.5852 19.0074 10.5127 18.7529 10.3734 18.5214C10.2342 18.29 10.032 18.0877 9.78229 17.9302C8.43126 17.0693 7.33727 15.9682 6.58309 14.7104C5.82891 13.4525 5.4343 12.0707 5.42912 10.6697C5.39561 5.64199 10.3611 1.45699 16.4996 1.3357C18.0121 1.30588 19.5166 1.52391 20.9246 1.97697C22.3326 2.43003 23.6156 3.10895 24.6981 3.97378C25.7806 4.83861 26.6407 5.87188 27.2278 7.01276C27.8148 8.15363 28.1171 9.37908 28.1166 10.617ZM26.0541 10.617C26.0545 9.60409 25.8072 8.60141 25.3268 7.66793C24.8464 6.73444 24.1426 5.88902 23.2569 5.18142C22.3712 4.47382 21.3213 3.91835 20.1693 3.54771C19.0172 3.17706 17.7862 2.99872 16.5486 3.0232C11.5212 3.12023 7.46455 6.5448 7.49162 10.6581C7.49624 11.8041 7.81942 12.9343 8.4367 13.963C9.05399 14.9917 9.9492 15.8921 11.0546 16.596C11.5515 16.912 11.9533 17.3169 12.2295 17.7795C12.5057 18.2422 12.6488 18.7505 12.6479 19.2654V19.8982H15.7416V15.1848L11.9183 12.0577C11.7248 11.8993 11.6161 11.6846 11.6161 11.4607C11.6161 11.2368 11.7248 11.0221 11.9183 10.8637C12.1118 10.7054 12.3742 10.6165 12.6479 10.6165C12.9215 10.6165 13.184 10.7054 13.3775 10.8637L16.7729 13.6429L20.1683 10.8637C20.2641 10.7854 20.3778 10.7232 20.503 10.6807C20.6282 10.6383 20.7624 10.6165 20.8979 10.6165C21.0334 10.6165 21.1675 10.6383 21.2927 10.6807C21.4179 10.7232 21.5317 10.7854 21.6275 10.8637C21.7233 10.9421 21.7993 11.0352 21.8512 11.1376C21.903 11.2401 21.9297 11.3498 21.9297 11.4607C21.9297 11.5716 21.903 11.6813 21.8512 11.7838C21.7993 11.8862 21.7233 11.9793 21.6275 12.0577L17.8041 15.1848V19.8982H20.8979V19.2654C20.899 18.749 21.0444 18.2396 21.323 17.7762C21.6017 17.3128 22.006 16.9077 22.5053 16.5918C23.6141 15.8828 24.5101 14.976 25.1252 13.9405C25.7402 12.905 26.058 11.7682 26.0541 10.617Z" fill="white"/>
</svg>
