<svg width="26" height="16" viewBox="0 0 26 16" fill="none" xmlns="http://www.w3.org/2000/svg">
<path fill-rule="evenodd" clip-rule="evenodd" d="M12.2356 14.5022C12.277 14.5378 12.3205 14.5733 12.364 14.6089C12.3857 14.6267 12.4074 14.6444 12.4289 14.6622C11.16 15.5067 9.63778 16 8 16C3.58222 16 0 12.4178 0 8C0 3.58222 3.58222 0 8 0C9.63778 0 11.16 0.493333 12.4289 1.33778C12.4074 1.35556 12.3857 1.37309 12.364 1.39062C12.3205 1.42568 12.277 1.46074 12.2356 1.49778C10.3511 3.13778 9.26889 5.50889 9.26889 8C9.26889 10.4911 10.3489 12.8622 12.2356 14.5022ZM17.8889 0C16.2511 0 14.7289 0.493333 13.46 1.33778C13.4815 1.35555 13.5032 1.37308 13.525 1.39061C13.5684 1.42568 13.6119 1.46074 13.6534 1.49778C15.5378 3.13778 16.62 5.50667 16.62 8C16.62 10.4933 15.54 12.8622 13.6556 14.5022C13.6141 14.5378 13.5706 14.5733 13.5272 14.6089C13.5054 14.6267 13.4837 14.6444 13.4622 14.6622C14.7311 15.5067 16.2534 16 17.8911 16C22.3089 16 25.8911 12.4178 25.8911 8C25.8911 3.58222 22.3067 0 17.8889 0ZM12.6422 1.96446C12.74 1.87779 12.8422 1.79335 12.9445 1.71335C13.0467 1.79557 13.1489 1.87779 13.2467 1.96446C14.9334 3.43113 16 5.59113 16 8.00002C16 10.4089 14.9334 12.5689 13.2467 14.0356C13.1489 14.1222 13.0467 14.2045 12.9445 14.2867C12.8422 14.2045 12.74 14.1222 12.6422 14.0356C10.9556 12.5689 9.88892 10.4089 9.88892 8.00002C9.88892 5.59113 10.9556 3.43113 12.6422 1.96446Z" fill="white"/>
</svg>
