<svg width="33" height="27" viewBox="0 0 33 27" fill="none" xmlns="http://www.w3.org/2000/svg">
<path d="M28.6371 13.5156C28.6371 13.7394 28.5284 13.954 28.335 14.1122C28.1416 14.2705 27.8793 14.3594 27.6058 14.3594H17.2933V22.7969C17.2933 23.0207 17.1847 23.2353 16.9913 23.3935C16.7979 23.5517 16.5356 23.6406 16.2621 23.6406C15.9886 23.6406 15.7263 23.5517 15.5329 23.3935C15.3395 23.2353 15.2308 23.0207 15.2308 22.7969V14.3594H4.91833C4.64483 14.3594 4.38253 14.2705 4.18913 14.1122C3.99573 13.954 3.88708 13.7394 3.88708 13.5156C3.88708 13.2918 3.99573 13.0772 4.18913 12.919C4.38253 12.7608 4.64483 12.6719 4.91833 12.6719H15.2308V4.23438C15.2308 4.0106 15.3395 3.79599 15.5329 3.63775C15.7263 3.47952 15.9886 3.39062 16.2621 3.39062C16.5356 3.39062 16.7979 3.47952 16.9913 3.63775C17.1847 3.79599 17.2933 4.0106 17.2933 4.23438V12.6719H27.6058C27.8793 12.6719 28.1416 12.7608 28.335 12.919C28.5284 13.0772 28.6371 13.2918 28.6371 13.5156Z" fill="#E2F75F"/>
</svg>
