<svg width="32" height="6" viewBox="0 0 32 6" fill="none" xmlns="http://www.w3.org/2000/svg">
<path d="M27.8105 3.6014L32 0.0104442H28.9687L26.2949 2.30229L24.1644 0.476165C23.4495 -0.136627 22.2913 -0.136627 21.5764 0.476165L19.4316 2.30229L17.3012 0.476165C16.7721 0.0226985 15.9857 -0.112114 15.2994 0.133003C14.613 0.378119 14.1698 0.941886 14.1698 1.57919V3.66268L10.4379 0.463912C9.90885 0.0104457 9.12243 -0.124371 8.4361 0.120746C7.74978 0.365863 7.30652 0.929634 7.30652 1.56694V3.65043L3.03128 0.0104442H0L6.31993 5.42753C6.84897 5.88099 7.63539 6.0158 8.32171 5.77069C9.00804 5.52557 9.4513 4.9618 9.4513 4.3245V2.24101L13.1832 5.43978C13.7122 5.89324 14.4987 6.02806 15.185 5.78294C15.8713 5.53782 16.3146 4.97406 16.3146 4.33675V2.25326L20.5898 5.91776H23.6211L20.9473 3.62592L22.8633 1.98363L27.4531 5.91776H30.4844L27.8105 3.6014Z" fill="#0D0C12" fill-opacity="0.2"/>
</svg>
