<svg width="33" height="27" viewBox="0 0 33 27" fill="none" xmlns="http://www.w3.org/2000/svg">
<path d="M30.1415 18.4125C30.2374 18.4909 30.3134 18.584 30.3653 18.6864C30.4172 18.7888 30.4439 18.8986 30.4439 19.0095C30.4439 19.1204 30.4172 19.2302 30.3653 19.3326C30.3134 19.435 30.2374 19.5281 30.1415 19.6065L27.0477 22.1377C26.8542 22.296 26.5918 22.385 26.3181 22.385C26.0445 22.385 25.782 22.296 25.5885 22.1377C25.395 21.9794 25.2863 21.7647 25.2863 21.5408C25.2863 21.3169 25.395 21.1021 25.5885 20.9438L26.9227 19.8533H21.693C21.3651 19.8529 21.042 19.7886 20.7506 19.6658C20.4592 19.5429 20.2077 19.3649 20.0172 19.1466L10.3183 8.04075H3.63062C3.35711 8.04075 3.09481 7.95186 2.90141 7.79362C2.70801 7.63539 2.59937 7.42078 2.59937 7.197C2.59937 6.97323 2.70801 6.75862 2.90141 6.60038C3.09481 6.44215 3.35711 6.35325 3.63062 6.35325H10.3183C10.6461 6.35358 10.9692 6.41786 11.2606 6.54075C11.5521 6.66364 11.8035 6.84161 11.9941 7.05989L21.693 18.1658H26.9227L25.5885 17.0752C25.395 16.9169 25.2863 16.7022 25.2863 16.4783C25.2863 16.2544 25.395 16.0396 25.5885 15.8813C25.782 15.723 26.0445 15.634 26.3181 15.634C26.5918 15.634 26.8542 15.723 27.0477 15.8813L30.1415 18.4125ZM17.9392 10.8884C18.0494 10.9528 18.174 10.9988 18.306 11.0238C18.4379 11.0488 18.5746 11.0523 18.7082 11.0341C18.8417 11.0159 18.9696 10.9763 19.0845 10.9177C19.1994 10.859 19.2991 10.7824 19.3778 10.6922L21.6981 8.04286H26.9278L25.5885 9.1313C25.395 9.28962 25.2863 9.50435 25.2863 9.72825C25.2863 9.95215 25.395 10.1669 25.5885 10.3252C25.782 10.4835 26.0445 10.5725 26.3181 10.5725C26.5918 10.5725 26.8542 10.4835 27.0477 10.3252L30.1415 7.79396C30.2374 7.71559 30.3134 7.62254 30.3653 7.52011C30.4172 7.41768 30.4439 7.30788 30.4439 7.197C30.4439 7.08612 30.4172 6.97633 30.3653 6.8739C30.3134 6.77147 30.2374 6.67841 30.1415 6.60005L27.0477 4.0688C26.8542 3.91048 26.5918 3.82153 26.3181 3.82153C26.0445 3.82153 25.782 3.91048 25.5885 4.0688C25.395 4.22712 25.2863 4.44185 25.2863 4.66575C25.2863 4.88965 25.395 5.10438 25.5885 5.26271L26.9227 6.35325H21.693C21.3651 6.35358 21.042 6.41786 20.7506 6.54075C20.4592 6.66364 20.2077 6.84161 20.0172 7.05989L17.7007 9.70927C17.6215 9.79944 17.5649 9.90151 17.534 10.0096C17.5031 10.1178 17.4987 10.2298 17.5208 10.3393C17.543 10.4489 17.5913 10.5538 17.6631 10.648C17.7349 10.7422 17.8287 10.8239 17.9392 10.8884ZM14.072 15.3181C13.9618 15.2537 13.8372 15.2077 13.7053 15.1827C13.5733 15.1577 13.4367 15.1542 13.3031 15.1724C13.1695 15.1906 13.0416 15.2302 12.9267 15.2888C12.8118 15.3475 12.7121 15.4241 12.6334 15.5143L10.3183 18.1658H3.63062C3.35711 18.1658 3.09481 18.2546 2.90141 18.4129C2.70801 18.5711 2.59937 18.7857 2.59937 19.0095C2.59937 19.2333 2.70801 19.4479 2.90141 19.6061C3.09481 19.7644 3.35711 19.8533 3.63062 19.8533H10.3183C10.6461 19.8529 10.9692 19.7886 11.2606 19.6658C11.5521 19.5429 11.8035 19.3649 11.9941 19.1466L14.3079 16.4972C14.3872 16.4072 14.4441 16.3052 14.4751 16.1972C14.5062 16.0891 14.5109 15.9772 14.489 15.8676C14.4671 15.7581 14.419 15.6532 14.3474 15.5589C14.2759 15.4646 14.1823 15.3828 14.072 15.3181Z" fill="white"/>
</svg>
