<svg width="266" height="286" viewBox="0 0 266 286" fill="none" xmlns="http://www.w3.org/2000/svg">
<path d="M0.0161209 116.987C10.2084 116.987 10.2084 87.2577 20.4007 87.2577C30.593 87.2577 30.593 176.447 40.7854 176.447C50.9777 176.447 50.9777 64.9604 61.17 64.9604C71.3623 64.9604 71.3623 79.8253 81.5546 79.8253C91.7469 79.8253 91.7469 206.177 101.939 206.177C112.132 206.177 112.132 280.501 122.324 280.501C132.516 280.501 132.516 243.339 142.708 243.339C152.901 243.339 152.901 5.50098 163.093 5.50098C173.285 5.50098 173.285 154.15 183.478 154.15C193.67 154.15 193.67 228.474 203.862 228.474C214.055 228.474 214.055 191.312 224.247 191.312C234.439 191.312 234.439 50.0956 244.632 50.0956C254.824 50.0956 254.824 42.6631 265.016 42.6631M265.016 42.6631V42.6631Z" stroke="#4200B5" stroke-width="3"/>
<path d="M0.0161209 284.5C16.5786 284.5 16.5786 1.5 33.1411 1.5C49.7036 1.5 49.7036 174.952 66.2661 174.952C82.8286 174.952 82.8286 47.1452 99.3911 47.1452C115.954 47.1452 115.954 83.6613 132.516 83.6613C149.079 83.6613 149.079 220.597 165.641 220.597C182.204 220.597 182.204 238.855 198.766 238.855C215.329 238.855 215.329 193.21 231.891 193.21C248.454 193.21 248.454 129.306 265.016 129.306M265.016 129.306V129.306Z" stroke="#E2F75F" stroke-width="3"/>
</svg>
