<svg width="24" height="24" viewBox="0 0 24 24" fill="none" xmlns="http://www.w3.org/2000/svg">
<g opacity="0.5">
<path d="M10.042 21.0354C9.94639 21.0589 9.84703 21.0634 9.74965 21.0485C9.65226 21.0336 9.55877 20.9997 9.47449 20.9487C9.39022 20.8977 9.31682 20.8306 9.2585 20.7512C9.20017 20.6718 9.15805 20.5817 9.13455 20.486L8.57205 18.176L6.31174 18.7817C6.21657 18.8072 6.1173 18.8137 6.01962 18.8008C5.92193 18.788 5.82774 18.756 5.74242 18.7067C5.6571 18.6574 5.58232 18.5918 5.52236 18.5136C5.46241 18.4355 5.41844 18.3462 5.39299 18.251C5.37478 18.1879 5.3647 18.1227 5.36299 18.057C5.36314 17.892 5.4177 17.7317 5.5182 17.6008C5.61871 17.47 5.75955 17.3759 5.91892 17.3332L8.61892 16.6095L10.8136 12.807L6.4233 12.807L4.39361 14.8376C4.32393 14.9073 4.2412 14.9626 4.15016 15.0003C4.05911 15.038 3.96153 15.0574 3.86299 15.0574C3.76444 15.0574 3.66686 15.038 3.57581 15.0003C3.48477 14.9626 3.40204 14.9073 3.33236 14.8376C3.26268 14.7679 3.2074 14.6852 3.16969 14.5941C3.13198 14.5031 3.11257 14.4055 3.11257 14.307C3.11257 14.2084 3.13198 14.1108 3.16969 14.0198C3.2074 13.9288 3.26268 13.846 3.33236 13.7763L5.05267 12.057L3.33236 10.3376C3.26268 10.2679 3.2074 10.1852 3.16969 10.0941C3.13198 10.0031 3.11257 9.90552 3.11257 9.80697C3.11257 9.70843 3.13198 9.61084 3.16969 9.5198C3.2074 9.42875 3.26268 9.34603 3.33236 9.27635C3.40204 9.20666 3.48477 9.15139 3.57581 9.11368C3.66686 9.07596 3.76444 9.05655 3.86299 9.05655C3.96153 9.05655 4.05911 9.07596 4.15016 9.11368C4.2412 9.15139 4.32393 9.20666 4.39361 9.27635L6.4233 11.307L10.8136 11.307L8.61892 7.50541L5.91892 6.78166C5.7594 6.73893 5.61844 6.64474 5.51792 6.5137C5.4174 6.38267 5.36294 6.22212 5.36299 6.05697C5.36309 5.99116 5.3716 5.92563 5.3883 5.86197C5.41376 5.76679 5.45772 5.67755 5.51768 5.59937C5.57764 5.52118 5.65241 5.45558 5.73773 5.4063C5.82305 5.35702 5.91725 5.32504 6.01493 5.31218C6.11262 5.29932 6.21188 5.30583 6.30705 5.33135L8.56736 5.93697L9.12986 3.62697C9.17735 3.43378 9.29964 3.26736 9.46983 3.16433C9.64002 3.06131 9.84417 3.03011 10.0374 3.0776C10.2306 3.12509 10.397 3.24738 10.5 3.41757C10.603 3.58776 10.6342 3.7919 10.5867 3.9851L9.90892 6.74603L12.113 10.557L14.3124 6.74697L13.6345 3.98603C13.62 3.92746 13.6128 3.86732 13.613 3.80697C13.6129 3.62359 13.6799 3.44651 13.8015 3.30922C13.9231 3.17193 14.0908 3.08394 14.2728 3.0619C14.4549 3.03985 14.6387 3.08526 14.7895 3.18956C14.9404 3.29385 15.0478 3.4498 15.0914 3.62791L15.6539 5.93791L17.9189 5.33228C18.1111 5.28082 18.3159 5.30781 18.4882 5.40732C18.6605 5.50683 18.7862 5.67071 18.8377 5.86291C18.8891 6.05511 18.8622 6.25988 18.7626 6.43218C18.6631 6.60448 18.4992 6.73019 18.307 6.78166L15.607 7.50541L13.4124 11.307H17.8027L19.8324 9.27635C19.9731 9.13562 20.164 9.05655 20.363 9.05655C20.4615 9.05655 20.5591 9.07596 20.6502 9.11368C20.7412 9.15139 20.8239 9.20666 20.8936 9.27635C20.9633 9.34603 21.0186 9.42875 21.0563 9.5198C21.094 9.61084 21.1134 9.70843 21.1134 9.80697C21.1134 10.006 21.0343 10.1969 20.8936 10.3376L19.1733 12.057L20.8936 13.7763C21.0343 13.9171 21.1134 14.1079 21.1134 14.307C21.1134 14.506 21.0343 14.6969 20.8936 14.8376C20.7529 14.9783 20.562 15.0574 20.363 15.0574C20.164 15.0574 19.9731 14.9783 19.8324 14.8376L17.8027 12.807H13.4124L15.607 16.6085L18.307 17.3323C18.4992 17.3838 18.6631 17.5095 18.7626 17.6818C18.8622 17.8541 18.8891 18.0588 18.8377 18.251C18.7862 18.4432 18.6605 18.6071 18.4882 18.7066C18.3159 18.8061 18.1111 18.8331 17.9189 18.7817L15.6586 18.176L15.0961 20.486C15.057 20.6691 14.9509 20.831 14.7985 20.9397C14.6461 21.0485 14.4586 21.0964 14.2728 21.074C14.0869 21.0515 13.9161 20.9604 13.7941 20.8185C13.672 20.6766 13.6074 20.4941 13.613 20.307C13.6128 20.2466 13.62 20.1865 13.6345 20.1279L14.3124 17.367L12.113 13.557L9.91361 17.367L10.5914 20.1279C10.615 20.2236 10.6194 20.3229 10.6045 20.4203C10.5897 20.5177 10.5557 20.6112 10.5047 20.6955C10.4537 20.7797 10.3866 20.8531 10.3072 20.9115C10.2278 20.9698 10.1377 21.0119 10.042 21.0354Z" fill="white"/>
</g>
</svg>
