<svg width="24" height="24" viewBox="0 0 24 24" fill="none" xmlns="http://www.w3.org/2000/svg">
<path d="M16.9131 12.7959L9.41312 20.2959C9.34344 20.3656 9.26071 20.4209 9.16967 20.4586C9.07862 20.4963 8.98104 20.5157 8.8825 20.5157C8.78395 20.5157 8.68637 20.4963 8.59532 20.4586C8.50428 20.4209 8.42155 20.3656 8.35187 20.2959C8.28219 20.2263 8.22691 20.1435 8.1892 20.0525C8.15149 19.9614 8.13208 19.8639 8.13208 19.7653C8.13208 19.6668 8.15149 19.5692 8.1892 19.4781C8.22691 19.3871 8.28219 19.3044 8.35187 19.2347L15.3222 12.2653L8.35187 5.29593C8.21114 5.1552 8.13208 4.96433 8.13208 4.76531C8.13208 4.56629 8.21114 4.37542 8.35187 4.23468C8.4926 4.09395 8.68347 4.01489 8.8825 4.01489C9.08152 4.01489 9.27239 4.09395 9.41312 4.23468L16.9131 11.7347C16.9829 11.8043 17.0382 11.8871 17.0759 11.9781C17.1137 12.0692 17.1331 12.1667 17.1331 12.2653C17.1331 12.3639 17.1137 12.4615 17.0759 12.5525C17.0382 12.6436 16.9829 12.7263 16.9131 12.7959Z" fill="white"/>
</svg>
