<svg width="48" height="48" viewBox="0 0 48 48" fill="none" xmlns="http://www.w3.org/2000/svg">
<path d="M35.0671 18.0186C32.4455 18.0186 30.1027 19.3774 30.1027 21.8879C30.1027 24.7671 34.2578 24.9659 34.2578 26.4123C34.2578 27.0213 33.5599 27.5665 32.3678 27.5665C30.6761 27.5665 29.4117 26.8047 29.4117 26.8047L28.8707 29.3381C28.8707 29.3381 30.3272 29.9816 32.2611 29.9816C35.1273 29.9816 37.3827 28.556 37.3827 26.0026C37.3827 22.9603 33.2104 22.7673 33.2104 21.4248C33.2104 20.9477 33.7833 20.425 34.9719 20.425C36.3131 20.425 37.4072 20.979 37.4072 20.979L37.9367 18.5322C37.9367 18.5322 36.7462 18.0186 35.0671 18.0186ZM11.0819 18.2032L11.0184 18.5726C11.0184 18.5726 12.1214 18.7744 13.1147 19.1771C14.3937 19.6388 14.4848 19.9076 14.7003 20.7424L17.0476 29.7912H20.1941L25.0417 18.2032H21.9023L18.7875 26.0819L17.5164 19.4036C17.3999 18.6392 16.8094 18.2032 16.0867 18.2032H11.0819ZM26.3041 18.2032L23.8413 29.7912H26.835L29.2891 18.2032H26.3041ZM43.0007 18.2032C42.2788 18.2032 41.8963 18.5897 41.6157 19.2651L37.2298 29.7912H40.3691L40.9765 28.0368H44.8012L45.1705 29.7912H47.9405L45.524 18.2032H43.0007ZM43.409 21.3339L44.3395 25.6823H41.8465L43.409 21.3339Z" fill="white"/>
</svg>
