<svg width="21" height="24" viewBox="0 0 21 24" fill="none" xmlns="http://www.w3.org/2000/svg">
<path d="M19.7073 10.7079C19.6144 10.8008 19.5041 10.8746 19.3827 10.9249C19.2613 10.9752 19.1312 11.0011 18.9998 11.0011C18.8684 11.0011 18.7383 10.9752 18.6169 10.9249C18.4955 10.8746 18.3852 10.8008 18.2923 10.7079L11.0001 3.4144V22.9998C11.0001 23.2651 10.8948 23.5194 10.7072 23.7069C10.5197 23.8945 10.2654 23.9998 10.0001 23.9998C9.73494 23.9998 9.4806 23.8945 9.29307 23.7069C9.10554 23.5194 9.00019 23.2651 9.00019 22.9998V3.4144L1.70799 10.7079C1.52035 10.8955 1.26587 11.0009 1.00052 11.0009C0.735162 11.0009 0.480677 10.8955 0.293044 10.7079C0.105411 10.5202 1.97703e-09 10.2657 0 10.0004C-1.97704e-09 9.73503 0.105411 9.48054 0.293044 9.29291L9.29268 0.293275C9.38555 0.200302 9.49583 0.126546 9.61722 0.0762238C9.73862 0.0259016 9.86874 0 10.0001 0C10.1316 0 10.2617 0.0259016 10.3831 0.0762238C10.5045 0.126546 10.6148 0.200302 10.7076 0.293275L19.7073 9.29291C19.8002 9.38578 19.874 9.49606 19.9243 9.61746C19.9746 9.73885 20.0005 9.86897 20.0005 10.0004C20.0005 10.1318 19.9746 10.2619 19.9243 10.3833C19.874 10.5047 19.8002 10.615 19.7073 10.7079Z" fill="#E2F75F"/>
</svg>
