<svg width="24" height="24" viewBox="0 0 24 24" fill="none" xmlns="http://www.w3.org/2000/svg">
<path d="M21.3528 11.9526C21.3528 12.1515 21.2738 12.3422 21.1332 12.4829C20.9925 12.6235 20.8017 12.7025 20.6028 12.7025H5.9134L11.3836 18.1718C11.4533 18.2415 11.5086 18.3242 11.5463 18.4153C11.584 18.5063 11.6034 18.6039 11.6034 18.7024C11.6034 18.801 11.584 18.8986 11.5463 18.9896C11.5086 19.0807 11.4533 19.1634 11.3836 19.2331C11.3139 19.3027 11.2312 19.358 11.1402 19.3957C11.0491 19.4334 10.9515 19.4528 10.853 19.4528C10.7545 19.4528 10.6569 19.4334 10.5658 19.3957C10.4748 19.358 10.3921 19.3027 10.3224 19.2331L3.5725 12.4832C3.50277 12.4135 3.44745 12.3308 3.40971 12.2398C3.37197 12.1487 3.35254 12.0511 3.35254 11.9526C3.35254 11.854 3.37197 11.7564 3.40971 11.6654C3.44745 11.5743 3.50277 11.4916 3.5725 11.4219L10.3224 4.67206C10.4631 4.53133 10.654 4.45227 10.853 4.45227C11.052 4.45227 11.2429 4.53133 11.3836 4.67206C11.5243 4.81279 11.6034 5.00365 11.6034 5.20267C11.6034 5.40169 11.5243 5.59256 11.3836 5.73329L5.9134 11.2026H20.6028C20.8017 11.2026 20.9925 11.2816 21.1332 11.4222C21.2738 11.5629 21.3528 11.7536 21.3528 11.9526Z" fill="white"/>
</svg>
