<svg width="24" height="24" viewBox="0 0 24 24" fill="none" xmlns="http://www.w3.org/2000/svg">
<path d="M20.5952 2.74805H8.59521C8.3963 2.74805 8.20554 2.82706 8.06489 2.96772C7.92423 3.10837 7.84521 3.29913 7.84521 3.49805V7.24805H4.09521C3.8963 7.24805 3.70554 7.32706 3.56488 7.46772C3.42423 7.60837 3.34521 7.79913 3.34521 7.99805V19.998C3.34521 20.197 3.42423 20.3877 3.56488 20.5284C3.70554 20.669 3.8963 20.748 4.09521 20.748H16.0952C16.2941 20.748 16.4849 20.669 16.6255 20.5284C16.7662 20.3877 16.8452 20.197 16.8452 19.998V16.248H20.5952C20.7941 16.248 20.9849 16.169 21.1255 16.0284C21.2662 15.8877 21.3452 15.697 21.3452 15.498V3.49805C21.3452 3.29913 21.2662 3.10837 21.1255 2.96772C20.9849 2.82706 20.7941 2.74805 20.5952 2.74805ZM15.3452 19.248H4.84521V8.74805H15.3452V19.248ZM19.8452 14.748H16.8452V7.99805C16.8452 7.79913 16.7662 7.60837 16.6255 7.46772C16.4849 7.32706 16.2941 7.24805 16.0952 7.24805H9.34521V4.24805H19.8452V14.748Z" fill="white"/>
</svg>
