<svg width="24" height="24" viewBox="0 0 24 24" fill="none" xmlns="http://www.w3.org/2000/svg">
<g opacity="0.5">
<path d="M12.1074 2.38477C10.1791 2.38477 8.294 2.95659 6.69062 4.02794C5.08724 5.09928 3.83756 6.62202 3.0996 8.4036C2.36165 10.1852 2.16856 12.1456 2.54477 14.0369C2.92098 15.9282 3.84957 17.6655 5.21314 19.0291C6.5767 20.3926 8.31398 21.3212 10.2053 21.6974C12.0966 22.0736 14.057 21.8805 15.8386 21.1426C17.6202 20.4046 19.1429 19.155 20.2143 17.5516C21.2856 15.9482 21.8574 14.0631 21.8574 12.1348C21.8547 9.54974 20.8266 7.07138 18.9987 5.24349C17.1708 3.4156 14.6924 2.3875 12.1074 2.38477ZM12.1074 20.3848C10.4757 20.3848 8.88068 19.9009 7.52397 18.9944C6.16727 18.0879 5.10984 16.7994 4.48542 15.2919C3.861 13.7844 3.69762 12.1256 4.01595 10.5253C4.33428 8.92493 5.12001 7.45492 6.2738 6.30113C7.42758 5.14735 8.89759 4.36162 10.4979 4.04329C12.0983 3.72496 13.7571 3.88834 15.2646 4.51276C16.7721 5.13718 18.0605 6.19461 18.9671 7.55131C19.8736 8.90802 20.3574 10.5031 20.3574 12.1348C20.3549 14.322 19.485 16.419 17.9383 17.9657C16.3917 19.5123 14.2947 20.3823 12.1074 20.3848ZM13.6074 16.6348C13.6074 16.8337 13.5284 17.0244 13.3878 17.1651C13.2471 17.3057 13.0563 17.3848 12.8574 17.3848C12.4596 17.3848 12.0781 17.2267 11.7968 16.9454C11.5155 16.6641 11.3574 16.2826 11.3574 15.8848V12.1348C11.1585 12.1348 10.9677 12.0557 10.8271 11.9151C10.6864 11.7744 10.6074 11.5837 10.6074 11.3848C10.6074 11.1859 10.6864 10.9951 10.8271 10.8544C10.9677 10.7138 11.1585 10.6348 11.3574 10.6348C11.7553 10.6348 12.1368 10.7928 12.4181 11.0741C12.6994 11.3554 12.8574 11.7369 12.8574 12.1348V15.8848C13.0563 15.8848 13.2471 15.9638 13.3878 16.1044C13.5284 16.2451 13.6074 16.4359 13.6074 16.6348ZM10.6074 8.00977C10.6074 7.78726 10.6734 7.56975 10.797 7.38475C10.9206 7.19974 11.0963 7.05555 11.3019 6.9704C11.5075 6.88525 11.7337 6.86297 11.9519 6.90638C12.1701 6.94979 12.3706 7.05694 12.5279 7.21427C12.6853 7.3716 12.7924 7.57206 12.8358 7.79029C12.8792 8.00852 12.8569 8.23472 12.7718 8.44028C12.6866 8.64585 12.5424 8.82155 12.3574 8.94517C12.1724 9.06879 11.9549 9.13477 11.7324 9.13477C11.4341 9.13477 11.1479 9.01624 10.9369 8.80526C10.726 8.59428 10.6074 8.30813 10.6074 8.00977Z" fill="#BF0040"/>
</g>
</svg>
