<svg width="24" height="24" viewBox="0 0 24 24" fill="none" xmlns="http://www.w3.org/2000/svg">
<g clip-path="url(#clip0_0_4141)">
<g clip-path="url(#clip1_0_4141)">
<path d="M26.0625 0H-1.9375C-3.04207 0 -3.9375 0.89543 -3.9375 2V22C-3.9375 23.1046 -3.04207 24 -1.9375 24H26.0625C27.1671 24 28.0625 23.1046 28.0625 22V2C28.0625 0.89543 27.1671 0 26.0625 0Z" fill="#4200B5"/>
<path d="M12.327 3.64517L12.0449 2.8335L11.7628 3.64517L10.9036 3.66268L11.5884 4.18182L11.3396 5.00432L12.0449 4.5135L12.7502 5.00432L12.5014 4.18182L13.1862 3.66268L12.327 3.64517Z" fill="#E2F75F"/>
<path d="M12.327 19.5783L12.0449 18.7666L11.7628 19.5783L10.9036 19.5958L11.5884 20.1149L11.3396 20.9374L12.0449 20.4466L12.7502 20.9374L12.5014 20.1149L13.1862 19.5958L12.327 19.5783Z" fill="#E2F75F"/>
<path d="M8.04403 3.85107L8.32623 4.66275L9.18533 4.68025L8.50053 5.1994L8.74943 6.02189L8.04403 5.53107L7.33873 6.02189L7.58753 5.1994L6.90283 4.68025L7.76193 4.66275L8.04403 3.85107Z" fill="#E2F75F"/>
<path d="M8.32623 18.5607L8.04403 17.749L7.76193 18.5607L6.90283 18.5782L7.58753 19.0974L7.33873 19.9198L8.04403 19.429L8.74943 19.9198L8.50053 19.0974L9.18533 18.5782L8.32623 18.5607Z" fill="#E2F75F"/>
<path d="M5.13114 6.83398L5.41327 7.64566L6.2724 7.66316L5.58764 8.18231L5.83648 9.0048L5.13114 8.51398L4.42579 9.0048L4.67463 8.18231L3.98987 7.66316L4.849 7.64566L5.13114 6.83398Z" fill="#E2F75F"/>
<path d="M5.41327 15.5959L5.13114 14.7842L4.849 15.5959L3.98987 15.6134L4.67463 16.1325L4.42579 16.955L5.13114 16.4642L5.83648 16.955L5.58764 16.1325L6.2724 15.6134L5.41327 15.5959Z" fill="#E2F75F"/>
<path d="M3.93118 10.8091L4.21332 11.6208L5.07245 11.6383L4.38769 12.1574L4.63653 12.9799L3.93118 12.4891L3.22584 12.9799L3.47468 12.1574L2.78992 11.6383L3.64905 11.6208L3.93118 10.8091Z" fill="#E2F75F"/>
<path d="M20.476 11.6208L20.1938 10.8091L19.9117 11.6208L19.0526 11.6383L19.7373 12.1574L19.4885 12.9799L20.1938 12.4891L20.8992 12.9799L20.6503 12.1574L21.3351 11.6383L20.476 11.6208Z" fill="#E2F75F"/>
<path d="M18.9938 6.83398L19.2759 7.64566L20.1351 7.66316L19.4503 8.18231L19.6992 9.0048L18.9938 8.51398L18.2885 9.0048L18.5373 8.18231L17.8525 7.66316L18.7117 7.64566L18.9938 6.83398Z" fill="#E2F75F"/>
<path d="M19.2759 15.5959L18.9938 14.7842L18.7117 15.5959L17.8525 15.6134L18.5373 16.1325L18.2885 16.955L18.9938 16.4642L19.6992 16.955L19.4503 16.1325L20.1351 15.6134L19.2759 15.5959Z" fill="#E2F75F"/>
<path d="M16.0459 3.85107L16.3281 4.66275L17.1872 4.68025L16.5024 5.1994L16.7513 6.02189L16.0459 5.53107L15.3406 6.02189L15.5894 5.1994L14.9047 4.68025L15.7638 4.66275L16.0459 3.85107Z" fill="#E2F75F"/>
<path d="M16.3281 18.5607L16.0459 17.749L15.7638 18.5607L14.9047 18.5782L15.5894 19.0974L15.3406 19.9198L16.0459 19.429L16.7513 19.9198L16.5024 19.0974L17.1872 18.5782L16.3281 18.5607Z" fill="#E2F75F"/>
</g>
</g>
<defs>
<clipPath id="clip0_0_4141">
<path d="M0 12C0 5.37258 5.37258 0 12 0C18.6274 0 24 5.37258 24 12C24 18.6274 18.6274 24 12 24C5.37258 24 0 18.6274 0 12Z" fill="white"/>
</clipPath>
<clipPath id="clip1_0_4141">
<rect width="32" height="24" fill="white" transform="translate(-3.9375)"/>
</clipPath>
</defs>
</svg>
