<svg width="24" height="24" viewBox="0 0 24 24" fill="none" xmlns="http://www.w3.org/2000/svg">
<g opacity="0.35">
<path d="M21.2841 20.8069L16.5901 16.1137C17.9506 14.4803 18.629 12.3853 18.4842 10.2644C18.3394 8.14357 17.3826 6.16017 15.8126 4.72684C14.2427 3.29351 12.1807 2.52061 10.0554 2.56891C7.93017 2.61721 5.90535 3.48299 4.40218 4.98616C2.89901 6.48933 2.03322 8.51415 1.98492 10.6394C1.93662 12.7647 2.70953 14.8267 4.14286 16.3966C5.57619 17.9665 7.55958 18.9234 9.68045 19.0682C11.8013 19.213 13.8964 18.5346 15.5298 17.1741L20.2229 21.8681C20.2926 21.9378 20.3753 21.9931 20.4663 22.0308C20.5574 22.0685 20.655 22.0879 20.7535 22.0879C20.8521 22.0879 20.9496 22.0685 21.0407 22.0308C21.1317 21.9931 21.2145 21.9378 21.2841 21.8681C21.3538 21.7984 21.4091 21.7157 21.4468 21.6247C21.4845 21.5336 21.5039 21.436 21.5039 21.3375C21.5039 21.239 21.4845 21.1414 21.4468 21.0503C21.4091 20.9593 21.3538 20.8766 21.2841 20.8069ZM3.50351 10.8375C3.50351 9.50247 3.89939 8.19743 4.64109 7.0874C5.38279 5.97736 6.437 5.1122 7.6704 4.60131C8.9038 4.09042 10.261 3.95674 11.5704 4.21719C12.8797 4.47764 14.0825 5.12052 15.0265 6.06452C15.9705 7.00853 16.6134 8.21126 16.8738 9.52064C17.1343 10.83 17.0006 12.1872 16.4897 13.4206C15.9788 14.654 15.1136 15.7082 14.0036 16.4499C12.8936 17.1916 11.5885 17.5875 10.2535 17.5875C8.46391 17.5855 6.74817 16.8737 5.48273 15.6083C4.21729 14.3428 3.5055 12.6271 3.50351 10.8375Z" fill="white"/>
</g>
</svg>
