<svg width="24" height="24" viewBox="0 0 24 24" fill="none" xmlns="http://www.w3.org/2000/svg">
<g opacity="0.5">
<path d="M20.1532 7.9015L14.9032 2.6515C14.8335 2.58188 14.7507 2.52667 14.6597 2.48903C14.5687 2.45139 14.4711 2.43205 14.3726 2.43213H5.37256C4.97473 2.43213 4.5932 2.59016 4.3119 2.87147C4.03059 3.15277 3.87256 3.5343 3.87256 3.93213V20.4321C3.87256 20.83 4.03059 21.2115 4.3119 21.4928C4.5932 21.7741 4.97473 21.9321 5.37256 21.9321H18.8726C19.2704 21.9321 19.6519 21.7741 19.9332 21.4928C20.2145 21.2115 20.3726 20.83 20.3726 20.4321V8.43213C20.3726 8.33361 20.3533 8.23604 20.3157 8.14499C20.278 8.05395 20.2228 7.97121 20.1532 7.9015ZM15.1226 4.99244L17.8122 7.68213H15.1226V4.99244ZM18.8726 20.4321H5.37256V3.93213H13.6226V8.43213C13.6226 8.63104 13.7016 8.82181 13.8422 8.96246C13.9829 9.10311 14.1736 9.18213 14.3726 9.18213H18.8726V20.4321ZM14.9032 13.1515C14.9729 13.2212 15.0281 13.3039 15.0659 13.395C15.1036 13.486 15.123 13.5836 15.123 13.6821C15.123 13.7807 15.1036 13.8783 15.0659 13.9693C15.0281 14.0603 14.9729 14.1431 14.9032 14.2128C14.8335 14.2824 14.7508 14.3377 14.6597 14.3754C14.5687 14.4131 14.4711 14.4325 14.3726 14.4325C14.274 14.4325 14.1764 14.4131 14.0854 14.3754C13.9943 14.3377 13.9116 14.2824 13.8419 14.2128L12.8726 13.2424V17.4321C12.8726 17.631 12.7935 17.8218 12.6529 17.9625C12.5122 18.1031 12.3215 18.1821 12.1226 18.1821C11.9236 18.1821 11.7329 18.1031 11.5922 17.9625C11.4516 17.8218 11.3726 17.631 11.3726 17.4321V13.2424L10.4032 14.2128C10.3335 14.2824 10.2508 14.3377 10.1597 14.3754C10.0687 14.4131 9.9711 14.4325 9.87256 14.4325C9.77401 14.4325 9.67643 14.4131 9.58539 14.3754C9.49434 14.3377 9.41162 14.2824 9.34193 14.2128C9.27225 14.1431 9.21698 14.0603 9.17926 13.9693C9.14155 13.8783 9.12214 13.7807 9.12214 13.6821C9.12214 13.5836 9.14155 13.486 9.17926 13.395C9.21698 13.3039 9.27225 13.2212 9.34193 13.1515L11.5919 10.9015C11.6616 10.8318 11.7443 10.7765 11.8354 10.7387C11.9264 10.701 12.024 10.6815 12.1226 10.6815C12.2211 10.6815 12.3187 10.701 12.4098 10.7387C12.5008 10.7765 12.5835 10.8318 12.6532 10.9015L14.9032 13.1515Z" fill="white"/>
</g>
</svg>
