<svg width="33" height="27" viewBox="0 0 33 27" fill="none" xmlns="http://www.w3.org/2000/svg">
<path d="M26.4549 15.8776L17.1738 23.4712C17.0781 23.5497 16.9643 23.6119 16.8391 23.6544C16.714 23.6968 16.5798 23.7187 16.4442 23.7187C16.3087 23.7187 16.1745 23.6968 16.0493 23.6544C15.9242 23.6119 15.8104 23.5497 15.7146 23.4712L6.43356 15.8776C6.24006 15.7193 6.13135 15.5046 6.13135 15.2807C6.13135 15.0568 6.24006 14.8421 6.43356 14.6837C6.62706 14.5254 6.8895 14.4365 7.16315 14.4365C7.4368 14.4365 7.69925 14.5254 7.89275 14.6837L15.413 20.8377V4.31212C15.413 4.08835 15.5217 3.87374 15.715 3.71551C15.9084 3.55728 16.1707 3.46838 16.4442 3.46838C16.7177 3.46838 16.98 3.55728 17.1734 3.71551C17.3668 3.87374 17.4755 4.08835 17.4755 4.31212V20.8377L24.9957 14.6837C25.1892 14.5254 25.4517 14.4365 25.7253 14.4365C25.999 14.4365 26.2614 14.5254 26.4549 14.6837C26.6484 14.8421 26.7571 15.0568 26.7571 15.2807C26.7571 15.5046 26.6484 15.7193 26.4549 15.8776Z" fill="white"/>
</svg>
