<svg width="16" height="16" viewBox="0 0 16 16" fill="none" xmlns="http://www.w3.org/2000/svg">
<path d="M13.5034 4.71718H11.3109C11.3353 4.69656 11.3603 4.67656 11.384 4.65468C11.5739 4.48604 11.7268 4.28005 11.8334 4.04959C11.94 3.81913 11.9979 3.56916 12.0034 3.31531C12.0116 3.0376 11.963 2.76115 11.8605 2.50292C11.758 2.2447 11.6038 2.01014 11.4074 1.81366C11.211 1.61718 10.9765 1.46292 10.7183 1.36034C10.4601 1.25777 10.1836 1.20905 9.90592 1.21718C9.65196 1.22265 9.40187 1.28048 9.1713 1.38706C8.94072 1.49364 8.73463 1.64666 8.56592 1.83656C8.33247 2.10712 8.14268 2.41246 8.00342 2.74156C7.86415 2.41246 7.67437 2.10712 7.44092 1.83656C7.27221 1.64666 7.06611 1.49364 6.83554 1.38706C6.60497 1.28048 6.35487 1.22265 6.10092 1.21718C5.82321 1.20905 5.54677 1.25777 5.28858 1.36034C5.03038 1.46292 4.79587 1.61718 4.59945 1.81366C4.40303 2.01014 4.24883 2.2447 4.14634 2.50292C4.04384 2.76115 3.99521 3.0376 4.00342 3.31531C4.00897 3.56916 4.06685 3.81913 4.17342 4.04959C4.27999 4.28005 4.43297 4.48604 4.62279 4.65468C4.64654 4.67531 4.67154 4.69531 4.69592 4.71718H2.50342C2.2382 4.71718 1.98385 4.82254 1.79631 5.01007C1.60877 5.19761 1.50342 5.45196 1.50342 5.71718V7.71718C1.50342 7.9824 1.60877 8.23675 1.79631 8.42429C1.98385 8.61182 2.2382 8.71718 2.50342 8.71718V12.7172C2.50342 12.9824 2.60877 13.2368 2.79631 13.4243C2.98385 13.6118 3.2382 13.7172 3.50342 13.7172H12.5034C12.7686 13.7172 13.023 13.6118 13.2105 13.4243C13.3981 13.2368 13.5034 12.9824 13.5034 12.7172V8.71718C13.7686 8.71718 14.023 8.61182 14.2105 8.42429C14.3981 8.23675 14.5034 7.9824 14.5034 7.71718V5.71718C14.5034 5.45196 14.3981 5.19761 14.2105 5.01007C14.023 4.82254 13.7686 4.71718 13.5034 4.71718ZM9.31592 2.49906C9.39509 2.41163 9.49147 2.34152 9.59903 2.29312C9.70658 2.24472 9.82298 2.21908 9.94092 2.21781H9.97154C10.1098 2.21867 10.2464 2.24712 10.3735 2.30148C10.5006 2.35584 10.6156 2.43502 10.7117 2.53438C10.8078 2.63374 10.8831 2.75128 10.9332 2.88012C10.9833 3.00896 11.0072 3.1465 11.0034 3.28468C11.0021 3.40262 10.9765 3.51902 10.9281 3.62657C10.8797 3.73413 10.8096 3.83051 10.7222 3.90968C10.129 4.43468 9.14467 4.61968 8.53467 4.68468C8.60967 4.02281 8.81592 3.06093 9.31592 2.49906ZM5.31029 2.52156C5.50401 2.32786 5.76636 2.21848 6.04029 2.21718H6.07092C6.18885 2.21845 6.30525 2.24409 6.41281 2.29249C6.52036 2.34089 6.61675 2.41101 6.69592 2.49843C7.22029 3.09093 7.40529 4.07343 7.47029 4.68093C6.86279 4.61843 5.88029 4.43093 5.28779 3.90656C5.20037 3.82739 5.13025 3.731 5.08186 3.62345C5.03346 3.51589 5.00782 3.39949 5.00654 3.28156C5.00267 3.14108 5.02737 3.00128 5.07915 2.87063C5.13094 2.73999 5.20873 2.62123 5.30779 2.52156H5.31029ZM2.50342 5.71718H7.50342V7.71718H2.50342V5.71718ZM3.50342 8.71718H7.50342V12.7172H3.50342V8.71718ZM12.5034 12.7172H8.50342V8.71718H12.5034V12.7172ZM13.5034 7.71718H8.50342V5.71718H13.5034V7.71718Z" fill="white"/>
</svg>
