<svg width="32" height="32" viewBox="0 0 32 32" fill="none" xmlns="http://www.w3.org/2000/svg">
<path d="M15.7236 3.35815C13.1525 3.35815 10.6391 4.12059 8.50123 5.54905C6.36339 6.97751 4.69714 9.00783 3.7132 11.3833C2.72927 13.7587 2.47182 16.3726 2.97343 18.8943C3.47504 21.4161 4.71317 23.7325 6.53125 25.5505C8.34933 27.3686 10.6657 28.6068 13.1875 29.1084C15.7092 29.61 18.3231 29.3525 20.6985 28.3686C23.074 27.3846 25.1043 25.7184 26.5327 23.5806C27.9612 21.4427 28.7236 18.9293 28.7236 16.3582C28.72 12.9115 27.3492 9.60697 24.912 7.16979C22.4748 4.7326 19.1703 3.36179 15.7236 3.35815ZM15.7236 27.3582C13.548 27.3582 11.4213 26.713 9.61237 25.5043C7.80342 24.2956 6.39353 22.5777 5.56096 20.5677C4.7284 18.5577 4.51056 16.346 4.935 14.2122C5.35944 12.0784 6.40709 10.1184 7.94546 8.57998C9.48384 7.0416 11.4439 5.99395 13.5776 5.56952C15.7114 5.14508 17.9232 5.36292 19.9332 6.19548C21.9431 7.02804 23.6611 8.43794 24.8698 10.2469C26.0785 12.0558 26.7236 14.1826 26.7236 16.3582C26.7203 19.2745 25.5603 22.0705 23.4982 24.1327C21.436 26.1949 18.64 27.3548 15.7236 27.3582ZM21.4311 15.6507C21.5241 15.7435 21.5979 15.8538 21.6482 15.9752C21.6985 16.0966 21.7244 16.2267 21.7244 16.3582C21.7244 16.4896 21.6985 16.6197 21.6482 16.7411C21.5979 16.8625 21.5241 16.9728 21.4311 17.0657L17.4311 21.0657C17.2435 21.2533 16.989 21.3587 16.7236 21.3587C16.4583 21.3587 16.2038 21.2533 16.0161 21.0657C15.8285 20.878 15.7231 20.6235 15.7231 20.3582C15.7231 20.0928 15.8285 19.8383 16.0161 19.6507L18.3099 17.3582H10.7236C10.4584 17.3582 10.2041 17.2528 10.0165 17.0653C9.829 16.8777 9.72364 16.6234 9.72364 16.3582C9.72364 16.0929 9.829 15.8386 10.0165 15.651C10.2041 15.4635 10.4584 15.3582 10.7236 15.3582H18.3099L16.0161 13.0657C15.8285 12.878 15.7231 12.6235 15.7231 12.3582C15.7231 12.0928 15.8285 11.8383 16.0161 11.6507C16.2038 11.463 16.4583 11.3576 16.7236 11.3576C16.989 11.3576 17.2435 11.463 17.4311 11.6507L21.4311 15.6507Z" fill="#E3E1EA"/>
</svg>
