<svg width="32" height="32" viewBox="0 0 32 32" fill="none" xmlns="http://www.w3.org/2000/svg">
<path d="M28.0473 18.6107C28.0786 18.7382 28.0846 18.8707 28.0647 19.0006C28.0449 19.1304 27.9997 19.2551 27.9317 19.3674C27.8636 19.4798 27.7741 19.5777 27.6683 19.6554C27.5624 19.7332 27.4423 19.7893 27.3148 19.8207L24.2348 20.5707L25.0423 23.5844C25.0763 23.7113 25.085 23.8437 25.0678 23.9739C25.0507 24.1042 25.008 24.2298 24.9423 24.3435C24.8766 24.4573 24.7891 24.557 24.6849 24.6369C24.5806 24.7169 24.4617 24.7755 24.3348 24.8094C24.2506 24.8337 24.1636 24.8471 24.076 24.8494C23.856 24.8492 23.6422 24.7765 23.4678 24.6425C23.2933 24.5085 23.1679 24.3207 23.111 24.1082L22.146 20.5082L17.076 17.5819V23.4357L19.7835 26.1419C19.8764 26.2348 19.9501 26.3451 20.0004 26.4665C20.0507 26.5879 20.0766 26.718 20.0766 26.8494C20.0766 26.9808 20.0507 27.1109 20.0004 27.2323C19.9501 27.3537 19.8764 27.464 19.7835 27.5569C19.6906 27.6498 19.5803 27.7235 19.4589 27.7738C19.3375 27.8241 19.2074 27.85 19.076 27.85C18.9446 27.85 18.8145 27.8241 18.6931 27.7738C18.5717 27.7235 18.4614 27.6498 18.3685 27.5569L16.076 25.2632L13.7835 27.5569C13.6906 27.6498 13.5803 27.7235 13.4589 27.7738C13.3375 27.8241 13.2074 27.85 13.076 27.85C12.9446 27.85 12.8145 27.8241 12.6931 27.7738C12.5717 27.7235 12.4614 27.6498 12.3685 27.5569C12.2756 27.464 12.2019 27.3537 12.1516 27.2323C12.1013 27.1109 12.0754 26.9808 12.0754 26.8494C12.0754 26.718 12.1013 26.5879 12.1516 26.4665C12.2019 26.3451 12.2756 26.2348 12.3685 26.1419L15.076 23.4357V17.5819L10.0073 20.5082L9.04225 24.1082C8.98528 24.3209 8.85969 24.5088 8.68498 24.6429C8.51027 24.7769 8.2962 24.8495 8.076 24.8494C7.98825 24.8493 7.90088 24.8379 7.816 24.8157C7.68909 24.7817 7.57011 24.7231 7.46587 24.6432C7.36162 24.5632 7.27414 24.4635 7.20844 24.3498C7.14274 24.236 7.10009 24.1104 7.08295 23.9802C7.0658 23.8499 7.07448 23.7176 7.1085 23.5907L7.916 20.5769L4.836 19.8269C4.57841 19.7636 4.35652 19.6006 4.21915 19.3736C4.08178 19.1467 4.04018 18.8745 4.1035 18.6169C4.16682 18.3593 4.32988 18.1375 4.5568 18.0001C4.78372 17.8627 5.05591 17.8211 5.3135 17.8844L8.99475 18.7882L14.076 15.8494L8.996 12.9169L5.31475 13.8207C5.23665 13.84 5.15646 13.8497 5.076 13.8494C4.83149 13.8496 4.59539 13.7602 4.41234 13.5981C4.22928 13.436 4.11197 13.2124 4.08257 12.9697C4.05317 12.7269 4.11372 12.4818 4.25278 12.2807C4.39184 12.0796 4.59977 11.9364 4.83725 11.8782L7.91725 11.1282L7.10975 8.10818C7.04113 7.85192 7.07711 7.57889 7.2098 7.34915C7.34248 7.11942 7.56099 6.95181 7.81725 6.88318C8.07352 6.81456 8.34655 6.85055 8.57628 6.98323C8.80601 7.11591 8.97363 7.33442 9.04225 7.59068L10.0073 11.1907L15.076 14.1169V8.26318L12.3685 5.55693C12.1809 5.36929 12.0754 5.1148 12.0754 4.84943C12.0754 4.71804 12.1013 4.58793 12.1516 4.46654C12.2019 4.34514 12.2756 4.23484 12.3685 4.14193C12.4614 4.04902 12.5717 3.97532 12.6931 3.92504C12.8145 3.87476 12.9446 3.84888 13.076 3.84888C13.3414 3.84888 13.5959 3.95429 13.7835 4.14193L16.076 6.43568L18.3685 4.14193C18.5561 3.95429 18.8106 3.84888 19.076 3.84888C19.3414 3.84888 19.5959 3.95429 19.7835 4.14193C19.9711 4.32957 20.0766 4.58407 20.0766 4.84943C20.0766 5.1148 19.9711 5.36929 19.7835 5.55693L17.076 8.26318V14.1169L22.1448 11.1907L23.1098 7.59068C23.1784 7.33442 23.346 7.11591 23.5757 6.98323C23.8055 6.85055 24.0785 6.81456 24.3348 6.88318C24.591 6.95181 24.8095 7.11942 24.9422 7.34915C25.0749 7.57889 25.1109 7.85192 25.0423 8.10818L24.2348 11.1219L27.3148 11.8719C27.5589 11.9241 27.7746 12.0656 27.9197 12.2687C28.0648 12.4719 28.1286 12.7219 28.0987 12.9697C28.0688 13.2176 27.9473 13.4452 27.758 13.608C27.5688 13.7708 27.3255 13.8569 27.076 13.8494C26.9955 13.8497 26.9154 13.84 26.8373 13.8207L23.156 12.9169L18.076 15.8494L23.156 18.7819L26.8373 17.8782C26.9648 17.8468 27.0973 17.8409 27.2271 17.8607C27.357 17.8805 27.4816 17.9258 27.594 17.9938C27.7064 18.0618 27.8042 18.1513 27.882 18.2571C27.9598 18.363 28.0159 18.4831 28.0473 18.6107Z" fill="white"/>
</svg>
