<svg width="32" height="32" viewBox="0 0 32 32" fill="none" xmlns="http://www.w3.org/2000/svg">
<path d="M21.4512 12.0327C21.5441 12.1256 21.6179 12.2359 21.6682 12.3573C21.7185 12.4787 21.7444 12.6088 21.7444 12.7402C21.7444 12.8716 21.7185 13.0018 21.6682 13.1232C21.6179 13.2446 21.5441 13.3549 21.4512 13.4477L14.4512 20.4477C14.3583 20.5407 14.248 20.6145 14.1266 20.6648C14.0052 20.7151 13.8751 20.741 13.7437 20.741C13.6122 20.741 13.4821 20.7151 13.3607 20.6648C13.2393 20.6145 13.129 20.5407 13.0362 20.4477L10.0362 17.4477C9.84852 17.2601 9.7431 17.0056 9.7431 16.7402C9.7431 16.4749 9.84852 16.2204 10.0362 16.0327C10.2238 15.8451 10.4783 15.7397 10.7437 15.7397C11.009 15.7397 11.2635 15.8451 11.4512 16.0327L13.7437 18.3265L20.0362 12.0327C20.129 11.9398 20.2393 11.866 20.3607 11.8157C20.4821 11.7654 20.6122 11.7394 20.7437 11.7394C20.8751 11.7394 21.0052 11.7654 21.1266 11.8157C21.248 11.866 21.3583 11.9398 21.4512 12.0327ZM28.7437 15.7402C28.7437 18.3114 27.9812 20.8248 26.5528 22.9626C25.1243 25.1005 23.094 26.7667 20.7185 27.7507C18.3431 28.7346 15.7292 28.9921 13.2075 28.4904C10.6857 27.9888 8.36935 26.7507 6.55127 24.9326C4.73319 23.1145 3.49506 20.7982 2.99345 18.2764C2.49184 15.7547 2.74929 13.1408 3.73322 10.7653C4.71716 8.38991 6.38341 6.35959 8.52125 4.93113C10.6591 3.50267 13.1725 2.74023 15.7437 2.74023C19.1904 2.74387 22.4948 4.11468 24.932 6.55187C27.3692 8.98905 28.74 12.2935 28.7437 15.7402ZM26.7437 15.7402C26.7437 13.5646 26.0985 11.4379 24.8898 9.62896C23.6811 7.82002 21.9632 6.41012 19.9532 5.57756C17.9432 4.745 15.7315 4.52716 13.5977 4.9516C11.4639 5.37603 9.50386 6.42368 7.96548 7.96206C6.42711 9.50044 5.37946 11.4605 4.95502 13.5942C4.53058 15.728 4.74842 17.9398 5.58098 19.9498C6.41355 21.9597 7.82344 23.6777 9.63239 24.8864C11.4413 26.0951 13.5681 26.7402 15.7437 26.7402C18.66 26.7369 21.456 25.5769 23.5182 23.5148C25.5804 21.4526 26.7403 18.6566 26.7437 15.7402Z" fill="white"/>
</svg>
