<svg width="24" height="24" viewBox="0 0 24 24" fill="none" xmlns="http://www.w3.org/2000/svg">
<path d="M21.5165 19.7218C20.0887 17.2534 17.8884 15.4834 15.3206 14.6443C16.5907 13.8882 17.5776 12.736 18.1295 11.3647C18.6815 9.99346 18.7681 8.47892 18.376 7.05369C17.9838 5.62846 17.1347 4.37135 15.959 3.47541C14.7833 2.57947 13.346 2.09424 11.8678 2.09424C10.3896 2.09424 8.95227 2.57947 7.77655 3.47541C6.60083 4.37135 5.75171 5.62846 5.3596 7.05369C4.96748 8.47892 5.05405 9.99346 5.60601 11.3647C6.15798 12.736 7.14481 13.8882 8.41496 14.6443C5.84715 15.4824 3.64684 17.2524 2.21903 19.7218C2.16667 19.8072 2.13194 19.9022 2.11689 20.0012C2.10183 20.1002 2.10677 20.2012 2.13139 20.2983C2.15602 20.3954 2.19984 20.4865 2.26027 20.5664C2.3207 20.6463 2.39651 20.7132 2.48324 20.7633C2.56996 20.8134 2.66584 20.8456 2.76522 20.8581C2.8646 20.8705 2.96546 20.8629 3.06186 20.8358C3.15826 20.8086 3.24823 20.7624 3.32648 20.6999C3.40473 20.6374 3.46967 20.5598 3.51746 20.4718C5.28371 17.4193 8.40559 15.5968 11.8678 15.5968C15.33 15.5968 18.4518 17.4193 20.2181 20.4718C20.2659 20.5598 20.3308 20.6374 20.4091 20.6999C20.4873 20.7624 20.5773 20.8086 20.6737 20.8358C20.7701 20.8629 20.871 20.8705 20.9703 20.8581C21.0697 20.8456 21.1656 20.8134 21.2523 20.7633C21.339 20.7132 21.4149 20.6463 21.4753 20.5664C21.5357 20.4865 21.5795 20.3954 21.6042 20.2983C21.6288 20.2012 21.6337 20.1002 21.6187 20.0012C21.6036 19.9022 21.5689 19.8072 21.5165 19.7218ZM6.61778 8.84679C6.61778 7.80844 6.92568 6.7934 7.50256 5.93005C8.07944 5.06669 8.89938 4.39378 9.85869 3.99642C10.818 3.59906 11.8736 3.49509 12.892 3.69767C13.9104 3.90024 14.8459 4.40025 15.5801 5.13448C16.3143 5.8687 16.8143 6.80416 17.0169 7.82257C17.2195 8.84097 17.1155 9.89656 16.7181 10.8559C16.3208 11.8152 15.6479 12.6351 14.7845 13.212C13.9212 13.7889 12.9061 14.0968 11.8678 14.0968C10.4758 14.0953 9.14135 13.5417 8.15711 12.5575C7.17287 11.5732 6.61927 10.2387 6.61778 8.84679Z" fill="#0D0C12"/>
</svg>
