<svg width="33" height="27" viewBox="0 0 33 27" fill="none" xmlns="http://www.w3.org/2000/svg">
<path d="M31.3789 15.5364C31.2706 15.6029 31.1473 15.6512 31.0161 15.6787C30.8849 15.7062 30.7484 15.7123 30.6143 15.6967C30.4802 15.681 30.3513 15.6439 30.2347 15.5874C30.1182 15.531 30.0164 15.4563 29.9351 15.3676C29.3136 14.6841 28.5045 14.1294 27.5731 13.7484C26.6417 13.3674 25.614 13.1706 24.5726 13.1739C24.3699 13.1739 24.1716 13.1249 24.0026 13.0332C23.8336 12.9415 23.7014 12.811 23.6226 12.6582C23.5691 12.5543 23.5415 12.4428 23.5415 12.3301C23.5415 12.2175 23.5691 12.1059 23.6226 12.0021C23.7014 11.8493 23.8336 11.7188 24.0026 11.6271C24.1716 11.5353 24.3699 11.4864 24.5726 11.4864C25.1513 11.4864 25.7183 11.3535 26.2093 11.1031C26.7003 10.8526 27.0956 10.4944 27.3503 10.0694C27.605 9.64427 27.7089 9.16926 27.6502 8.69829C27.5914 8.22731 27.3725 7.77925 27.0181 7.40499C26.6638 7.03073 26.1882 6.74528 25.6455 6.58106C25.1028 6.41684 24.5147 6.38044 23.948 6.47598C23.3813 6.57152 22.8587 6.79518 22.4395 7.12156C22.0204 7.44794 21.7215 7.86395 21.5769 8.32233C21.543 8.42967 21.4836 8.5305 21.4022 8.61907C21.3207 8.70764 21.2187 8.78221 21.102 8.83853C20.9852 8.89484 20.8561 8.93179 20.722 8.94728C20.5878 8.96276 20.4512 8.95648 20.32 8.92878C20.1888 8.90108 20.0656 8.8525 19.9573 8.78584C19.8491 8.71917 19.7579 8.6357 19.6891 8.54022C19.6203 8.44473 19.5751 8.33908 19.5562 8.22931C19.5373 8.11954 19.545 8.0078 19.5788 7.90046C19.7796 7.26481 20.1589 6.67628 20.6866 6.18169C21.2143 5.6871 21.8758 5.3001 22.6185 5.05148C23.3612 4.80287 24.1645 4.6995 24.9646 4.74961C25.7647 4.79972 26.5394 5.00191 27.2272 5.34011C27.9149 5.67831 28.4967 6.14317 28.9263 6.69771C29.3558 7.25225 29.6213 7.88116 29.7015 8.53441C29.7817 9.18765 29.6744 9.84719 29.3883 10.4606C29.1021 11.0739 28.6449 11.6242 28.0531 12.0675C29.4554 12.5643 30.6744 13.3526 31.589 14.3541C31.6703 14.443 31.7293 14.5441 31.7627 14.6516C31.7961 14.7592 31.8033 14.8711 31.7838 14.9809C31.7642 15.0907 31.7184 15.1963 31.649 15.2917C31.5795 15.387 31.4877 15.4701 31.3789 15.5364ZM24.4334 22.0333C24.508 22.1293 24.5581 22.2367 24.5807 22.349C24.6033 22.4613 24.5979 22.5761 24.5648 22.6867C24.5317 22.7972 24.4716 22.9011 24.3882 22.9921C24.3047 23.0832 24.1996 23.1595 24.0792 23.2164C23.9588 23.2734 23.8256 23.3098 23.6875 23.3235C23.5494 23.3372 23.4094 23.328 23.2758 23.2963C23.1422 23.2646 23.0179 23.2111 22.9102 23.139C22.8026 23.067 22.7138 22.9779 22.6494 22.877C21.9997 21.977 21.0745 21.2312 19.965 20.713C18.8556 20.1949 17.6001 19.9224 16.3226 19.9224C15.0451 19.9224 13.7897 20.1949 12.6802 20.713C11.5708 21.2312 10.6456 21.977 9.99592 22.877C9.93145 22.9779 9.84272 23.067 9.73507 23.139C9.62741 23.2111 9.50305 23.2646 9.36948 23.2963C9.2359 23.328 9.09587 23.3372 8.9578 23.3235C8.81973 23.3098 8.68648 23.2734 8.56607 23.2164C8.44565 23.1595 8.34056 23.0832 8.25712 22.9921C8.17367 22.9011 8.1136 22.7972 8.08051 22.6867C8.04742 22.5761 8.042 22.4613 8.06457 22.349C8.08714 22.2367 8.13725 22.1293 8.21186 22.0333C9.21165 20.6278 10.7361 19.5217 12.5612 18.8776C11.5342 18.2343 10.7795 17.3439 10.403 16.3314C10.0266 15.319 10.0474 14.2355 10.4625 13.2333C10.8776 12.231 11.6661 11.3604 12.7172 10.7438C13.7684 10.1271 15.0292 9.79551 16.3226 9.79551C17.616 9.79551 18.8769 10.1271 19.9281 10.7438C20.9792 11.3604 21.7677 12.231 22.1828 13.2333C22.5979 14.2355 22.6187 15.319 22.2423 16.3314C21.8658 17.3439 21.1111 18.2343 20.0841 18.8776C21.9092 19.5217 23.4336 20.6278 24.4334 22.0333ZM16.3226 18.2364C17.1385 18.2364 17.936 18.0385 18.6144 17.6676C19.2927 17.2968 19.8214 16.7697 20.1336 16.153C20.4459 15.5363 20.5275 14.8577 20.3684 14.203C20.2092 13.5483 19.8163 12.9469 19.2395 12.4749C18.6626 12.0029 17.9276 11.6815 17.1274 11.5512C16.3272 11.421 15.4978 11.4879 14.7441 11.7433C13.9903 11.9987 13.3461 12.4313 12.8928 12.9863C12.4396 13.5414 12.1976 14.1939 12.1976 14.8614C12.1976 15.7565 12.6322 16.6149 13.4058 17.2479C14.1794 17.8808 15.2286 18.2364 16.3226 18.2364ZM9.10389 12.3301C9.10389 12.1064 8.99524 11.8918 8.80185 11.7335C8.60845 11.5753 8.34615 11.4864 8.07264 11.4864C7.49402 11.4864 6.927 11.3535 6.43601 11.1031C5.94501 10.8526 5.54971 10.4944 5.29501 10.0694C5.04031 9.64427 4.93642 9.16926 4.99513 8.69829C5.05385 8.22731 5.27282 7.77925 5.62717 7.40499C5.98152 7.03073 6.45706 6.74528 6.99975 6.58106C7.54245 6.41684 8.13056 6.38044 8.69728 6.47598C9.264 6.57152 9.78661 6.79518 10.2058 7.12156C10.6249 7.44794 10.9238 7.86395 11.0684 8.32233C11.1368 8.53912 11.3076 8.7248 11.5433 8.83853C11.779 8.95226 12.0603 8.98472 12.3253 8.92878C12.5902 8.87283 12.8172 8.73306 12.9562 8.54022C13.0952 8.34737 13.1348 8.11724 13.0665 7.90046C12.8657 7.26481 12.4864 6.67628 11.9587 6.18169C11.431 5.6871 10.7695 5.3001 10.0268 5.05148C9.28413 4.80287 8.4808 4.6995 7.68071 4.74961C6.88063 4.79972 6.10588 5.00191 5.41811 5.34011C4.73034 5.67831 4.14854 6.14317 3.71899 6.69771C3.28944 7.25225 3.02401 7.88116 2.94381 8.53441C2.86361 9.18765 2.97086 9.84719 3.25702 10.4606C3.54318 11.0739 4.00036 11.6242 4.59217 12.0675C3.19133 12.5648 1.97372 13.353 1.06014 14.3541C0.895868 14.5331 0.825242 14.7582 0.8638 14.9798C0.902359 15.2014 1.04694 15.4015 1.26575 15.5359C1.48455 15.6703 1.75965 15.7281 2.03053 15.6965C2.3014 15.665 2.54587 15.5467 2.71014 15.3676C3.33171 14.6841 4.14076 14.1294 5.07217 13.7484C6.00357 13.3674 7.03131 13.1706 8.07264 13.1739C8.34615 13.1739 8.60845 13.085 8.80185 12.9268C8.99524 12.7685 9.10389 12.5539 9.10389 12.3301Z" fill="white"/>
</svg>
