<svg width="37" height="8" viewBox="0 0 37 8" fill="none" xmlns="http://www.w3.org/2000/svg">
<path d="M32.1559 4.85815L37 0.0140888H33.4951L30.4035 3.10569L27.9401 0.642327C27.1135 -0.184305 25.7744 -0.184305 24.9477 0.642327L22.4678 3.10569L20.0045 0.642327C19.3928 0.0306194 18.4835 -0.151237 17.6899 0.179415C16.8963 0.510068 16.3838 1.27057 16.3838 2.13026V4.94081L12.0688 0.625798C11.4571 0.0140908 10.5478 -0.167771 9.75425 0.162881C8.96068 0.493534 8.44817 1.25404 8.44817 2.11373V4.92428L3.50491 0.0140888H0L7.30742 7.32151C7.91912 7.93322 8.82842 8.11508 9.62198 7.78442C10.4156 7.45377 10.9281 6.69327 10.9281 5.83358V3.02303L15.2431 7.33804C15.8548 7.94975 16.7641 8.1316 17.5576 7.80095C18.3512 7.4703 18.8637 6.7098 18.8637 5.8501V3.03956L23.807 7.98282H27.3119L24.2203 4.89121L26.4357 2.67584L31.7426 7.98282H35.2475L32.1559 4.85815Z" fill="#0D0C12" fill-opacity="0.2"/>
</svg>
