<svg width="32" height="32" viewBox="0 0 32 32" fill="none" xmlns="http://www.w3.org/2000/svg">
<path d="M25 7.99997V20.9996C25 21.2648 24.8946 21.5191 24.7071 21.7067C24.5196 21.8942 24.2652 21.9995 24 21.9995C23.7348 21.9995 23.4805 21.8942 23.2929 21.7067C23.1054 21.5191 23.0001 21.2648 23.0001 20.9996V10.4136L8.708 24.707C8.52037 24.8946 8.26588 25 8.00052 25C7.73517 25 7.48068 24.8946 7.29305 24.707C7.10541 24.5193 7 24.2648 7 23.9995C7 23.7341 7.10541 23.4796 7.29305 23.292L21.5864 8.99994H11.0004C10.7352 8.99994 10.4809 8.89458 10.2933 8.70705C10.1058 8.51952 10.0005 8.26518 10.0005 7.99997C10.0005 7.73476 10.1058 7.48041 10.2933 7.29288C10.4809 7.10535 10.7352 7 11.0004 7H24C24.2652 7 24.5196 7.10535 24.7071 7.29288C24.8946 7.48041 25 7.73476 25 7.99997Z" fill="#E2F75F"/>
</svg>
