<svg width="24" height="24" viewBox="0 0 24 24" fill="none" xmlns="http://www.w3.org/2000/svg">
<path d="M1.8961 12.0522C1.89808 10.2626 2.60988 8.54684 3.87532 7.2814C5.14076 6.01596 6.8565 5.30416 8.6461 5.30217H18.8358L17.8655 4.3328C17.7247 4.19207 17.6457 4.0012 17.6457 3.80217C17.6457 3.60315 17.7247 3.41228 17.8655 3.27155C18.0062 3.13082 18.1971 3.05176 18.3961 3.05176C18.5951 3.05176 18.786 3.13082 18.9267 3.27155L21.1767 5.52155C21.2465 5.5912 21.3018 5.67392 21.3395 5.76497C21.3773 5.85602 21.3967 5.95361 21.3967 6.05217C21.3967 6.15074 21.3773 6.24833 21.3395 6.33938C21.3018 6.43043 21.2465 6.51315 21.1767 6.5828L18.9267 8.8328C18.786 8.97353 18.5951 9.05259 18.3961 9.05259C18.1971 9.05259 18.0062 8.97353 17.8655 8.8328C17.7247 8.69207 17.6457 8.5012 17.6457 8.30217C17.6457 8.10315 17.7247 7.91228 17.8655 7.77155L18.8358 6.80217H8.6461C7.25417 6.80366 5.91968 7.35727 4.93543 8.34151C3.95119 9.32575 3.39759 10.6602 3.3961 12.0522C3.3961 12.2511 3.31708 12.4419 3.17643 12.5825C3.03578 12.7232 2.84501 12.8022 2.6461 12.8022C2.44719 12.8022 2.25642 12.7232 2.11577 12.5825C1.97512 12.4419 1.8961 12.2511 1.8961 12.0522ZM20.6461 11.3022C20.4472 11.3022 20.2564 11.3812 20.1158 11.5218C19.9751 11.6625 19.8961 11.8533 19.8961 12.0522C19.8946 13.4441 19.341 14.7786 18.3568 15.7628C17.3725 16.7471 16.038 17.3007 14.6461 17.3022H4.45641L5.42672 16.3328C5.49641 16.2631 5.55168 16.1804 5.58939 16.0893C5.6271 15.9983 5.64651 15.9007 5.64651 15.8022C5.64651 15.7036 5.6271 15.606 5.58939 15.515C5.55168 15.424 5.49641 15.3412 5.42672 15.2716C5.35704 15.2019 5.27432 15.1466 5.18327 15.1089C5.09223 15.0712 4.99464 15.0518 4.8961 15.0518C4.79755 15.0518 4.69997 15.0712 4.60893 15.1089C4.51788 15.1466 4.43516 15.2019 4.36547 15.2716L2.11547 17.5216C2.04574 17.5912 1.99042 17.6739 1.95268 17.765C1.91493 17.856 1.89551 17.9536 1.89551 18.0522C1.89551 18.1507 1.91493 18.2483 1.95268 18.3394C1.99042 18.4304 2.04574 18.5131 2.11547 18.5828L4.36547 20.8328C4.43516 20.9025 4.51788 20.9578 4.60893 20.9955C4.69997 21.0332 4.79755 21.0526 4.8961 21.0526C4.99464 21.0526 5.09223 21.0332 5.18327 20.9955C5.27432 20.9578 5.35704 20.9025 5.42672 20.8328C5.49641 20.7631 5.55168 20.6804 5.58939 20.5893C5.6271 20.4983 5.64651 20.4007 5.64651 20.3022C5.64651 20.2036 5.6271 20.106 5.58939 20.015C5.55168 19.924 5.49641 19.8412 5.42672 19.7715L4.45641 18.8022H14.6461C16.4357 18.8002 18.1514 18.0884 19.4169 16.823C20.6823 15.5575 21.3941 13.8418 21.3961 12.0522C21.3961 11.8533 21.3171 11.6625 21.1764 11.5218C21.0358 11.3812 20.845 11.3022 20.6461 11.3022Z" fill="white"/>
</svg>
