<svg width="32" height="32" viewBox="0 0 32 32" fill="none" xmlns="http://www.w3.org/2000/svg">
<g opacity="0.5">
<path d="M11.2288 8.41699C11.2288 8.15178 11.3341 7.89742 11.5217 7.70989C11.7092 7.52235 11.9635 7.41699 12.2288 7.41699H27.2288C27.494 7.41699 27.7483 7.52235 27.9359 7.70989C28.1234 7.89742 28.2288 8.15178 28.2288 8.41699C28.2288 8.68221 28.1234 8.93656 27.9359 9.1241C27.7483 9.31164 27.494 9.41699 27.2288 9.41699H12.2288C11.9635 9.41699 11.7092 9.31164 11.5217 9.1241C11.3341 8.93656 11.2288 8.68221 11.2288 8.41699ZM27.2288 15.417H12.2288C11.9635 15.417 11.7092 15.5223 11.5217 15.7099C11.3341 15.8974 11.2288 16.1518 11.2288 16.417C11.2288 16.6822 11.3341 16.9366 11.5217 17.1241C11.7092 17.3116 11.9635 17.417 12.2288 17.417H27.2288C27.494 17.417 27.7483 17.3116 27.9359 17.1241C28.1234 16.9366 28.2288 16.6822 28.2288 16.417C28.2288 16.1518 28.1234 15.8974 27.9359 15.7099C27.7483 15.5223 27.494 15.417 27.2288 15.417ZM27.2288 23.417H12.2288C11.9635 23.417 11.7092 23.5223 11.5217 23.7099C11.3341 23.8974 11.2288 24.1518 11.2288 24.417C11.2288 24.6822 11.3341 24.9366 11.5217 25.1241C11.7092 25.3116 11.9635 25.417 12.2288 25.417H27.2288C27.494 25.417 27.7483 25.3116 27.9359 25.1241C28.1234 24.9366 28.2288 24.6822 28.2288 24.417C28.2288 24.1518 28.1234 23.8974 27.9359 23.7099C27.7483 23.5223 27.494 23.417 27.2288 23.417ZM7.22876 7.41699H5.22876C4.96354 7.41699 4.70919 7.52235 4.52165 7.70989C4.33412 7.89742 4.22876 8.15178 4.22876 8.41699C4.22876 8.68221 4.33412 8.93656 4.52165 9.1241C4.70919 9.31164 4.96354 9.41699 5.22876 9.41699H7.22876C7.49398 9.41699 7.74833 9.31164 7.93587 9.1241C8.1234 8.93656 8.22876 8.68221 8.22876 8.41699C8.22876 8.15178 8.1234 7.89742 7.93587 7.70989C7.74833 7.52235 7.49398 7.41699 7.22876 7.41699ZM7.22876 15.417H5.22876C4.96354 15.417 4.70919 15.5223 4.52165 15.7099C4.33412 15.8974 4.22876 16.1518 4.22876 16.417C4.22876 16.6822 4.33412 16.9366 4.52165 17.1241C4.70919 17.3116 4.96354 17.417 5.22876 17.417H7.22876C7.49398 17.417 7.74833 17.3116 7.93587 17.1241C8.1234 16.9366 8.22876 16.6822 8.22876 16.417C8.22876 16.1518 8.1234 15.8974 7.93587 15.7099C7.74833 15.5223 7.49398 15.417 7.22876 15.417ZM7.22876 23.417H5.22876C4.96354 23.417 4.70919 23.5223 4.52165 23.7099C4.33412 23.8974 4.22876 24.1518 4.22876 24.417C4.22876 24.6822 4.33412 24.9366 4.52165 25.1241C4.70919 25.3116 4.96354 25.417 5.22876 25.417H7.22876C7.49398 25.417 7.74833 25.3116 7.93587 25.1241C8.1234 24.9366 8.22876 24.6822 8.22876 24.417C8.22876 24.1518 8.1234 23.8974 7.93587 23.7099C7.74833 23.5223 7.49398 23.417 7.22876 23.417Z" fill="white"/>
</g>
</svg>
