<svg width="19" height="4" viewBox="0 0 19 4" fill="none" xmlns="http://www.w3.org/2000/svg">
<path d="M16.1125 2.43429L18.5398 0.00705953H16.7835L15.2344 1.55618L14.0001 0.321853C13.5859 -0.0923503 12.9149 -0.0923503 12.5007 0.321853L11.2581 1.55618L10.0237 0.321853C9.71721 0.0153426 9.26159 -0.0757812 8.86396 0.0899003C8.46632 0.255582 8.20951 0.636648 8.20951 1.06742V2.47571L6.04737 0.313571C5.74086 0.00706054 5.28524 -0.0840658 4.8876 0.0816157C4.48997 0.247297 4.23316 0.628366 4.23316 1.05914V2.46743L1.75622 0.00705953H0L3.66156 3.66862C3.96807 3.97513 4.42369 4.06626 4.82133 3.90057C5.21896 3.73489 5.47577 3.35383 5.47577 2.92305V1.51476L7.63791 3.6769C7.94442 3.98341 8.40005 4.07454 8.79768 3.90886C9.19532 3.74317 9.45213 3.36211 9.45213 2.93134V1.52304L11.9291 3.99998H13.6853L12.1362 2.45086L13.2462 1.3408L15.9054 3.99998H17.6616L16.1125 2.43429Z" fill="#0F121C"/>
</svg>
