<svg width="265" height="138" viewBox="0 0 265 138" fill="none" xmlns="http://www.w3.org/2000/svg">
<path d="M0 56.987C10.1923 56.987 10.1923 43.2572 20.3846 43.2572C30.5769 43.2572 30.5769 84.4464 40.7692 84.4464C50.9615 84.4464 50.9615 32.9599 61.1538 32.9599C71.3462 32.9599 71.3462 39.8248 81.5385 39.8248C91.7308 39.8248 91.7308 98.1762 101.923 98.1762C112.115 98.1762 112.115 132.5 122.308 132.5C132.5 132.5 132.5 115.338 142.692 115.338C152.885 115.338 152.885 5.50049 163.077 5.50049C173.269 5.50049 173.269 74.1491 183.462 74.1491C193.654 74.1491 193.654 108.473 203.846 108.473C214.038 108.473 214.038 91.3113 224.231 91.3113C234.423 91.3113 234.423 26.0951 244.615 26.0951C254.808 26.0951 254.808 22.6626 265 22.6626M265 22.6626V22.6626Z" stroke="#4200B5" stroke-width="3"/>
<path d="M0 136.5C16.5625 136.5 16.5625 1.5 33.125 1.5C49.6875 1.5 49.6875 84.2419 66.25 84.2419C82.8125 84.2419 82.8125 23.2742 99.375 23.2742C115.938 23.2742 115.938 40.6935 132.5 40.6935C149.063 40.6935 149.063 106.016 165.625 106.016C182.188 106.016 182.188 114.726 198.75 114.726C215.313 114.726 215.313 92.9516 231.875 92.9516C248.438 92.9516 248.438 62.4677 265 62.4677M265 62.4677V62.4677Z" stroke="#E2F75F" stroke-width="3"/>
</svg>
